<?xml version="1.0" encoding="utf-8"?>
<svg viewBox="33.608 20.457 411.265 274.177" xmlns="http://www.w3.org/2000/svg">
  <defs>
    <clipPath id="clippath0" transform="">
      <path d="M 0 500 L 750 500 L 750 0 L 0 0 Z" style="fill: none; clip-rule: nonzero;"/>
    </clipPath>
    <clipPath id="clippath1" transform="">
      <path d="M 605.659 244.078 L 605.659 244.079 C 605.659 244.079 602.125 232.59 605.117 232.787 L 605.117 232.787 C 610.361 233.132 641.174 232.116 662.955 226.826 L 662.955 226.826 C 662.955 226.826 666.479 225.584 659.835 233.171 L 659.835 233.171 C 654.382 239.399 624.778 244.918 611.556 244.918 L 611.556 244.918 C 608.668 244.918 606.562 244.655 605.659 244.078" style="fill: none; clip-rule: nonzero;"/>
    </clipPath>
    <clipPath id="clippath2" transform="">
      <path d="M 0 500 L 750 500 L 750 0 L 0 0 Z" style="fill: none; clip-rule: nonzero;"/>
    </clipPath>
  </defs>
  <g transform="matrix(0.548353, 0, 0, -0.548353, 33.607872, 294.633362)" style="">
    <g transform="">
      <path d="M 0 500 L 750 500 L 750 0 L 0 0 Z" style="fill: none;"/>
    </g>
    <g style="clip-path: url(#clippath0);">
      <g transform="translate(44.4496 228.5858)">
        <path d="M 0 0 C 3.188 6.673 9.106 79.593 13.259 93.39 C 17.677 108.066 24.338 121.611 33.174 134.128 C 87.095 210.517 126.433 155.594 174.737 197.505 C 187.683 208.738 198.061 222.806 212.014 232.91 C 257.358 265.745 315.734 256.925 361.351 230.243 C 384.312 216.813 400.279 189.455 426.6 182.583 C 467.127 172.002 507.372 205.591 548.077 206.584 C 653.059 209.144 669.644 86.719 669.271 6.58 C 669.185 -11.937 666.902 -30.6 661.498 -48.343 C 657.806 -60.467 652.304 -71.879 645.498 -82.557 C 594.161 -163.094 531.436 -98.029 465.466 -119.323 C 412.058 -136.563 372.903 -213.289 305.865 -198.669 C 254.118 -187.383 247.074 -147.926 194.964 -137.969 C 144.207 -128.27 113.122 -124.264 63.87 -140.998 C -24.22 -170.925 -30.526 -63.903 0 0 Z" style="fill: rgb(251, 248, 225); fill-opacity: 1;"/>
      </g>
    </g>
    <g style="clip-path: url(#clippath0);">
      <g transform="translate(621.9407 189.8003)">
        <path d="M 0 0 C -4.765 2.502 -8.446 0.821 -11.519 -4.584 C -15.622 -11.798 -21.331 -29.806 -17.284 -32.195 C -12.649 -34.93 -4.827 -29.036 -0.236 -20.291 C 4.355 -11.546 4.766 -2.502 0 0" style="fill: rgb(78, 123, 142); fill-opacity: 1;"/>
      </g>
    </g>
    <g style="clip-path: url(#clippath0);">
      <g transform="translate(617.6642 190.9311)">
        <path d="M 0 0 C -2.793 -0.096 -5.157 -2.048 -7.242 -5.714 C -11.344 -12.928 -17.053 -30.937 -13.006 -33.325 C -12.817 -33.437 -12.623 -33.534 -12.423 -33.617 C -12.009 -17.346 -4.386 -5.501 0 0" style="fill: rgb(157, 193, 199); fill-opacity: 1;"/>
      </g>
    </g>
    <g style="clip-path: url(#clippath0);">
      <g transform="translate(622.1431 171.5534)">
        <path d="M 0 0 C 0 0 -3.06 1.544 -6.101 5.087 C -6.512 5.565 -6.457 6.287 -5.978 6.697 C -5.5 7.108 -4.779 7.053 -4.368 6.574 C -1.667 3.426 1.036 2.035 1.036 2.035 C 1.598 1.749 1.821 1.061 1.535 0.499 C 1.249 -0.062 0.562 -0.286 0 0" style="fill: rgb(157, 193, 199); fill-opacity: 1;"/>
      </g>
    </g>
    <g style="clip-path: url(#clippath0);">
      <g transform="translate(620.5777 168.2117)">
        <path d="M 0 0 C 0 0 -3.06 1.544 -6.101 5.087 C -6.512 5.565 -6.456 6.287 -5.978 6.697 C -5.5 7.108 -4.779 7.053 -4.368 6.574 C -1.666 3.426 1.037 2.035 1.037 2.035 C 1.598 1.749 1.821 1.061 1.535 0.499 C 1.249 -0.062 0.561 -0.286 0 0" style="fill: rgb(157, 193, 199); fill-opacity: 1;"/>
      </g>
    </g>
    <g style="clip-path: url(#clippath0);">
      <g transform="translate(619.0814 165.107)">
        <path d="M 0 0 C 0 0 -3.06 1.544 -6.101 5.087 C -6.511 5.565 -6.456 6.287 -5.978 6.697 C -5.5 7.108 -4.778 7.053 -4.368 6.574 C -1.666 3.426 1.037 2.035 1.037 2.035 C 1.598 1.749 1.822 1.061 1.536 0.499 C 1.25 -0.062 0.562 -0.286 0 0" style="fill: rgb(157, 193, 199); fill-opacity: 1;"/>
      </g>
    </g>
    <g style="clip-path: url(#clippath0);">
      <g transform="translate(550.6075 113.1836)">
        <path d="M 0 0 C -5.062 -1.831 -6.304 -5.681 -4.387 -11.595 C -1.829 -19.49 7.614 -35.852 12.108 -34.476 C 17.254 -32.9 18.179 -23.15 14.82 -13.862 C 11.461 -4.574 5.061 1.831 0 0 Z" style="fill: rgb(78, 123, 142); fill-opacity: 1;"/>
      </g>
    </g>
    <g style="clip-path: url(#clippath0);">
      <g transform="translate(546.8841 110.7886)">
        <path d="M 0 0 C -1.813 -2.126 -1.966 -5.189 -0.666 -9.201 C 1.892 -17.095 11.335 -33.457 15.829 -32.081 C 16.039 -32.017 16.241 -31.939 16.437 -31.848 C 4.705 -20.566 1.103 -6.949 0 0" style="fill: rgb(157, 193, 199); fill-opacity: 1;"/>
      </g>
    </g>
    <g style="clip-path: url(#clippath0);">
      <g transform="translate(564.2124 101.0242)">
        <path d="M 0 0 C 0 0 -3.204 -1.217 -7.871 -1.072 C -8.501 -1.052 -8.996 -0.525 -8.977 0.105 C -8.957 0.734 -8.43 1.23 -7.8 1.21 C -3.653 1.081 -0.803 2.138 -0.803 2.138 C -0.213 2.359 0.446 2.06 0.668 1.471 C 0.889 0.88 0.59 0.222 0 0 Z" style="fill: rgb(157, 193, 199); fill-opacity: 1;"/>
      </g>
    </g>
    <g style="clip-path: url(#clippath0);">
      <g transform="translate(565.6198 97.6118)">
        <path d="M 0 0 C 0 0 -3.204 -1.217 -7.871 -1.072 C -8.501 -1.052 -8.997 -0.525 -8.977 0.105 C -8.957 0.734 -8.43 1.23 -7.8 1.21 C -3.653 1.081 -0.803 2.138 -0.803 2.138 C -0.213 2.359 0.446 2.06 0.667 1.471 C 0.889 0.881 0.59 0.222 0 0 Z" style="fill: rgb(157, 193, 199); fill-opacity: 1;"/>
      </g>
    </g>
    <g style="clip-path: url(#clippath0);">
      <g transform="translate(566.9038 94.4143)">
        <path d="M 0 0 C 0 0 -3.205 -1.217 -7.871 -1.072 C -8.501 -1.053 -8.997 -0.525 -8.977 0.105 C -8.957 0.734 -8.43 1.23 -7.8 1.21 C -3.653 1.081 -0.803 2.138 -0.803 2.138 C -0.213 2.359 0.446 2.06 0.667 1.471 C 0.889 0.88 0.59 0.222 0 0" style="fill: rgb(157, 193, 199); fill-opacity: 1;"/>
      </g>
    </g>
    <g style="clip-path: url(#clippath0);">
      <g transform="translate(610.2173 250.2984)">
        <path d="M 0 0 C -3.477 -1.339 -7.401 -49.941 -61.487 -138.161 C -61.487 -138.161 -50.239 -150.687 -44.696 -145.087 C -44.696 -145.087 16.888 -49.185 19.311 -45.338 C 22.026 -41.027 27.757 -41.307 31.554 -44.332 C 33.742 -46.075 50.31 -62.081 39.882 -62.584 C 29.455 -63.086 19.406 -61.236 12.998 -61.056 C 11.809 -61.023 6.946 -72.107 11.8 -75.821 C 16.656 -79.535 65.155 -85.97 70.669 -77.672 C 78.315 -66.169 53.686 -24.169 47.595 -17.235 C 41.504 -10.301 3.478 1.338 0 0" style="fill: rgb(179, 179, 179); fill-opacity: 1;"/>
      </g>
    </g>
    <g style="clip-path: url(#clippath0);">
      <g transform="translate(602.1728 224.978)">
        <path d="M 0 0 C 5.095 16.149 6.608 24.767 8.044 25.32 C 11.523 26.659 49.549 15.019 55.64 8.085 C 57.175 6.337 59.889 2.36 62.965 -2.792 C 52.747 0.559 42.182 2.566 31.414 3.088 C 22.235 3.533 12.916 2.696 3.916 0.851 C 2.607 0.583 1.297 0.313 0 0 Z" style="fill: rgb(157, 157, 157); fill-opacity: 1;"/>
      </g>
    </g>
    <g style="clip-path: url(#clippath0);">
      <g transform="translate(635.6345 243.888)">
        <path d="M 0 0 C 0.358 -0.126 0.716 -0.252 1.073 -0.38 C 1.772 -7.208 2.453 -16.307 2.227 -24.388 C 2.202 -25.271 2.166 -26.143 2.118 -26.997 C 2.163 -26.993 2.208 -26.993 2.255 -27 C 3.687 -27.223 4.763 -26.645 5.564 -25.519 C 6.447 -24.277 7.01 -22.416 7.359 -20.199 C 8.143 -15.221 7.821 -8.492 7.252 -2.714 C 7.611 -2.858 7.968 -3.002 8.32 -3.146 C 8.863 -8.883 9.147 -15.46 8.375 -20.359 C 7.997 -22.761 7.36 -24.77 6.403 -26.116 C 5.363 -27.577 3.957 -28.305 2.097 -28.017 C 2.083 -28.015 2.069 -28.012 2.055 -28.009 C 1.86 -30.839 1.524 -33.466 1.006 -35.731 C 0.662 -35.69 0.317 -35.668 -0.025 -35.667 C 0.72 -32.5 1.08 -28.569 1.198 -24.358 C 1.429 -16.13 0.713 -6.84 0 0" style="fill: rgb(118, 116, 116); fill-opacity: 1;"/>
      </g>
    </g>
    <g style="clip-path: url(#clippath0);">
      <g transform="translate(639.4221 170.3287)">
        <path d="M 0 0 C -8.668 1.218 -15.706 2.849 -17.404 4.149 C -22.259 7.862 -17.396 18.947 -16.206 18.914 C -10.03 18.74 -0.469 17.014 9.553 17.341 C 9.304 17.097 9.06 16.848 8.821 16.595 C 6.484 14.118 4.436 11.295 2.781 8.319 C 1.219 5.51 0.32 2.838 0 0 Z" style="fill: rgb(157, 157, 157); fill-opacity: 1;"/>
      </g>
    </g>
    <g style="clip-path: url(#clippath0);">
      <g transform="translate(685.101 283.6228)">
        <path d="M 0 0 C 0.198 2.259 9.848 22.449 10.155 29.23 L 19.574 25.337 C 17.849 12.212 14.58 0.376 10.663 -10.921 C 10.663 -10.921 -0.198 -2.26 0 0" style="fill: rgb(254, 203, 165); fill-opacity: 1;"/>
      </g>
    </g>
    <g style="clip-path: url(#clippath0);">
      <g transform="translate(688.9085 293.5092)">
        <path d="M 0 0 C 1.467 -3.443 5.112 -8.099 10.666 -8.809 C 9.499 -12.895 8.217 -16.883 6.856 -20.807 C 6.856 -20.807 -4.005 -12.146 -3.807 -9.886 C -3.724 -8.946 -2.003 -4.896 0 0" style="fill: rgb(229, 140, 108); fill-opacity: 1;"/>
      </g>
    </g>
    <g style="clip-path: url(#clippath0);">
      <g transform="translate(704.8639 308.4538)">
        <path d="M 0 0 C -2.129 -1.451 -5.994 -2.67 -8.312 -1.115 C -11.302 0.891 -16.166 10.003 -17.944 12.038 C -18.494 12.669 -19.938 14.5 -19.579 15.423 C -18.776 17.495 -12.241 11.719 -12.205 11.755 C -11.967 11.99 -11.479 22.6 -9.524 23.338 C -7.279 24.186 -7.466 15.599 -7.135 15.622 C -6.772 15.646 -4.748 23.767 -1.937 23.284 C -0.013 22.953 -2.083 14.581 -1.872 14.46 C -1.792 14.414 3.387 20.46 4.937 19.09 C 6.568 17.648 2.312 13.007 2.047 11.211 C 2.024 11.048 7.732 14.224 8.31 12.596 C 8.656 11.62 4.98 8.256 4.462 7.589 C 2.384 4.906 2.129 1.45 0 0" style="fill: rgb(254, 203, 165); fill-opacity: 1;"/>
      </g>
    </g>
    <g style="clip-path: url(#clippath0);">
      <g transform="translate(568.8544 345.3733)">
        <path d="M 0 0 C 0 0 -5.464 28.486 -5.053 40.82 L -16.305 38.914 C -16.305 38.914 -24.387 -8.177 -8.468 -9.95 C 4.864 -11.435 -0.449 2.177 0 0 Z" style="fill: rgb(254, 203, 165); fill-opacity: 1;"/>
      </g>
    </g>
    <g style="clip-path: url(#clippath0);">
      <g transform="translate(550.6322 355.1471)">
        <path d="M 0 0 C 0.714 -1.408 4.522 -7.307 17.319 -4.818 C 17.797 -7.532 18.14 -9.345 18.209 -9.707 C 18.212 -9.727 18.216 -9.75 18.222 -9.774 L 18.209 -9.707 C 17.888 -7.897 22.938 -21.192 9.754 -19.723 C 2.989 -18.97 0.558 -10.031 0 0 Z" style="fill: rgb(229, 140, 108); fill-opacity: 1;"/>
      </g>
    </g>
    <g style="clip-path: url(#clippath0);">
      <g transform="translate(562.0741 383.4561)">
        <path d="M 0 0 C 0.974 0.571 2.326 1.908 4.58 5.434 C 6.138 7.872 6.062 9.541 5.82 10.905 C 5.288 13.904 2.094 12.867 1.886 13.21 C 1.689 13.535 1.71 19.78 -3.459 19.429 C -5.453 19.293 -5.451 17.644 -5.451 17.644 C -5.451 17.644 -6.765 19.262 -8.878 18.704 C -10.936 18.16 -11.11 15.66 -11.11 15.66 C -11.11 15.66 -12.56 16.401 -13.609 14.635 C -14.394 13.315 -13.838 12.01 -13.838 12.01 C -13.838 12.01 -14.91 12.957 -16.028 11.155 C -17.155 9.34 -16.934 8.668 -15.566 6.238 C -14.31 4.006 -11.185 0.048 -9.03 -0.846 C -5.266 -2.408 -2.679 -1.57 0 0" style="fill: rgb(254, 203, 165); fill-opacity: 1;"/>
      </g>
    </g>
    <g style="clip-path: url(#clippath0);">
      <g transform="translate(559.0174 395.6477)">
        <path d="M 0 0 C 1.54 0.665 3.24 0.986 4.886 1.295 C 4.908 1.149 4.926 1.052 4.946 1.019 C 4.965 0.987 5.009 0.967 5.075 0.955 C 4.557 0.841 3.934 0.706 3.654 0.633 C 3.148 0.499 2.643 0.358 2.146 0.192 C 1.726 0.051 1.305 -0.085 0.894 -0.25 C -0.379 -0.763 -1.857 -1.352 -2.181 -2.833 C -2.304 -3.397 -2.212 -3.868 -1.742 -4.268 C -1.409 -4.553 -0.92 -4.732 -0.507 -4.822 C 0.591 -5.06 1.698 -5.161 2.819 -5.221 C 3.206 -5.242 3.596 -5.261 3.984 -5.235 C 4.128 -5.225 2.916 -5.468 2.329 -5.483 C 1.634 -5.502 0.637 -5.531 -0.296 -5.388 C -0.388 -5.455 -0.462 -5.513 -0.487 -5.533 C -1.205 -6.077 -1.765 -6.85 -2.107 -7.68 C -2.215 -7.943 -2.476 -8.636 -2.453 -8.468 C -2.346 -7.654 -2.018 -6.343 -1.536 -5.678 C -1.427 -5.526 -1.295 -5.342 -1.14 -5.198 C -1.933 -4.95 -2.577 -4.507 -2.786 -3.723 C -2.944 -3.752 -3.125 -3.74 -3.24 -3.726 C -3.357 -3.712 -3.475 -3.684 -3.591 -3.644 C -3.635 -3.735 -3.718 -3.839 -3.776 -3.957 C -3.845 -4.094 -3.923 -4.224 -4.01 -4.35 C -4.506 -5.065 -5.469 -5.237 -6.303 -5.053 C -6.347 -5.435 -6.501 -5.854 -6.632 -6.204 C -6.788 -6.618 -6.984 -7.041 -7.276 -7.378 C -7.769 -7.948 -8.643 -7.854 -9.27 -7.592 C -10.568 -7.05 -11.537 -6.049 -12.272 -4.876 C -12.282 -4.865 -12.292 -4.855 -12.301 -4.845 L -12.286 -4.853 C -12.281 -4.86 -12.276 -4.868 -12.272 -4.876 C -12.066 -5.086 -11.865 -5.302 -11.654 -5.508 C -10.878 -6.27 -9.648 -7.325 -8.457 -7.209 C -7.61 -7.127 -7.036 -6.113 -6.837 -5.382 C -6.795 -5.228 -6.801 -5.058 -6.786 -4.9 C -6.909 -4.848 -7.025 -4.788 -7.133 -4.72 C -8.921 -3.588 -10.447 -1.831 -11.409 0.065 C -11.105 0.043 -10.885 -0.1 -10.808 -0.158 C -10.635 -0.46 -10.419 -0.755 -10.265 -0.959 C -9.243 -2.318 -7.986 -4.062 -6.244 -4.465 C -5.793 -4.57 -5.198 -4.626 -4.774 -4.395 C -4.483 -4.236 -4.281 -3.948 -4.099 -3.679 C -4.082 -3.652 -4.039 -3.555 -3.995 -3.465 C -4.45 -3.216 -4.874 -2.839 -5.196 -2.52 C -6.195 -1.53 -6.84 -0.159 -7.469 1.07 C -7.879 1.872 -8.279 2.699 -8.456 3.593 C -8.207 3.549 -8.05 3.468 -8.05 3.468 C -8.05 3.468 -8.049 3.493 -8.043 3.539 C -8.03 3.496 -8.016 3.453 -8.003 3.411 C -7.786 2.747 -7.471 2.133 -7.155 1.512 C -6.495 0.214 -5.774 -1.012 -4.835 -2.131 C -4.468 -2.569 -3.969 -3.173 -3.38 -3.315 C -3.212 -3.356 -3.027 -3.351 -2.852 -3.315 C -2.854 -3.277 -2.856 -3.238 -2.857 -3.198 C -2.884 -1.846 -1.993 -1.047 -0.896 -0.439 C -0.818 -0.396 -0.74 -0.354 -0.662 -0.314 C -0.716 0.102 -0.827 0.495 -0.911 0.817 C -1.212 1.973 -1.531 3.176 -1.949 4.293 C -2.103 4.704 -2.242 5.119 -2.387 5.532 C -2.374 5.67 -2.328 5.965 -2.155 6.273 C -1.737 5.463 -1.439 4.576 -1.154 3.714 C -0.948 3.093 -0.777 2.463 -0.601 1.833 C -0.463 1.335 -0.297 0.841 -0.117 0.356 C -0.079 0.255 -0.035 0.126 0 0 Z" style="fill: rgb(208, 102, 68); fill-opacity: 1;"/>
      </g>
    </g>
    <g style="clip-path: url(#clippath0);">
      <g transform="translate(605.6592 244.0787)">
        <path d="M 0 0 C 0 0 -3.534 -11.489 -0.543 -11.292 C 4.702 -10.947 35.515 -11.962 57.296 -17.253 C 57.296 -17.253 60.819 -18.495 54.176 -10.907 C 47.532 -3.319 5.036 3.216 0 0 Z" style="fill: rgb(157, 193, 199); fill-opacity: 1;"/>
      </g>
    </g>
    <g transform="">
      <path d="M 605.659 244.078 L 605.659 244.079 C 605.659 244.079 602.125 232.59 605.117 232.787 L 605.117 232.787 C 610.361 233.132 641.174 232.116 662.955 226.826 L 662.955 226.826 C 662.955 226.826 666.479 225.584 659.835 233.171 L 659.835 233.171 C 654.382 239.399 624.778 244.918 611.556 244.918 L 611.556 244.918 C 608.668 244.918 606.562 244.655 605.659 244.078" style="fill: none;"/>
    </g>
    <g style="clip-path: url(#clippath1);">
      <g transform="translate(609.6691 243.8239)">
        <path d="M 0 0 L -0.281 -13.975 C -0.286 -14.259 -0.061 -14.494 0.223 -14.499 C 0.507 -14.505 0.742 -14.28 0.748 -13.996 L 1.029 -0.02 C 1.035 0.263 0.809 0.498 0.525 0.504 C 0.241 0.51 0.006 0.284 0 0" style="fill: rgb(91, 138, 158); fill-opacity: 1;"/>
      </g>
    </g>
    <g style="clip-path: url(#clippath1);">
      <g transform="translate(618.4642 242.3528)">
        <path d="M 0 0 L -0.456 -13.97 C -0.466 -14.254 -0.242 -14.492 0.041 -14.502 C 0.325 -14.511 0.563 -14.288 0.572 -14.004 L 1.028 -0.034 C 1.038 0.25 0.815 0.488 0.531 0.497 C 0.247 0.506 0.009 0.283 0 0" style="fill: rgb(91, 138, 158); fill-opacity: 1;"/>
      </g>
    </g>
    <g style="clip-path: url(#clippath1);">
      <g transform="translate(627.8074 242.3567)">
        <path d="M 0 0 L -0.742 -13.958 C -0.758 -14.241 -0.539 -14.484 -0.256 -14.499 C 0.028 -14.514 0.27 -14.296 0.285 -14.012 L 1.027 -0.054 C 1.042 0.229 0.824 0.472 0.541 0.486 C 0.257 0.502 0.015 0.284 0 0" style="fill: rgb(91, 138, 158); fill-opacity: 1;"/>
      </g>
    </g>
    <g style="clip-path: url(#clippath1);">
      <g transform="translate(635.3283 240.8466)">
        <path d="M 0 0 L -0.491 -13.969 C -0.501 -14.253 -0.279 -14.491 0.005 -14.501 C 0.289 -14.511 0.527 -14.289 0.537 -14.005 L 1.028 -0.036 C 1.038 0.248 0.816 0.486 0.532 0.496 C 0.248 0.506 0.01 0.284 0 0" style="fill: rgb(91, 138, 158); fill-opacity: 1;"/>
      </g>
    </g>
    <g style="clip-path: url(#clippath1);">
      <g transform="translate(643.5061 240.7345)">
        <path d="M 0 0 L -0.649 -13.962 C -0.663 -14.246 -0.443 -14.487 -0.16 -14.5 C 0.124 -14.514 0.365 -14.294 0.378 -14.01 L 1.028 -0.048 C 1.041 0.236 0.821 0.477 0.538 0.49 C 0.254 0.503 0.013 0.283 0 0" style="fill: rgb(91, 138, 158); fill-opacity: 1;"/>
      </g>
    </g>
    <g style="clip-path: url(#clippath1);">
      <g transform="translate(651.6345 239.1552)">
        <path d="M 0 0 L 0.599 -13.965 C 0.61 -14.249 0.851 -14.469 1.134 -14.457 C 1.418 -14.445 1.639 -14.205 1.626 -13.921 L 1.028 0.044 C 1.016 0.327 0.776 0.548 0.492 0.536 C 0.208 0.523 -0.012 0.283 0 0" style="fill: rgb(91, 138, 158); fill-opacity: 1;"/>
      </g>
    </g>
    <g style="clip-path: url(#clippath1);">
      <g transform="translate(658.6567 235.8792)">
        <path d="M 0 0 L 0.541 -13.967 C 0.552 -14.251 0.792 -14.472 1.075 -14.461 C 1.359 -14.45 1.58 -14.211 1.569 -13.927 L 1.028 0.04 C 1.017 0.324 0.778 0.545 0.494 0.534 C 0.21 0.523 -0.011 0.284 0 0" style="fill: rgb(91, 138, 158); fill-opacity: 1;"/>
      </g>
    </g>
    <g transform="">
      <path d="M 0 500 L 750 500 L 750 0 L 0 0 Z" style="fill: none;"/>
    </g>
    <g style="clip-path: url(#clippath2);">
      <g transform="translate(568.8099 350.7179)">
        <path d="M 0 0 C 0 0 33.186 -25.369 48.4 -30.745 C 63.05 -35.922 84.516 -43.936 97.153 -56.862 C 103.047 -62.89 109.265 -70.191 110.378 -68.933 C 112.094 -66.991 112.512 -65.147 113.912 -64.609 C 116.992 -63.425 128.932 -72.271 129.447 -78.433 C 129.927 -84.161 125.669 -101.03 111.03 -94.582 C 94.687 -87.385 90.36 -82.647 90.36 -82.647 C 90.36 -82.647 95.158 -105.499 93.692 -114.29 C 93.198 -117.253 92.718 -119.062 91.353 -118.32 C 83.46 -114.03 43.942 -107.469 35.962 -109.942 C 35.962 -109.942 29.1 -105.149 34.237 -60.8 C 34.237 -60.8 21.849 -49.388 9.557 -39.14 C -0.026 -31.148 -7.438 -20.118 -10.499 -18.945 C -13.561 -17.772 -6.081 -4.33 0 0 Z" style="fill: rgb(78, 123, 142); fill-opacity: 1;"/>
      </g>
    </g>
    <g style="clip-path: url(#clippath2);">
      <g transform="translate(551.6791 345.5589)">
        <path d="M 0 0 C 0 0 12.589 -0.905 16.075 5.769 C 16.075 5.769 20.674 6.069 23.388 1.857 C 27.003 -3.752 9.707 -17.009 5.801 -13.44 C -0.752 -7.451 -2.002 -1.9 0 0 Z" style="fill: rgb(157, 193, 199); fill-opacity: 1;"/>
      </g>
    </g>
    <g style="clip-path: url(#clippath2);">
      <g transform="translate(687.3232 290.4904)">
        <path d="M 0 0 C 0 0 -5.886 -3.208 -4.346 -7.944 C -2.805 -12.678 8.656 -20.397 10.738 -17.285 C 12.819 -14.173 11.994 -8.91 11.522 -7.979 C 11.051 -7.047 4.697 -7.246 0 0" style="fill: rgb(157, 193, 199); fill-opacity: 1;"/>
      </g>
    </g>
    <g style="clip-path: url(#clippath2);">
      <g transform="translate(678.8097 280.7966)">
        <path d="M 0 0 C 0 0 -1.388 -8.656 2.551 -15.004 C 1.072 -10.078 0.232 -5.075 0 0" style="fill: rgb(62, 101, 129); fill-opacity: 1;"/>
      </g>
    </g>
    <g style="clip-path: url(#clippath2);">
      <g transform="translate(659.1703 268.0697)">
        <path d="M 0 0 C -0.287 1.165 -4.376 17.722 -5.654 21.202 C -6.979 24.809 0.413 9.851 3.873 5.803 C 7.341 1.749 20.928 -12.512 32.077 -11.872 C 29.294 -13.64 25.561 -14.089 20.669 -11.934 C 4.429 -4.783 0.054 -0.059 0 0" style="fill: rgb(62, 101, 129); fill-opacity: 1;"/>
      </g>
    </g>
    <g style="clip-path: url(#clippath2);">
      <g transform="translate(609.2642 264.7324)">
        <path d="M 0 0 C 0 0 13.733 -21.164 42.125 -22.436 C 42.125 -22.436 22.663 -19.837 0 0" style="fill: rgb(62, 101, 129); fill-opacity: 1;"/>
      </g>
    </g>
    <g style="clip-path: url(#clippath2);">
      <g transform="translate(604.553 291.4479)">
        <path d="M 0 0 C 0 0 5.463 4.948 8.153 11.394 Z" style="fill: rgb(62, 101, 129); fill-opacity: 1;"/>
      </g>
    </g>
    <g style="clip-path: url(#clippath2);">
      <g transform="translate(608.6271 312.0988)">
        <path d="M 0 0 C 0 0 0.849 -12.348 -4.076 -18.514 C -4.076 -18.514 -0.087 -6.356 0 0" style="fill: rgb(62, 101, 129); fill-opacity: 1;"/>
      </g>
    </g>
    <g style="clip-path: url(#clippath2);">
      <g transform="translate(619.4617 318.997)">
        <path d="M 0 0 C 0 0 -15.857 -2.644 17.22 -26.237 C 17.22 -26.237 29.237 -13.427 20.447 -8.723 C 8.075 -2.101 0 0 0 0" style="fill: rgb(157, 193, 199); fill-opacity: 1;"/>
      </g>
    </g>
    <g style="clip-path: url(#clippath2);">
      <g transform="translate(620.9728 317.8963)">
        <path d="M 0 0 C 0 0 -11.693 -0.397 15.249 -21.683 C 15.249 -21.683 24.189 -12.175 17.092 -7.61 C 7.145 -1.211 0 0 0 0" style="fill: rgb(231, 242, 243); fill-opacity: 1;"/>
      </g>
    </g>
    <g style="clip-path: url(#clippath2);">
      <g transform="translate(619.4173 328.3501)">
        <path d="M 0 0 C 0 0 1.142 -6.348 -0.147 -11.25 C -0.619 -13.046 9.653 -23.524 14.699 -25.063 C 17.725 -25.985 19.282 -22.9 19.392 -18.768 C 19.392 -18.768 13.939 -12.155 15.227 -4.565 C 16.079 0.463 0 0 0 0" style="fill: rgb(254, 203, 165); fill-opacity: 1;"/>
      </g>
    </g>
    <g style="clip-path: url(#clippath2);">
      <g transform="translate(619.8814 323.0015)">
        <path d="M 0 0 C -0.036 2.97 -0.464 5.349 -0.464 5.349 C -0.464 5.349 15.615 5.812 14.762 0.784 C 14.248 -2.248 14.809 -5.124 15.668 -7.483 C 10.085 -6.965 3.54 -2.645 0 0" style="fill: rgb(229, 140, 108); fill-opacity: 1;"/>
      </g>
    </g>
    <g style="clip-path: url(#clippath2);">
      <g transform="translate(645.4024 346.1861)">
        <path d="M 0 0 C 2.862 -0.357 4.867 -3.208 4.475 -6.363 C 4.082 -9.519 1.439 -11.792 -1.423 -11.436 C -4.285 -11.079 -6.29 -8.228 -5.898 -5.073 C -5.505 -1.917 -2.862 0.356 0 0" style="fill: rgb(229, 140, 108); fill-opacity: 1;"/>
      </g>
    </g>
    <g style="clip-path: url(#clippath2);">
      <g transform="translate(644.3555 359.3624)">
        <path d="M 0 0 C 0 0 3.343 -10.722 -0.119 -17.814 C -3.582 -24.906 -9.197 -9.307 -9.197 -9.307 L -13.155 -2.295 Z" style="fill: rgb(224, 151, 65); fill-opacity: 1;"/>
      </g>
    </g>
    <g style="clip-path: url(#clippath2);">
      <g transform="translate(621.3185 365.4552)">
        <path d="M 0 0 C 10.108 2.487 21.07 -6.337 23.296 -18.32 C 25.263 -28.913 21.675 -40.368 15.46 -42.529 C 5.628 -45.949 -7.792 -40.284 -12.016 -28.747 C -16.207 -17.303 -10.108 -2.487 0 0" style="fill: rgb(254, 203, 165); fill-opacity: 1;"/>
      </g>
    </g>
    <g style="clip-path: url(#clippath2);">
      <g transform="translate(609.042 337.4572)">
        <path d="M 0 0 C -3.666 11.333 2.386 25.565 12.274 27.998 C 20.751 30.084 29.828 24.215 33.85 15.201 C 33.171 14.861 33.176 15.73 32.623 15.635 C 27.722 14.786 20.862 18.671 17.414 16.241 C 12.54 12.807 6.076 14.103 6.076 14.103 C 5.826 10.475 0.794 -0.326 0.794 -0.326 C 0.794 -0.326 0.505 -0.224 0 0 Z" style="fill: rgb(229, 140, 108); fill-opacity: 1;"/>
      </g>
    </g>
    <g style="clip-path: url(#clippath2);">
      <g transform="translate(610.3407 333.5402)">
        <path d="M 0 0 C 0 0 3.203 13.346 3.171 20.058 C 3.171 20.058 10.096 18.923 13.582 20.663 C 18.604 23.168 22.503 21.393 24.003 21.151 C 28.425 20.435 34.648 19.628 39.332 28.549 C 43.291 36.089 37.016 41.176 27.728 38.626 C 22.789 37.27 19.359 38.847 15.414 40.25 C 3.574 44.457 0.061 37.551 -1.036 31.369 C -1.036 31.369 -17.627 20.874 0 0" style="fill: rgb(253, 180, 78); fill-opacity: 1;"/>
      </g>
    </g>
    <g style="clip-path: url(#clippath2);">
      <g transform="translate(605.7185 361.4942)">
        <path d="M 0 0 C 3.28 -2.704 9.736 -6.906 16.642 -5.218 C 26.553 -2.795 28.837 -4.498 31.543 -5.244 C 33.036 -5.656 35.063 -6.35 37.519 -6.209 C 34.384 -7.668 31.2 -7.22 28.626 -6.803 C 27.126 -6.561 23.227 -4.786 18.205 -7.291 C 14.718 -9.031 7.794 -7.896 7.794 -7.896 C 7.825 -14.608 4.623 -27.954 4.623 -27.954 C -7.196 -13.958 -3.632 -4.628 0 0 Z" style="fill: rgb(224, 151, 65); fill-opacity: 1;"/>
      </g>
    </g>
    <g style="clip-path: url(#clippath2);">
      <g transform="translate(606.4839 340.0701)">
        <path d="M 0 0 C 2.367 1.648 5.764 0.867 7.581 -1.743 C 9.398 -4.353 8.952 -7.809 6.584 -9.458 C 4.217 -11.106 0.82 -10.325 -0.997 -7.715 C -2.814 -5.105 -2.367 -1.648 0 0" style="fill: rgb(254, 203, 165); fill-opacity: 1;"/>
      </g>
    </g>
    <g style="clip-path: url(#clippath2);">
      <g transform="translate(623.7926 345.9555)">
        <path d="M 0 0 C -0.592 -0.087 -0.963 -0.897 -0.829 -1.809 C -0.695 -2.72 -0.107 -3.39 0.485 -3.303 C 1.076 -3.216 1.448 -2.406 1.315 -1.494 C 1.181 -0.582 0.592 0.087 0 0" style="fill: rgb(128, 36, 25); fill-opacity: 1;"/>
      </g>
    </g>
    <g style="clip-path: url(#clippath2);">
      <g transform="translate(638.0048 347.0241)">
        <path d="M 0 0 C -0.597 -0.036 -1.036 -0.813 -0.979 -1.732 C -0.923 -2.652 -0.393 -3.368 0.204 -3.332 C 0.801 -3.295 1.24 -2.519 1.183 -1.599 C 1.127 -0.68 0.597 0.036 0 0" style="fill: rgb(128, 36, 25); fill-opacity: 1;"/>
      </g>
    </g>
    <g style="clip-path: url(#clippath2);">
      <g transform="translate(627.4567 348.7362)">
        <path d="M 0 0 C 0 0 -3.783 6.492 -8.19 -0.295 C -8.19 -0.295 -3.904 2.067 0 0" style="fill: rgb(128, 36, 25); fill-opacity: 1;"/>
      </g>
    </g>
    <g style="clip-path: url(#clippath2);">
      <g transform="translate(642.2369 349.8794)">
        <path d="M 0 0 C 0 0 -3.525 5.9 -7.36 -0.319 C -7.36 -0.319 -3.209 1.963 0 0" style="fill: rgb(128, 36, 25); fill-opacity: 1;"/>
      </g>
    </g>
    <g style="clip-path: url(#clippath2);">
      <g transform="translate(633.9357 346.516)">
        <path d="M 0 0 C 0 0 -0.683 -4.894 0.052 -5.642 C 1.261 -6.875 0.976 -7.282 0.014 -7.744 C 0.014 -7.744 4.823 -6.829 2.464 -5.108 C 0.342 -3.56 0 0 0 0 Z" style="fill: rgb(128, 36, 25); fill-opacity: 1;"/>
      </g>
    </g>
    <g style="clip-path: url(#clippath2);">
      <g transform="translate(635.4567 336.2074)">
        <path d="M 0 0 C -1.344 0.275 -6.612 1.485 -8.418 1.697 C -10.249 1.912 -10.416 -5.335 -5.793 -6.514 C -1.472 -7.615 1.77 -0.361 0 0" style="fill: rgb(128, 36, 25); fill-opacity: 1;"/>
      </g>
    </g>
    <g style="clip-path: url(#clippath2);">
      <g transform="translate(635.911 335.713)">
        <path d="M 0 0 C -0.065 0.268 -0.213 0.445 -0.455 0.494 C -1.799 0.769 -7.067 1.979 -8.873 2.191 C -9.221 2.232 -9.51 2.003 -9.716 1.597 C -9.164 0.562 -7.731 -0.096 -4.462 -0.801 C -1.93 -1.348 -0.645 -0.701 0 0" style="fill: rgb(255, 255, 255); fill-opacity: 1;"/>
      </g>
    </g>
    <g style="clip-path: url(#clippath2);">
      <g transform="translate(426.588 133.2517)">
        <path d="M 0 0 C 0 0 17.09 -54.888 27.248 -47.472 C 37.405 -40.056 52.527 9.256 52.527 9.256 L 42.547 11.931 L 28.112 -15.564 L 24.081 7.992 L 0 0 Z" style="fill: rgb(236, 154, 111); fill-opacity: 1;"/>
      </g>
    </g>
    <g style="clip-path: url(#clippath2);">
      <g transform="translate(455.8373 119.8547)">
        <path d="M 0 0 L 13.297 25.328 L 23.277 22.653 C 23.277 22.653 13.339 -9.757 4.164 -25.979 C 5.251 -14.861 1.46 -3.769 0 0" style="fill: rgb(208, 102, 68); fill-opacity: 1;"/>
      </g>
    </g>
    <g style="clip-path: url(#clippath2);">
      <g transform="translate(449.6132 140.8927)">
        <path d="M 0 0 C 0.419 -0.443 0.89 -0.972 1.384 -1.571 L 4.315 -18.698 C -1.031 -20.179 -13.607 -16.761 -20.733 -14.555 C -22.171 -10.383 -23.025 -7.641 -23.025 -7.641 L 0 0 Z" style="fill: rgb(208, 102, 68); fill-opacity: 1;"/>
      </g>
    </g>
    <g style="clip-path: url(#clippath2);">
      <g transform="translate(460.3736 129.1293)">
        <path d="M 0 0 C 0 0 27.06 -41.491 36.853 -32.273 C 46.645 -23.056 49.16 26.068 49.16 26.068 L 40.819 30.833 L 33.034 -0.044 L 20.441 16.638 Z" style="fill: rgb(236, 154, 111); fill-opacity: 1;"/>
      </g>
    </g>
    <g style="clip-path: url(#clippath2);">
      <g transform="translate(487.6546 136.7085)">
        <path d="M 0 0 C -5.83 -5.056 -17.846 -10.434 -23.647 -12.869 C -25.898 -9.697 -27.28 -7.579 -27.28 -7.579 L -6.838 9.059 Z" style="fill: rgb(208, 102, 68); fill-opacity: 1;"/>
      </g>
    </g>
    <g style="clip-path: url(#clippath2);">
      <g transform="translate(499.3879 162.6344)">
        <path d="M 0 0 C 1.484 5.028 3.346 6.695 7.254 5.156 C 15.188 2.033 37.337 -14.94 33.173 -17.579 C 28.47 -20.56 20.661 -18.463 13.697 -15.237 C 4.488 -10.971 -1.609 -5.452 0 0" style="fill: rgb(236, 154, 111); fill-opacity: 1;"/>
      </g>
    </g>
    <g style="clip-path: url(#clippath2);">
      <g transform="translate(499.9804 164.4067)">
        <path d="M 0 0 C -0.209 -0.535 -0.406 -1.126 -0.597 -1.772 C -2.206 -7.224 3.891 -12.744 13.1 -17.009 C 17.484 -19.04 22.202 -20.624 26.271 -20.768 C 24.466 -13.053 6.916 -3.477 0 0 Z" style="fill: rgb(236, 154, 111); fill-opacity: 1;"/>
      </g>
    </g>
    <g style="clip-path: url(#clippath2);">
      <g transform="translate(526.252 143.6384)">
        <path d="M 0 0 C 2.394 -0.095 4.562 0.312 6.305 1.417 C 10.469 4.056 -11.68 21.029 -19.614 24.152 C -23.019 25.493 -24.872 24.4 -26.271 20.768 C -19.357 17.29 -1.794 7.717 0 0" style="fill: rgb(98, 148, 130); fill-opacity: 1;"/>
      </g>
    </g>
    <g style="clip-path: url(#clippath2);">
      <g transform="translate(422.8137 177.221)">
        <path d="M 0 0 C 0 0 -7.452 -37.414 -1.171 -45.354 C 1.983 -49.341 26.326 -56.345 32.606 -51.253 L 32.956 -46.667 L 38.241 -51.529 C 38.241 -51.529 66.127 -42.941 66.367 -31.14 C 66.548 -22.273 49.145 -14.043 45.94 -7.049 C 42.734 -0.054 0 0 0 0 Z" style="fill: rgb(253, 180, 78); fill-opacity: 1;"/>
      </g>
    </g>
    <g style="clip-path: url(#clippath2);">
      <g transform="translate(421.6359 170.5726)">
        <path d="M 0 0 C 0.653 4.017 1.178 6.648 1.178 6.648 C 1.178 6.648 43.912 6.595 47.117 -0.4 C 47.934 -2.182 49.671 -4.043 51.804 -5.974 C 37.933 -15.751 12.362 -5.824 0 0 Z" style="fill: rgb(216, 142, 74); fill-opacity: 1;"/>
      </g>
    </g>
    <g style="clip-path: url(#clippath2);">
      <g transform="translate(442.7381 146.1525)">
        <path d="M 0 0 C 0.762 -3.445 1.965 -6.684 3.8 -9.34 C 3.961 -9.573 3.903 -9.894 3.67 -10.056 C 3.436 -10.217 3.116 -10.158 2.954 -9.925 C -0.534 -4.88 -1.839 2.205 -2.128 8.896 C -2.559 18.85 -0.761 27.915 -0.761 27.915 C -0.706 28.193 -0.435 28.374 -0.156 28.319 C 0.122 28.264 0.303 27.993 0.248 27.715 C 0.248 27.715 -1.525 18.767 -1.1 8.941 C -0.987 6.31 -0.716 3.615 -0.21 1.013 C 1.104 1.151 2.525 1.994 3.473 5.094 C 4.391 8.098 6.13 26.588 6.13 26.588 C 6.157 26.871 6.408 27.078 6.691 27.052 C 6.973 27.025 7.181 26.774 7.155 26.491 C 7.155 26.491 5.384 7.826 4.457 4.794 C 3.839 2.773 3.018 1.591 2.159 0.901 C 1.452 0.334 0.711 0.085 0 0" style="fill: rgb(185, 102, 52); fill-opacity: 1;"/>
      </g>
    </g>
    <g style="clip-path: url(#clippath2);">
      <g transform="translate(454.9282 125.6167)">
        <path d="M 0 0 C -0.903 2.739 -1.801 3.929 -5.334 6.776 C -8.223 9.105 -19.656 14.391 -14.419 13.195 C -8.71 11.891 -4.503 11.284 -3.947 10.963 C -3.391 10.643 0.895 4.909 0.895 4.909 L 0.9 4.883 L 0.841 4.938 L 0.491 0.351 C 0.338 0.227 0.174 0.11 0 0" style="fill: rgb(216, 142, 74); fill-opacity: 1;"/>
      </g>
    </g>
    <g style="clip-path: url(#clippath2);">
      <g transform="translate(463.8255 238.3503)">
        <path d="M 0 0 C 0 0 -16.629 43.575 2.078 83.534 C 2.078 83.534 8.369 91.849 3.365 96.783 C -0.363 100.459 -11.427 104.952 -16.821 96.225 C -24.012 84.591 -35.96 49.15 -32.996 -1.404 C -32.996 -1.404 -57.194 -54.267 -41.473 -64.445 C -31.946 -70.612 -0.904 -77.249 3.649 -71.273 C 3.649 -71.273 13.761 -77.467 24.435 -60.75 C 35.81 -42.936 37.609 -42.886 39.619 -38.89 C 41.629 -34.895 35.081 -24.968 29.597 -24.081 C 25.042 -23.343 18.11 -33.101 18.11 -33.101 C 18.11 -33.101 24.923 -17.5 18.609 -10.749 C 8.509 0.048 0 0 0 0" style="fill: rgb(158, 203, 180); fill-opacity: 1;"/>
      </g>
    </g>
    <g style="clip-path: url(#clippath2);">
      <g transform="translate(448.5702 253.3937)">
        <path d="M 0 0 C 0 0 -12.382 -7.439 -15.87 -14.228 C -15.87 -14.228 -13.726 -5.171 0 0" style="fill: rgb(98, 148, 130); fill-opacity: 1;"/>
      </g>
    </g>
    <g style="clip-path: url(#clippath2);">
      <g transform="translate(496.978 213.8555)">
        <path d="M 0 0 C 0 0 -5.322 -0.618 -5.141 -3.011 C -4.8 -7.518 2.505 -14.78 4.057 -13.844 C 6.965 -12.09 7.985 -8.385 7.985 -8.385 Z" style="fill: rgb(199, 220, 211); fill-opacity: 1;"/>
      </g>
    </g>
    <g style="clip-path: url(#clippath2);">
      <g transform="translate(455.7983 341.8651)">
        <path d="M 0 0 C 0 0 -4.168 -3.366 -2.737 -5.292 C -0.04 -8.919 10.094 -11.192 10.826 -9.534 C 11.559 -7.877 11.604 -4.41 11.604 -4.41 Z" style="fill: rgb(199, 220, 211); fill-opacity: 1;"/>
      </g>
    </g>
    <g style="clip-path: url(#clippath2);">
      <g transform="translate(467.227 166.7909)">
        <path d="M 0 0 C -0.105 0.014 -0.186 0.029 -0.198 0.033 C -20.674 7.202 -1.253 43.4 -1.253 43.4 C -1.253 43.4 -6.148 32.057 -7.717 17.464 C -8.768 7.68 -1.836 1.911 0.244 0.282 C 0.17 0.185 0.088 0.091 0 0 Z" style="fill: rgb(98, 148, 130); fill-opacity: 1;"/>
      </g>
    </g>
    <g style="clip-path: url(#clippath2);">
      <g transform="translate(482.497 206.66)">
        <path d="M 0 0 C -0.28 -0.753 -0.488 -1.25 -0.555 -1.406 C -2.396 -3.49 -8.523 -10.501 -9.297 -12.336 C -10.209 -14.498 -12.31 -12.14 -11.115 -18.979 C -11.115 -18.979 -15.507 -13.929 -11.145 -11.826 C -11.145 -11.826 -4.384 -3.653 0 0" style="fill: rgb(98, 148, 130); fill-opacity: 1;"/>
      </g>
    </g>
    <g style="clip-path: url(#clippath2);">
      <g transform="translate(457.3687 338.1585)">
        <path d="M 0 0 C 1.876 -1.766 5.501 -3.576 8.035 -2.403 C 11.302 -0.889 17.533 7.348 19.607 9.08 C 20.249 9.616 21.962 11.199 21.753 12.166 C 21.283 14.339 13.925 9.657 13.895 9.699 C 13.697 9.968 14.876 20.524 13.062 21.558 C 10.977 22.748 9.816 14.237 9.493 14.312 C 9.138 14.393 8.411 22.73 5.559 22.693 C 3.608 22.669 4.341 14.075 4.113 13.988 C 4.027 13.955 -0.141 20.738 -1.886 19.628 C -3.723 18.459 -0.246 13.209 -0.267 11.394 C -0.269 11.229 -5.409 15.26 -6.235 13.742 C -6.73 12.832 -3.626 8.934 -3.219 8.194 C -1.586 5.219 -1.875 1.766 0 0" style="fill: rgb(236, 154, 111); fill-opacity: 1;"/>
      </g>
    </g>
    <g style="clip-path: url(#clippath2);">
      <g transform="translate(497.2348 212.2486)">
        <path d="M 0 0 C -0.27 1.097 -0.252 2.998 0.707 7.071 C 1.37 9.887 2.62 10.996 3.767 11.772 C 6.29 13.48 7.77 10.466 8.162 10.556 C 8.532 10.641 12.998 15.007 16.347 11.054 C 17.639 9.529 16.455 8.382 16.455 8.382 C 16.455 8.382 18.531 8.567 19.602 6.662 C 20.646 4.806 18.974 2.94 18.974 2.94 C 18.974 2.94 20.515 2.416 19.98 0.433 C 19.58 -1.049 18.256 -1.559 18.256 -1.559 C 18.256 -1.559 19.682 -1.669 19.169 -3.726 C 18.651 -5.799 18.016 -6.109 15.32 -6.82 C 12.843 -7.474 7.827 -7.991 5.684 -7.067 C 1.941 -5.455 0.74 -3.016 0 0 Z" style="fill: rgb(236, 154, 111); fill-opacity: 1;"/>
      </g>
    </g>
    <g style="clip-path: url(#clippath2);">
      <g transform="translate(508.1138 218.5473)">
        <path d="M 0 0 C -0.596 1.568 -1.55 3.011 -2.476 4.407 C -2.596 4.321 -2.678 4.266 -2.716 4.257 C -2.752 4.249 -2.797 4.267 -2.851 4.305 C -2.571 3.854 -2.235 3.314 -2.093 3.062 C -1.836 2.605 -1.585 2.146 -1.358 1.673 C -1.167 1.274 -0.97 0.877 -0.803 0.467 C -0.284 -0.804 0.323 -2.274 -0.514 -3.538 C -0.832 -4.019 -1.234 -4.282 -1.848 -4.224 C -2.285 -4.183 -2.754 -3.957 -3.106 -3.723 C -4.042 -3.102 -4.885 -2.377 -5.71 -1.616 C -5.994 -1.352 -6.28 -1.086 -6.531 -0.79 C -6.624 -0.679 -5.954 -1.717 -5.557 -2.15 C -5.085 -2.661 -4.412 -3.396 -3.659 -3.967 C -3.643 -4.079 -3.634 -4.172 -3.63 -4.205 C -3.52 -5.098 -3.685 -6.038 -4.041 -6.862 C -4.155 -7.123 -4.47 -7.792 -4.365 -7.66 C -3.857 -7.016 -3.145 -5.867 -3.003 -5.058 C -2.97 -4.874 -2.93 -4.651 -2.935 -4.44 C -2.204 -4.836 -1.437 -4.989 -0.73 -4.592 C -0.641 -4.726 -0.506 -4.847 -0.416 -4.92 C -0.324 -4.995 -0.222 -5.059 -0.113 -5.115 C -0.147 -5.21 -0.163 -5.342 -0.208 -5.466 C -0.259 -5.61 -0.298 -5.757 -0.327 -5.908 C -0.495 -6.761 0.053 -7.572 0.766 -8.042 C 0.523 -8.34 0.33 -8.743 0.17 -9.08 C -0.019 -9.48 -0.186 -9.915 -0.224 -10.36 C -0.289 -11.11 0.387 -11.672 1.012 -11.94 C 2.305 -12.493 3.698 -12.49 5.052 -12.2 C 5.066 -12.2 5.08 -12.2 5.094 -12.2 L 5.078 -12.194 C 5.069 -12.196 5.06 -12.198 5.052 -12.2 C 4.757 -12.199 4.462 -12.205 4.168 -12.198 C 3.081 -12.172 1.467 -12.024 0.72 -11.089 C 0.189 -10.424 0.516 -9.307 0.902 -8.654 C 0.984 -8.517 1.109 -8.403 1.212 -8.282 C 1.335 -8.334 1.459 -8.375 1.583 -8.405 C 3.641 -8.9 5.965 -8.77 7.995 -8.14 C 7.768 -7.936 7.512 -7.878 7.417 -7.863 C 7.08 -7.949 6.717 -8 6.464 -8.032 C 4.777 -8.246 2.65 -8.559 1.146 -7.59 C 0.758 -7.34 0.302 -6.951 0.173 -6.486 C 0.085 -6.167 0.15 -5.821 0.216 -5.504 C 0.223 -5.472 0.264 -5.374 0.297 -5.28 C 0.793 -5.433 1.359 -5.475 1.812 -5.483 C 3.218 -5.51 4.651 -5.018 5.971 -4.612 C 6.832 -4.347 7.704 -4.059 8.468 -3.562 C 8.263 -3.415 8.096 -3.359 8.096 -3.359 C 8.096 -3.359 8.113 -3.34 8.142 -3.304 C 8.102 -3.325 8.062 -3.345 8.022 -3.365 C 7.395 -3.672 6.735 -3.873 6.069 -4.079 C 4.679 -4.51 3.296 -4.847 1.84 -4.953 C 1.269 -4.995 0.489 -5.058 -0.023 -4.734 C -0.17 -4.642 -0.295 -4.506 -0.391 -4.355 C -0.362 -4.331 -0.333 -4.305 -0.304 -4.277 C 0.685 -3.355 0.637 -2.159 0.309 -0.948 C 0.286 -0.863 0.262 -0.778 0.236 -0.694 C 0.571 -0.442 0.931 -0.248 1.22 -0.084 C 2.259 0.505 3.345 1.114 4.438 1.593 C 4.839 1.769 5.234 1.958 5.631 2.142 C 5.721 2.247 5.901 2.487 6.001 2.825 C 5.129 2.559 4.285 2.156 3.468 1.76 C 2.879 1.475 2.308 1.158 1.733 0.846 C 1.28 0.599 0.81 0.373 0.337 0.165 C 0.238 0.121 0.114 0.063 0 0 Z" style="fill: rgb(208, 102, 68); fill-opacity: 1;"/>
      </g>
    </g>
    <g style="clip-path: url(#clippath2);">
      <g transform="translate(458.7514 254.4456)">
        <path d="M 0 0 C 2.355 -9.782 5.074 -16.095 5.074 -16.095 C 5.074 -16.095 9.777 -16.069 16.339 -20.491 C 14.507 -21.915 12.228 -23.729 9.515 -25.964 C 7.533 -27.597 1.544 -33.592 -7.898 -29.603 C -16.91 -25.797 -15.752 -14.713 -4.203 -2.658 C -2.856 -1.252 -1.443 -0.405 0 0 Z" style="fill: rgb(208, 102, 68); fill-opacity: 1;"/>
      </g>
    </g>
    <g style="clip-path: url(#clippath2);">
      <g transform="translate(461.0541 246.1157)">
        <path d="M 0 0 C 1.531 -4.885 2.771 -7.765 2.771 -7.765 C 2.771 -7.765 7.474 -7.739 14.037 -12.161 C 12.204 -13.585 9.925 -15.399 7.212 -17.634 C 5.522 -19.027 0.918 -23.591 -6.256 -22.432 C -17.323 -11.48 -6.966 -3.436 0 0" style="fill: rgb(236, 154, 111); fill-opacity: 1;"/>
      </g>
    </g>
    <g style="clip-path: url(#clippath2);">
      <g transform="translate(470.4773 242.4945)">
        <path d="M 0 0 C 0 0 -4.918 -2.76 -3.487 -6.366 C -1.796 -10.629 -20.768 -11.745 -18.915 -5.65 C -18.226 -3.383 -15.68 -1.693 -13.143 5.167 C -10.82 11.446 0 0 0 0" style="fill: rgb(236, 154, 111); fill-opacity: 1;"/>
      </g>
    </g>
    <g style="clip-path: url(#clippath2);">
      <g transform="translate(454.7248 242.0742)">
        <path d="M 0 0 C 0.816 1.386 1.714 3.164 2.61 5.587 C 4.933 11.866 15.753 0.42 15.753 0.42 C 15.753 0.42 12.493 -1.409 12.053 -4.035 C 6.732 -4.006 2.178 -1.461 0 0 Z" style="fill: rgb(208, 102, 68); fill-opacity: 1;"/>
      </g>
    </g>
    <g style="clip-path: url(#clippath2);">
      <g transform="translate(452.4971 262.5996)">
        <path d="M 0 0 C 0 0 -1.197 -2.993 -4.839 -5.366 C -7.367 -7.015 -9.626 -9.006 -10.459 -10.851 C -11.293 -12.696 -5.188 -10.593 -2.445 -13.16 C 0.298 -15.727 4.455 -16.515 6.9 -15.373 C 9.346 -14.232 9.534 -8.169 9.534 -8.169 Z" style="fill: rgb(25, 25, 25); fill-opacity: 1;"/>
      </g>
    </g>
    <g style="clip-path: url(#clippath2);">
      <g transform="translate(457.9065 268.7858)">
        <path d="M 0 0 C 2.596 -1.734 3.248 -5.319 1.457 -8.002 C -0.335 -10.685 -3.898 -11.454 -6.493 -9.72 C -9.089 -7.986 -9.742 -4.401 -7.95 -1.718 C -6.159 0.964 -2.596 1.734 0 0" style="fill: rgb(208, 102, 68); fill-opacity: 1;"/>
      </g>
    </g>
    <g style="clip-path: url(#clippath2);">
      <g transform="translate(488.2965 283.1265)">
        <path d="M 0 0 C 10.009 -6.166 10.925 -21.546 3.705 -33.265 C -3.515 -44.984 -21.67 -46.9 -30.447 -40.068 C -37.288 -34.744 -39.88 -24.818 -32.66 -13.098 C -25.44 -1.379 -10.009 6.167 0 0" style="fill: rgb(236, 154, 111); fill-opacity: 1;"/>
      </g>
    </g>
    <g style="clip-path: url(#clippath2);">
      <g transform="translate(456.7494 271.7107)">
        <path d="M 0 0 C 7.597 10.739 22.025 17.282 31.547 11.416 C 41.556 5.249 42.473 -10.13 35.252 -21.849 C 31.396 -28.109 24.418 -31.572 17.416 -32.398 C 19.19 -29.208 25.989 -16.806 26.008 -14.047 C 26.008 -14.047 16.481 -0.209 18.165 6.44 C 18.165 6.44 6.975 5.171 0 0" style="fill: rgb(208, 102, 68); fill-opacity: 1;"/>
      </g>
    </g>
    <g style="clip-path: url(#clippath2);">
      <g transform="translate(475.8546 280.604)">
        <path d="M 0 0 C 0 0 1.764 -13.601 8.824 -21.444 C 8.824 -21.444 2.122 -38.685 -7.705 -43.889 C -7.705 -43.889 1.371 -46.008 4.512 -45.041 C 9.066 -43.64 9.32 -47.177 12.39 -47.281 C 16.14 -47.408 41.517 -12.128 15.052 3.53 C -11.977 19.523 -17.914 4.42 -20.304 -2.39 C -22.33 -8.168 -20.586 -11.421 -20.586 -11.421 C -20.586 -11.421 -12.585 0.707 0 0" style="fill: rgb(45, 44, 42); fill-opacity: 1;"/>
      </g>
    </g>
    <g style="clip-path: url(#clippath2);">
      <g transform="translate(455.0087 276.3843)">
        <path d="M 0 0 C 1.39 -0.936 2.813 -1.806 4.259 -2.616 C 1.679 -5.051 0.261 -7.201 0.261 -7.201 C 0.261 -7.201 -1.118 -4.631 0 0 M 47.792 -13.332 C 47.359 -28.125 35.685 -43.144 33.236 -43.061 C 30.166 -42.957 29.912 -39.42 25.358 -40.822 C 22.217 -41.788 13.141 -39.67 13.141 -39.67 C 22.968 -34.466 29.67 -17.224 29.67 -17.224 C 27.889 -15.245 26.445 -12.9 25.282 -10.5 C 34.474 -12.641 42.793 -13.209 47.792 -13.332" style="fill: rgb(25, 25, 25); fill-opacity: 1;"/>
      </g>
    </g>
    <g style="clip-path: url(#clippath2);">
      <g transform="translate(471.9553 265.6203)">
        <path d="M 0 0 C 0 0 8.116 4.396 5.505 -4.917 C 5.505 -4.917 6.424 1.079 0 0" style="fill: rgb(86, 24, 29); fill-opacity: 1;"/>
      </g>
    </g>
    <g style="clip-path: url(#clippath2);">
      <g transform="translate(457.9386 270.3853)">
        <path d="M 0 0 C 0 0 7.144 7.537 7.034 -2.27 C 7.034 -2.27 5.295 3.686 0 0" style="fill: rgb(86, 24, 29); fill-opacity: 1;"/>
      </g>
    </g>
    <g style="clip-path: url(#clippath2);">
      <g transform="translate(464.1326 263.4184)">
        <path d="M 0 0 C 0.029 -0.646 -0.728 -2.675 -1.847 -3.213 C -2.863 -3.701 -2.973 -5.086 -2.728 -5.874 C -2.728 -5.874 -4.701 -3.151 -3.093 -2.652 C -1.069 -2.023 -0.017 0.383 0 0" style="fill: rgb(86, 24, 29); fill-opacity: 1;"/>
      </g>
    </g>
    <g style="clip-path: url(#clippath2);">
      <g transform="translate(460.8052 255.0796)">
        <path d="M 0 0 C 1.372 -0.205 6.798 -0.88 8.588 -1.304 C 10.402 -1.734 8.049 -8.688 3.247 -8.206 C -1.241 -7.755 -1.807 0.27 0 0" style="fill: rgb(86, 24, 29); fill-opacity: 1;"/>
      </g>
    </g>
    <g style="clip-path: url(#clippath2);">
      <g transform="translate(460.2018 254.7665)">
        <path d="M 0 0 C 0.154 0.232 0.357 0.35 0.603 0.313 C 1.976 0.108 7.401 -0.567 9.192 -0.991 C 9.537 -1.073 9.731 -1.391 9.787 -1.849 C 8.904 -2.642 7.313 -2.771 3.962 -2.309 C 1.367 -1.951 0.37 -0.89 0 0" style="fill: rgb(255, 255, 255); fill-opacity: 1;"/>
      </g>
    </g>
    <g style="clip-path: url(#clippath2);">
      <g transform="translate(462.3954 265.086)">
        <path d="M 0 0 C 0 0 -1.944 5.473 -5.351 0.533 C -3.743 1.501 -1.992 1.531 0 0" style="fill: rgb(86, 24, 29); fill-opacity: 1;"/>
      </g>
    </g>
    <g style="clip-path: url(#clippath2);">
      <g transform="translate(474.2492 257.211)">
        <path d="M 0 0 C 0 0 1.429 6.475 -5.258 3.951 C -2.965 3.84 -1.114 2.742 0 0" style="fill: rgb(86, 24, 29); fill-opacity: 1;"/>
      </g>
    </g>
    <g style="clip-path: url(#clippath2);">
      <g transform="translate(292.9266 415.8536)">
        <path d="M 0 0 C -5.571 -3.954 -13.729 -16.223 -11.255 -43.576 C -8.491 -74.148 -13.527 -68.91 -19.326 -75.874 C -25.124 -82.838 -28.201 -90.144 -18.309 -97.917 C -8.418 -105.69 -8.534 -108.622 -8.86 -112.917 C -9.186 -117.212 -5.358 -123.903 7.546 -120.182 C 24.247 -115.368 30.912 -126.834 37.671 -123.294 C 44.43 -119.752 78.887 -101.586 80.288 -90.562 C 81.689 -79.539 76.679 -69.313 68.356 -69.261 C 60.033 -69.209 60.556 -59.494 62.291 -54.149 C 64.026 -48.804 51.558 -41.854 47.902 -38.128 C 44.247 -34.402 41.907 -25.359 42.896 -21.973 C 43.886 -18.587 36.478 -8.233 33.342 -6.896 C 30.206 -5.559 6.1 4.329 0 0" style="fill: rgb(43, 44, 44); fill-opacity: 1;"/>
      </g>
    </g>
    <g style="clip-path: url(#clippath2);">
      <g transform="translate(282.0802 393.8132)">
        <path d="M 0 0 C 11.149 -9.905 35.907 -27.406 69.575 -24.943 C 72.118 -27.377 73.86 -29.882 73.138 -32.109 C 71.403 -37.453 70.879 -47.169 79.202 -47.221 C 87.526 -47.273 92.536 -57.498 91.135 -68.522 C 89.733 -79.546 55.277 -97.712 48.518 -101.253 C 41.759 -104.794 35.093 -93.327 18.392 -98.142 C 5.489 -101.863 1.66 -95.171 1.986 -90.876 C 2.312 -86.582 2.429 -83.649 -7.463 -75.876 C -17.354 -68.104 -14.278 -60.798 -8.479 -53.834 C -2.681 -46.87 2.355 -52.108 -0.409 -21.536 C -1.187 -12.936 -0.913 -5.827 0 0" style="fill: rgb(25, 25, 25); fill-opacity: 1;"/>
      </g>
    </g>
    <g style="clip-path: url(#clippath2);">
      <g transform="translate(315.3473 292.0376)">
        <path d="M 0 0 C 0 0 52.579 7.967 60.8 17.336 C 60.8 17.336 60.482 25.234 51.633 27.301 C 42.784 29.368 10.667 23.105 6.07 14.174 C 1.474 5.243 0 0 0 0" style="fill: rgb(160, 115, 52); fill-opacity: 1;"/>
      </g>
    </g>
    <g style="clip-path: url(#clippath2);">
      <g transform="translate(311.1394 316.9234)">
        <path d="M 0 0 C -0.743 -1.271 2.56 -7.246 3 -8.376 C 5.352 -14.417 13.161 -22.889 8.542 -27.733 C 3.634 -32.878 -0.012 -34.094 -6.562 -42.783 C -13.287 -51.702 -27.408 -74.178 -30.768 -74.925 C -32.257 -75.256 -26.645 -44.754 -26.904 -42.818 C -27.039 -41.803 -38.865 -39.731 -39.192 -40.124 C -41.63 -43.048 -59.131 -106.352 -45.758 -111.682 C -28.978 -118.37 31.484 -57.835 34.794 -58.754 C 41.004 -60.479 64.191 -91.648 58.465 -92.905 C 55.857 -93.479 12.351 -101.378 11.817 -102.529 C 11.073 -104.133 13.237 -112.771 14.15 -114.472 C 14.689 -115.477 74.57 -120.77 88.048 -108.504 C 93.647 -103.408 89.528 -77.536 78.003 -54.476 C 70.013 -38.487 59.405 -24.688 55.478 -7.02 C 54.562 -2.895 51.56 9.494 50.085 9.999 C 44.069 12.06 39.271 8.129 36.441 7.4 C 25.162 4.493 0 0 0 0" style="fill: rgb(236, 154, 111); fill-opacity: 1;"/>
      </g>
    </g>
    <g style="clip-path: url(#clippath2);">
      <g transform="translate(320.6855 290.6855)">
        <path d="M 0 0 C 10.511 2.825 34.313 8.28 50.718 4.881 C 55.706 -6.513 62.75 -16.817 68.457 -28.238 C 79.982 -51.298 84.101 -77.17 78.502 -82.266 C 69.704 -90.273 41.13 -90.798 22.198 -89.917 C 15.915 -85.692 14.246 -78.394 16.917 -72.824 C 29.986 -70.19 47.303 -67.023 48.92 -66.667 C 54.645 -65.41 31.458 -34.241 25.248 -32.516 C 21.938 -31.597 -38.524 -92.132 -55.304 -85.444 C -63.472 -82.189 -60.122 -57.305 -55.721 -37.758 C -49.814 -31.676 -43.269 -30.526 -38.944 -34.153 C -40.085 -41.735 -41.037 -48.847 -40.314 -48.687 C -36.954 -47.94 -22.833 -25.464 -16.108 -16.545 C -9.558 -7.856 -5.911 -6.64 -1.004 -1.495 C -0.559 -1.029 -0.23 -0.528 0 0 Z" style="fill: rgb(4, 86, 111); fill-opacity: 1;"/>
      </g>
    </g>
    <g style="clip-path: url(#clippath2);">
      <g transform="translate(344.642 257.6362)">
        <path d="M 0 0 C 1.979 1.915 5.977 3.831 7.414 4.647 C 8.055 5.01 9.713 6.314 10.525 6.314 C 10.577 6.314 10.918 4.722 10.939 4.657 C 11.376 3.332 11.921 2.032 12.485 0.758 C 13.906 -2.455 15.713 -5.46 17.455 -8.505 C 19.754 -12.523 22.249 -16.357 25.212 -19.919 C 27.509 -22.68 31.029 -26.039 32.455 -29.424 C 33.678 -32.33 30.395 -34.097 28.071 -34.758 C 24.825 -35.68 19.769 -36.18 15.56 -35.407 C 20.574 -34.462 24.259 -33.773 24.963 -33.618 C 30.688 -32.36 7.501 -1.192 1.291 0.533 C 1.082 0.591 0.643 0.403 0 0" style="fill: rgb(12, 68, 102); fill-opacity: 1;"/>
      </g>
    </g>
    <g style="clip-path: url(#clippath2);">
      <g transform="translate(374.9249 288.244)">
        <path d="M 0 0 C 4.476 -8.619 9.755 -16.866 14.218 -25.797 C 25.743 -48.856 29.862 -74.729 24.262 -79.824 C 22.237 -81.668 19.163 -83.115 15.4 -84.239 C 15.692 -83.834 15.975 -83.423 16.247 -83.002 C 20.657 -76.196 22.625 -68.603 21.258 -60.587 C 19.39 -49.632 15.94 -38.352 11.319 -28.254 C 8.426 -21.936 4.383 -16.195 2.066 -9.607 C 1.001 -6.582 0.337 -3.286 0 0" style="fill: rgb(31, 123, 136); fill-opacity: 1;"/>
      </g>
    </g>
    <g style="clip-path: url(#clippath2);">
      <g transform="translate(326.6648 213.8294)">
        <path d="M 0 0 C -3.488 3.914 -5.884 4.626 -8.762 1.567 C -14.603 -4.645 -27.388 -29.448 -22.496 -30.057 C -16.97 -30.746 -10.804 -25.516 -5.883 -19.626 C 0.624 -11.838 3.782 -4.243 0 0 Z" style="fill: rgb(236, 154, 111); fill-opacity: 1;"/>
      </g>
    </g>
    <g style="clip-path: url(#clippath2);">
      <g transform="translate(325.368 215.1775)">
        <path d="M 0 0 C 0.417 -0.395 0.848 -0.845 1.297 -1.348 C 5.078 -5.592 1.92 -13.186 -4.586 -20.974 C -7.684 -24.682 -11.275 -28.128 -14.893 -29.995 C -16.553 -22.248 -4.769 -6.097 0 0" style="fill: rgb(236, 154, 111); fill-opacity: 1;"/>
      </g>
    </g>
    <g style="clip-path: url(#clippath2);">
      <g transform="translate(310.4752 185.182)">
        <path d="M 0 0 C -2.124 -1.108 -4.259 -1.665 -6.306 -1.41 C -11.198 -0.801 1.587 24.003 7.428 30.214 C 9.935 32.88 12.077 32.682 14.893 29.995 C 10.125 23.899 -1.672 7.745 0 0" style="fill: rgb(43, 44, 44); fill-opacity: 1;"/>
      </g>
    </g>
    <g style="clip-path: url(#clippath2);">
      <g transform="translate(285.0708 273.4154)">
        <path d="M 0 0 C 3.975 3.418 4.73 5.801 1.722 8.732 C -4.385 14.682 -28.958 27.904 -29.654 23.024 C -30.44 17.512 -25.32 11.254 -19.518 6.23 C -11.846 -0.414 -4.31 -3.707 0 0" style="fill: rgb(236, 154, 111); fill-opacity: 1;"/>
      </g>
    </g>
    <g style="clip-path: url(#clippath2);">
      <g transform="translate(256.8867 289.7586)">
        <path d="M 0 0 C -1.183 2.262 -1.777 4.528 -1.47 6.681 C -0.774 11.561 23.799 -1.661 29.906 -7.611 C 32.242 -9.888 32.309 -11.834 30.359 -14.19 C 24.383 -11.03 7.623 -2.327 0 0" style="fill: rgb(43, 44, 44); fill-opacity: 1;"/>
      </g>
    </g>
    <g style="clip-path: url(#clippath2);">
      <g transform="translate(363.2642 389.5292)">
        <path d="M 0 0 C 0.22 5.697 2.257 10.174 1.669 13.952 C 0.053 24.312 -14.778 38.358 -14.778 38.358 L -10.098 43.954 C -10.098 43.954 18.353 23.672 19.062 10.728 C 19.184 8.514 18.353 0.275 17.285 -2.553 C 9.628 -22.842 -0.073 -1.898 0 0" style="fill: rgb(236, 154, 111); fill-opacity: 1;"/>
      </g>
    </g>
    <g style="clip-path: url(#clippath2);">
      <g transform="translate(363.8079 394.1993)">
        <path d="M 0 0 C 4.122 -1.103 12.034 -3.002 17.702 -3.023 C 17.426 -4.742 17.097 -6.282 16.742 -7.223 C 9.084 -27.512 -0.617 -6.568 -0.544 -4.67 C -0.479 -3.015 -0.262 -1.462 0 0" style="fill: rgb(208, 102, 68); fill-opacity: 1;"/>
      </g>
    </g>
    <g style="clip-path: url(#clippath2);">
      <g transform="translate(353.5215 433.0368)">
        <path d="M 0 0 C 0 0 -2.145 -6.926 -2.533 -7.006 C -5.157 -7.544 -16.145 -6.818 -18.836 -7.058 C -19.669 -7.132 -21.999 -7.223 -22.535 -6.39 C -23.738 -4.521 -15.223 -2.635 -15.231 -2.584 C -15.281 -2.253 -23.574 4.383 -23.021 6.397 C -22.386 8.711 -15.552 3.51 -15.376 3.79 C -15.182 4.099 -20.558 10.512 -18.514 12.502 C -17.115 13.863 -11.562 7.264 -11.34 7.363 C -11.256 7.401 -13.099 15.145 -11.079 15.593 C -8.953 16.064 -7.704 9.892 -6.407 8.622 C -6.289 8.507 -5.5 14.991 -3.843 14.501 C -2.85 14.206 -2.293 9.255 -2.057 8.444 C -1.111 5.185 -0.823 3.293 0 0" style="fill: rgb(236, 154, 111); fill-opacity: 1;"/>
      </g>
    </g>
    <g style="clip-path: url(#clippath2);">
      <g transform="translate(277.4486 379.4364)">
        <path d="M 0 0 C 0 0 -12.775 14.673 -13.914 17.263 C -15.217 20.225 -15.252 24.875 -0.2 45.192 L -4.509 51.234 C -4.509 51.234 -31.259 30.485 -30.608 19.18 C -29.894 6.764 -14.858 -11.753 -5.444 -17.565 C 3.969 -23.376 0 0 0 0" style="fill: rgb(236, 154, 111); fill-opacity: 1;"/>
      </g>
    </g>
    <g style="clip-path: url(#clippath2);">
      <g transform="translate(273.4891 384.0477)">
        <path d="M 0 0 C 2.237 -2.633 3.96 -4.611 3.96 -4.611 C 3.96 -4.611 7.929 -27.988 -1.485 -22.176 C -4.2 -20.5 -7.383 -17.767 -10.554 -14.429 C -5.579 -12.504 -1.451 -3.516 0 0" style="fill: rgb(208, 102, 68); fill-opacity: 1;"/>
      </g>
    </g>
    <g style="clip-path: url(#clippath2);">
      <g transform="translate(271.9489 430.0768)">
        <path d="M 0 0 C 0 0 2.433 -6.831 2.824 -6.894 C 5.469 -7.322 16.416 -6.137 19.115 -6.264 C 19.951 -6.303 22.282 -6.296 22.783 -5.441 C 23.906 -3.524 15.32 -1.995 15.326 -1.944 C 15.362 -1.612 23.37 5.366 22.733 7.355 C 22.002 9.641 15.392 4.158 15.203 4.43 C 14.997 4.73 20.1 11.363 17.975 13.266 C 16.52 14.567 11.248 7.741 11.022 7.831 C 10.936 7.865 12.453 15.68 10.417 16.043 C 8.273 16.425 7.283 10.205 6.041 8.882 C 5.928 8.762 4.868 15.208 3.233 14.649 C 2.253 14.313 1.904 9.343 1.702 8.522 C 0.893 5.227 0.684 3.324 0 0" style="fill: rgb(236, 154, 111); fill-opacity: 1;"/>
      </g>
    </g>
    <g style="clip-path: url(#clippath2);">
      <g transform="translate(274.6545 384.79)">
        <path d="M 0 0 C 0 0 27.525 -30.991 43.446 -25.017 C 59.367 -19.043 84.725 -2.238 87.956 8.96 L 108.954 3.272 C 108.954 3.272 101.64 -26.351 82.26 -38.645 C 82.26 -38.645 100.338 -59.961 101.491 -75.449 C 101.491 -75.449 96.514 -70.361 73.928 -76.294 C 57.121 -80.709 40.689 -92.752 40.689 -92.752 C 38.519 -80.797 35.928 -73.565 26.739 -54.138 L -10.666 -22.741 C -10.666 -22.741 -0.676 -8.046 0 0" style="fill: rgb(253, 213, 83); fill-opacity: 1;"/>
      </g>
    </g>
    <g style="clip-path: url(#clippath2);">
      <g transform="translate(356.7398 347.4192)">
        <path d="M 0 0 C -2.565 3.769 -4.521 7.995 -7.752 11.295 C -9.21 12.786 -13.828 16.425 -13.77 16.511 C -13.635 16.713 -8.96 14.142 -7.894 13.323 C -2.498 9.179 0 0 0 0" style="fill: rgb(186, 127, 17); fill-opacity: 1;"/>
      </g>
    </g>
    <g style="clip-path: url(#clippath2);">
      <g transform="translate(357.7625 349.0908)">
        <path d="M 0 0 C 0.105 -0.15 -0.798 4.076 -1.048 5.32 C -1.681 8.473 -2.463 11.575 -3.444 14.638 C -3.548 14.962 -4.354 17.591 -4.354 17.591 C -4.354 17.591 -2.195 14.884 -1.428 12.588 C -0.148 8.758 0 0 0 0" style="fill: rgb(186, 127, 17); fill-opacity: 1;"/>
      </g>
    </g>
    <g style="clip-path: url(#clippath2);">
      <g transform="translate(303.9483 331.759)">
        <path d="M 0 0 C 0.004 -0.04 0.361 0.386 0.367 0.393 C 0.654 0.769 0.924 1.156 1.19 1.548 C 1.9 2.594 2.458 3.835 2.917 5.01 C 3.453 6.387 4.332 7.538 4.861 11.62 C 5.367 15.523 4.62 20.395 4.62 20.395 C 4.62 20.395 4.091 17.303 3.919 16.039 C 3.44 12.537 2.792 8.983 1.866 5.567 C 1.671 4.851 0.627 2.336 0.627 2.336 C 0.627 2.336 0.93 7.38 0.333 10.501 C -0.602 15.391 -2.272 21.398 -2.916 21.435 C -3.069 21.445 -1.508 15.906 -0.738 10.524 C 0.026 5.184 0 0 0 0 Z" style="fill: rgb(186, 127, 17); fill-opacity: 1;"/>
      </g>
    </g>
    <g style="clip-path: url(#clippath2);">
      <g transform="translate(333.4717 399.3361)">
        <path d="M 0 0 C 3.011 0.825 6.216 -1.281 7.152 -4.701 C 8.088 -8.12 6.404 -11.565 3.393 -12.39 C 0.382 -13.214 -2.822 -11.108 -3.759 -7.689 C -4.695 -4.27 -3.011 -0.825 0 0" style="fill: rgb(208, 102, 68); fill-opacity: 1;"/>
      </g>
    </g>
    <g style="clip-path: url(#clippath2);">
      <g transform="translate(326.0435 373.7727)">
        <path d="M 0 0 C 0 0 1.259 -10.214 6.04 -9.462 C 10.821 -8.711 14.939 -19.308 10.607 -24.777 C 6.275 -30.247 -15.39 -26.797 -17.447 -17.883 C -19.505 -8.968 -10.627 -13.216 -13.79 -6.249 C -18.979 5.181 0 0 0 0" style="fill: rgb(236, 154, 111); fill-opacity: 1;"/>
      </g>
    </g>
    <g style="clip-path: url(#clippath2);">
      <g transform="translate(312.5379 366.8443)">
        <path d="M 0 0 C -0.082 0.214 -0.176 0.44 -0.284 0.679 C -5.474 12.11 13.506 6.928 13.506 6.928 C 13.506 6.928 14.016 2.784 15.623 -0.031 C 11.168 -1.909 3.762 -0.774 0 0" style="fill: rgb(208, 102, 68); fill-opacity: 1;"/>
      </g>
    </g>
    <g style="clip-path: url(#clippath2);">
      <g transform="translate(302.9029 413.5366)">
        <path d="M 0 0 C 10.741 4.779 23.952 -3.148 29.548 -15.724 C 35.143 -28.3 31.534 -41.86 22.996 -44.94 C 17.301 -46.993 1.764 -46.113 -6.259 -34.456 C -14.062 -23.116 -10.741 -4.779 0 0" style="fill: rgb(236, 154, 111); fill-opacity: 1;"/>
      </g>
    </g>
    <g style="clip-path: url(#clippath2);">
      <g transform="translate(299.2653 375.8922)">
        <path d="M 0 0 C -0.938 0.961 -1.817 2.021 -2.621 3.189 C -10.425 14.528 -7.104 32.865 3.638 37.644 C 13.843 42.185 26.277 35.256 32.291 23.768 C 31.265 24.611 30.223 25.106 30.223 25.106 C 32.321 19.668 22.551 26.861 22.551 26.861 C 26.951 20.293 11.922 24.379 11.922 24.379 C 15.286 16.435 -0.556 22.648 -0.556 22.648 C -1.508 18.085 -0.562 5.407 0 0 Z" style="fill: rgb(208, 102, 68); fill-opacity: 1;"/>
      </g>
    </g>
    <g style="clip-path: url(#clippath2);">
      <g transform="translate(320.13 333.4943)">
        <path d="M 0 0 C 9.178 9.118 14.186 19.038 -3.363 27.641 C -26.283 38.878 -23.392 54.064 -23.334 67.775 C -23.334 67.775 -3.82 58.354 -12.169 69.139 C -12.169 69.139 3.759 61.527 -0.329 71.741 C -0.329 71.741 14.147 60.27 6.067 72.854 C 6.067 72.854 13.393 64.33 13.918 59.591 C 13.918 59.591 14.505 89.376 -2.574 91.71 C -25.839 94.89 -31.438 74.122 -31.438 74.122 C -31.438 74.122 -37.837 55.656 -31.633 40.869 C -26.749 29.228 -16.007 22.547 -8.316 16.794 C -0.388 10.863 -2.883 -2.864 0 0" style="fill: rgb(43, 44, 44); fill-opacity: 1;"/>
      </g>
    </g>
    <g style="clip-path: url(#clippath2);">
      <g transform="translate(310.1167 393.3662)">
        <path d="M 0 0 C 0 0 -6.934 6.093 -6.461 -3.568 C -6.461 -3.568 -6.022 2.482 0 0" style="fill: rgb(86, 24, 29); fill-opacity: 1;"/>
      </g>
    </g>
    <g style="clip-path: url(#clippath2);">
      <g transform="translate(329.4559 397.0403)">
        <path d="M 0 0 C 0 0 -5.876 8.563 -7.303 -1.14 C -7.303 -1.14 -4.653 4.47 0 0" style="fill: rgb(86, 24, 29); fill-opacity: 1;"/>
      </g>
    </g>
    <g style="clip-path: url(#clippath2);">
      <g transform="translate(320.7641 393.8788)">
        <path d="M 0 0 C 0 0 -0.376 -5.253 2.061 -6.245 C 3.659 -6.896 2.545 -8.489 1.812 -9.264 C 1.812 -9.264 7.073 -6.933 4.337 -5.914 C 0.198 -4.373 0 0 0 0" style="fill: rgb(86, 24, 29); fill-opacity: 1;"/>
      </g>
    </g>
    <g style="clip-path: url(#clippath2);">
      <g transform="translate(324.3438 382.5954)">
        <path d="M 0 0 C -1.427 0.013 -7.043 0.202 -8.929 0.059 C -10.84 -0.086 -9.57 -7.523 -4.618 -7.807 C 0.012 -8.073 1.878 -0.016 0 0" style="fill: rgb(86, 24, 29); fill-opacity: 1;"/>
      </g>
    </g>
    <g style="clip-path: url(#clippath2);">
      <g transform="translate(324.9058 382.1806)">
        <path d="M 0 0 C -0.119 0.261 -0.306 0.413 -0.562 0.415 C -1.989 0.428 -7.605 0.616 -9.491 0.474 C -9.854 0.446 -10.103 0.155 -10.233 -0.302 C -9.464 -1.249 -7.871 -1.636 -4.394 -1.706 C -1.702 -1.76 -0.519 -0.845 0 0" style="fill: rgb(255, 255, 255); fill-opacity: 1;"/>
      </g>
    </g>
    <g style="clip-path: url(#clippath2);">
      <g transform="translate(323.8277 392.1095)">
        <path d="M 0 0 C 0 0 1.48 5.617 5.287 0.979 C 3.604 1.809 1.857 1.692 0 0" style="fill: rgb(86, 24, 29); fill-opacity: 1;"/>
      </g>
    </g>
    <g style="clip-path: url(#clippath2);">
      <g transform="translate(306.9962 385.424)">
        <path d="M 0 0 C 0 0 -0.398 6.619 5.812 3.078 C 3.529 3.329 1.53 2.534 0 0" style="fill: rgb(86, 24, 29); fill-opacity: 1;"/>
      </g>
    </g>
    <g style="clip-path: url(#clippath2);">
      <g transform="translate(225.9406 120.8399)">
        <path d="M 0 0 C 5.36 0.488 8.117 -2.473 8.889 -8.642 C 9.919 -16.877 8.302 -35.699 3.65 -36.358 C -1.68 -37.112 -6.651 -28.674 -7.546 -18.838 C -8.441 -9.001 -5.361 -0.488 0 0" style="fill: rgb(128, 78, 72); fill-opacity: 1;"/>
      </g>
    </g>
    <g style="clip-path: url(#clippath2);">
      <g transform="translate(230.3257 120.2478)">
        <path d="M 0 0 C 2.544 -1.157 3.981 -3.866 4.504 -8.05 C 5.533 -16.285 3.917 -35.107 -0.735 -35.766 C -0.953 -35.796 -1.17 -35.812 -1.386 -35.813 C 4.458 -20.621 1.947 -6.76 0 0" style="fill: rgb(255, 233, 218); fill-opacity: 1;"/>
      </g>
    </g>
    <g style="clip-path: url(#clippath2);">
      <g transform="translate(218.7722 104.0592)">
        <path d="M 0 0 C 0 0 3.418 0.256 7.583 2.365 C 8.146 2.65 8.371 3.338 8.086 3.9 C 7.801 4.462 7.113 4.687 6.552 4.402 C 2.85 2.528 -0.179 2.277 -0.179 2.277 C -0.807 2.227 -1.277 1.677 -1.228 1.049 C -1.178 0.42 -0.628 -0.049 0 0" style="fill: rgb(255, 226, 213); fill-opacity: 1;"/>
      </g>
    </g>
    <g style="clip-path: url(#clippath2);">
      <g transform="translate(218.943 100.3713)">
        <path d="M 0 0 C 0 0 3.418 0.256 7.583 2.366 C 8.145 2.65 8.37 3.338 8.086 3.9 C 7.801 4.462 7.114 4.687 6.551 4.403 C 2.85 2.528 -0.179 2.277 -0.179 2.277 C -0.807 2.227 -1.277 1.677 -1.228 1.049 C -1.178 0.421 -0.628 -0.049 0 0" style="fill: rgb(255, 226, 213); fill-opacity: 1;"/>
      </g>
    </g>
    <g style="clip-path: url(#clippath2);">
      <g transform="translate(219.1356 96.9313)">
        <path d="M 0 0 C 0 0 3.418 0.255 7.583 2.365 C 8.146 2.65 8.371 3.338 8.086 3.9 C 7.801 4.462 7.114 4.687 6.552 4.402 C 2.85 2.527 -0.179 2.276 -0.179 2.276 C -0.807 2.227 -1.277 1.677 -1.228 1.048 C -1.178 0.42 -0.628 -0.049 0 0" style="fill: rgb(255, 226, 213); fill-opacity: 1;"/>
      </g>
    </g>
    <g style="clip-path: url(#clippath2);">
      <g transform="translate(112.1433 182.6087)">
        <path d="M 0 0 C 4.956 2.099 8.485 0.12 11.1 -5.521 C 14.591 -13.05 18.79 -31.469 14.559 -33.514 C 9.714 -35.858 2.406 -29.336 -1.445 -20.241 C -5.296 -11.146 -4.957 -2.099 0 0" style="fill: rgb(128, 78, 72); fill-opacity: 1;"/>
      </g>
    </g>
    <g style="clip-path: url(#clippath2);">
      <g transform="translate(112.0317 160.1588)">
        <path d="M 0 0 C 0 0 3.091 0.816 6.581 3.676 C 7.052 4.061 7.153 4.81 6.805 5.347 C 6.457 5.883 5.793 6.005 5.322 5.62 C 2.221 3.079 -0.515 2.33 -0.515 2.33 C -1.083 2.177 -1.428 1.531 -1.286 0.888 C -1.144 0.245 -0.567 -0.153 0 0" style="fill: rgb(255, 226, 213); fill-opacity: 1;"/>
      </g>
    </g>
    <g style="clip-path: url(#clippath2);">
      <g transform="translate(113.3912 157.4561)">
        <path d="M 0 0 C 0 0 3.091 0.817 6.581 3.676 C 7.052 4.061 7.152 4.81 6.804 5.347 C 6.457 5.883 5.793 6.005 5.321 5.62 C 2.221 3.079 -0.515 2.33 -0.515 2.33 C -1.083 2.177 -1.429 1.531 -1.286 0.888 C -1.144 0.245 -0.568 -0.153 0 0" style="fill: rgb(255, 226, 213); fill-opacity: 1;"/>
      </g>
    </g>
    <g style="clip-path: url(#clippath2);">
      <g transform="translate(115.1576 154.6626)">
        <path d="M 0 0 C 0 0 3.091 0.817 6.581 3.675 C 7.052 4.061 7.152 4.81 6.805 5.347 C 6.457 5.883 5.793 6.005 5.322 5.62 C 2.221 3.079 -0.515 2.33 -0.515 2.33 C -1.083 2.177 -1.428 1.531 -1.286 0.888 C -1.144 0.245 -0.568 -0.153 0 0 Z" style="fill: rgb(255, 226, 213); fill-opacity: 1;"/>
      </g>
    </g>
    <g style="clip-path: url(#clippath2);">
      <g transform="translate(114.009 183.222)">
        <path d="M 0 0 C 3.995 0.907 6.96 -1.229 9.234 -6.135 C 12.725 -13.664 16.924 -32.082 12.693 -34.128 C 12.381 -34.279 12.059 -34.393 11.728 -34.472 C 12.026 -11.114 3.601 -2.576 0 0" style="fill: rgb(255, 233, 218); fill-opacity: 1;"/>
      </g>
    </g>
    <g style="clip-path: url(#clippath2);">
      <g transform="translate(148.4899 223.9276)">
        <path d="M 0 0 C 0 0 2.465 -5.861 5.813 -11.74 C 11.185 -21.17 73.751 -88.04 78.314 -100.538 C 75.467 -105.717 71.084 -109.679 65.429 -112.632 C 65.429 -112.632 -14.247 -29.671 -26.187 -31.756 C -38.117 -33.84 -53.374 -46.696 -53.374 -46.696 L -42.009 -43.336 C -39.442 -49.357 -37.339 -57.676 -40.704 -62.175 C -40.704 -62.175 -88.772 -76.392 -97.702 -71.978 C -104.886 -68.427 -112.552 -59.212 -88.781 -34.814 C -73.887 -19.528 -61.011 -8.626 -53.169 -0.713 C -48.356 4.145 -45.272 9.379 -45.272 9.379 Z" style="fill: rgb(101, 157, 180); fill-opacity: 1;"/>
      </g>
    </g>
    <g style="clip-path: url(#clippath2);">
      <g transform="translate(106.4806 180.5919)">
        <path d="M 0 0 C 0.658 -1.545 1.286 -3.24 1.799 -4.984 C -12.088 -10.466 -24.598 -18.952 -22.981 -16.374 C -21.042 -13.286 -11.365 -3.36 -11.365 -3.36 Z" style="fill: rgb(74, 123, 155); fill-opacity: 1;"/>
      </g>
    </g>
    <g style="clip-path: url(#clippath2);">
      <g transform="translate(213.2631 112.1362)">
        <path d="M 0 0 C -1.195 -0.333 2.932 -5.03 4.607 -5.102 C 11.384 -5.391 18.535 4.847 17.003 8.48 C 15.64 11.711 12.338 15.009 12.277 13.979 C 12.048 10.111 7.088 1.976 0 0 Z" style="fill: rgb(171, 225, 232); fill-opacity: 1;"/>
      </g>
    </g>
    <g style="clip-path: url(#clippath2);">
      <g transform="translate(107.1487 161.5411)">
        <path d="M 0 0 C -0.439 -1.16 5.858 0.552 6.907 1.859 C 11.154 7.149 6.988 18.594 3.153 19.512 C -0.256 20.327 -4.787 18.831 -3.993 18.172 C -1.011 15.696 2.606 6.881 0 0" style="fill: rgb(171, 225, 232); fill-opacity: 1;"/>
      </g>
    </g>
    <g style="clip-path: url(#clippath2);">
      <g transform="translate(96.2791 224.2111)">
        <path d="M 0 0 C 4.26 4.55 6.938 9.095 6.938 9.095 L 52.211 -0.283 C 52.211 -0.283 53.476 -3.293 55.427 -7.163 C 37.791 -12.938 9.228 -3.416 0 0" style="fill: rgb(74, 123, 155); fill-opacity: 1;"/>
      </g>
    </g>
    <g style="clip-path: url(#clippath2);">
      <g transform="translate(123.1141 229.1844)">
        <path d="M 0 0 L 1.007 -0.208 C 0.127 -4.28 -1.468 -12.626 -1.864 -21.247 C -1.985 -23.874 -1.997 -26.528 -1.841 -29.091 C -1.802 -29.08 -1.762 -29.072 -1.719 -29.071 C -1.067 -29.037 0.095 -28.884 1.255 -28.073 C 2.446 -27.239 3.617 -25.719 4.279 -22.985 C 5.27 -18.886 6.993 -7.242 7.801 -1.616 L 8.81 -1.825 C 7.995 -7.494 6.271 -19.125 5.279 -23.227 C 4.536 -26.297 3.182 -27.98 1.844 -28.916 C 0.475 -29.874 -0.896 -30.058 -1.667 -30.098 C -1.703 -30.1 -1.738 -30.098 -1.772 -30.093 C -1.581 -32.522 -1.231 -34.856 -0.671 -36.993 C -0.719 -36.998 -0.765 -37.005 -0.811 -37.013 C -1.097 -37.063 -1.385 -37.119 -1.675 -37.181 C -2.901 -32.432 -3.148 -26.76 -2.892 -21.2 C -2.493 -12.517 -0.888 -4.112 0 0" style="fill: rgb(50, 92, 128); fill-opacity: 1;"/>
      </g>
    </g>
    <g style="clip-path: url(#clippath2);">
      <g transform="translate(185.5846 249.3878)">
        <path d="M 0 0 C 0 0 7.959 7.826 9.082 19.512 L 4.482 23.282 L -1.68 7.732 Z" style="fill: rgb(174, 51, 80); fill-opacity: 1;"/>
      </g>
    </g>
    <g style="clip-path: url(#clippath2);">
      <g transform="translate(194.1031 272.1813)">
        <path d="M 0 0 L 17.358 -8.197 C 17.358 -8.197 17.158 -0.161 15.598 8.277 L 24.184 10.868 C 24.184 10.868 37.663 -21.016 31.428 -26.377 C 26.356 -30.736 0.968 -20.311 -8.925 -15.972 C -18.238 -11.889 0 0 0 0" style="fill: rgb(254, 203, 165); fill-opacity: 1;"/>
      </g>
    </g>
    <g style="clip-path: url(#clippath2);">
      <g transform="translate(197.6942 270.4855)">
        <path d="M 0 0 C -2.45 -2.708 -6.674 -8.756 -5.419 -17.276 C -8.182 -16.151 -10.631 -15.103 -12.516 -14.276 C -21.829 -10.193 -3.591 1.696 -3.591 1.696 Z" style="fill: rgb(229, 140, 108); fill-opacity: 1;"/>
      </g>
    </g>
    <g style="clip-path: url(#clippath2);">
      <g transform="translate(218.2853 278.9596)">
        <path d="M 0 0 C 0 0 -7.074 -1.595 -7.336 -1.298 C -9.111 0.709 -13.96 10.595 -15.51 12.808 C -15.99 13.493 -17.23 15.468 -16.775 16.348 C -15.755 18.322 -9.874 11.882 -9.834 11.914 C -9.573 12.122 -7.955 22.62 -5.933 23.145 C -3.611 23.748 -4.712 15.231 -4.381 15.217 C -4.017 15.203 -1.138 23.062 1.605 22.281 C 3.482 21.748 0.531 13.643 0.728 13.501 C 0.803 13.446 6.597 18.906 7.992 17.378 C 9.461 15.77 4.733 11.61 4.279 9.852 C 4.238 9.693 10.252 12.242 10.653 10.561 C 10.894 9.553 6.879 6.602 6.293 5.993 C 3.94 3.548 2.444 2.354 0 0 Z" style="fill: rgb(254, 203, 165); fill-opacity: 1;"/>
      </g>
    </g>
    <g style="clip-path: url(#clippath2);">
      <g transform="translate(119.4524 313.8153)">
        <path d="M 0 0 C 0 0 -46.176 51.553 -47.129 51.518 C -48.082 51.483 -54.82 41.339 -54.82 41.339 C -54.82 41.339 -16.437 -1.597 -9.604 -15.593 Z" style="fill: rgb(254, 203, 165); fill-opacity: 1;"/>
      </g>
    </g>
    <g style="clip-path: url(#clippath2);">
      <g transform="translate(115.3912 318.3427)">
        <path d="M 0 0 C 2.522 -2.809 4.061 -4.527 4.061 -4.527 L -5.543 -20.12 C -6.914 -17.313 -9.554 -13.34 -12.901 -8.781 C -9.587 -4.064 -3.728 -1.338 0 0" style="fill: rgb(229, 140, 108); fill-opacity: 1;"/>
      </g>
    </g>
    <g style="clip-path: url(#clippath2);">
      <g transform="translate(72.8683 363.669)">
        <path d="M 0 0 C 0.001 0 1.427 1.138 1.236 5.318 C 1.105 8.209 0.081 9.529 -0.903 10.504 C -3.067 12.647 -5.078 9.959 -5.447 10.12 C -5.795 10.272 -9.378 15.387 -13.4 12.12 C -14.951 10.86 -13.999 9.513 -13.999 9.513 C -13.999 9.513 -16.004 10.078 -17.409 8.404 C -18.777 6.773 -17.479 4.63 -17.479 4.63 C -17.479 4.63 -19.09 4.399 -18.93 2.352 C -18.81 0.821 -17.604 0.076 -17.604 0.076 C -17.604 0.076 -19.026 0.231 -18.901 -1.886 C -18.775 -4.018 -18.207 -4.44 -15.689 -5.637 C -13.376 -6.737 -10.228 -8.309 -7.639 -8.847 C -6.628 -9.057 0 0 0 0" style="fill: rgb(254, 203, 165); fill-opacity: 1;"/>
      </g>
    </g>
    <g style="clip-path: url(#clippath2);">
      <g transform="translate(63.9666 370.1056)">
        <path d="M 0 0 C 0.875 1.431 2.079 2.673 3.246 3.875 C 3.348 3.767 3.419 3.699 3.455 3.683 C 3.488 3.669 3.536 3.677 3.596 3.705 C 3.239 3.314 2.808 2.845 2.622 2.623 C 2.284 2.222 1.953 1.817 1.643 1.394 C 1.381 1.037 1.116 0.682 0.875 0.311 C 0.13 -0.842 -0.738 -2.176 -0.149 -3.572 C 0.076 -4.104 0.422 -4.436 1.036 -4.492 C 1.474 -4.532 1.976 -4.398 2.365 -4.233 C 3.4 -3.795 4.362 -3.238 5.313 -2.642 C 5.642 -2.436 5.972 -2.226 6.273 -1.981 C 6.385 -1.89 5.534 -2.787 5.064 -3.138 C 4.507 -3.554 3.709 -4.153 2.863 -4.574 C 2.828 -4.681 2.801 -4.771 2.791 -4.802 C 2.519 -5.66 2.507 -6.615 2.705 -7.49 C 2.768 -7.767 2.955 -8.483 2.876 -8.333 C 2.496 -7.607 2.008 -6.347 2.017 -5.526 C 2.019 -5.339 2.021 -5.112 2.065 -4.905 C 1.274 -5.16 0.492 -5.168 -0.13 -4.648 C -0.242 -4.763 -0.397 -4.857 -0.5 -4.913 C -0.604 -4.969 -0.716 -5.013 -0.834 -5.048 C -0.817 -5.148 -0.826 -5.28 -0.805 -5.41 C -0.781 -5.561 -0.77 -5.713 -0.769 -5.866 C -0.762 -6.736 -1.45 -7.432 -2.238 -7.762 C -2.054 -8.1 -1.938 -8.531 -1.843 -8.893 C -1.731 -9.32 -1.648 -9.779 -1.692 -10.223 C -1.766 -10.972 -2.535 -11.4 -3.199 -11.548 C -4.572 -11.853 -5.941 -11.593 -7.217 -11.058 C -7.231 -11.055 -7.245 -11.053 -7.259 -11.05 L -7.242 -11.047 C -7.234 -11.051 -7.225 -11.054 -7.217 -11.058 C -6.927 -11.111 -6.639 -11.172 -6.348 -11.219 C -5.275 -11.394 -3.661 -11.547 -2.755 -10.766 C -2.11 -10.21 -2.226 -9.051 -2.484 -8.339 C -2.539 -8.189 -2.641 -8.053 -2.72 -7.916 C -2.851 -7.944 -2.981 -7.962 -3.107 -7.968 C -5.222 -8.075 -7.481 -7.519 -9.36 -6.524 C -9.099 -6.366 -8.837 -6.356 -8.741 -6.359 C -8.426 -6.506 -8.078 -6.622 -7.836 -6.701 C -6.217 -7.222 -4.185 -7.923 -2.528 -7.248 C -2.1 -7.074 -1.581 -6.776 -1.368 -6.343 C -1.222 -6.045 -1.222 -5.693 -1.229 -5.37 C -1.23 -5.337 -1.251 -5.233 -1.267 -5.134 C -1.782 -5.194 -2.347 -5.13 -2.793 -5.055 C -4.18 -4.822 -5.498 -4.073 -6.72 -3.431 C -7.517 -3.011 -8.321 -2.567 -8.98 -1.938 C -8.752 -1.832 -8.577 -1.806 -8.577 -1.806 C -8.577 -1.806 -8.59 -1.785 -8.612 -1.744 C -8.577 -1.772 -8.541 -1.799 -8.505 -1.826 C -7.946 -2.244 -7.334 -2.563 -6.718 -2.889 C -5.431 -3.569 -4.134 -4.155 -2.723 -4.529 C -2.169 -4.675 -1.414 -4.881 -0.851 -4.657 C -0.69 -4.593 -0.542 -4.483 -0.419 -4.353 C -0.443 -4.323 -0.467 -4.292 -0.491 -4.26 C -1.292 -3.171 -1.025 -2.005 -0.479 -0.875 C -0.44 -0.795 -0.401 -0.716 -0.361 -0.638 C -0.643 -0.329 -0.962 -0.072 -1.215 0.142 C -2.127 0.914 -3.082 1.712 -4.068 2.384 C -4.43 2.631 -4.782 2.891 -5.139 3.145 C -5.208 3.264 -5.341 3.533 -5.377 3.884 C -4.569 3.462 -3.813 2.91 -3.083 2.37 C -2.557 1.981 -2.054 1.564 -1.548 1.151 C -1.147 0.824 -0.727 0.516 -0.301 0.224 C -0.212 0.162 -0.101 0.083 0 0" style="fill: rgb(169, 39, 7); fill-opacity: 1;"/>
      </g>
    </g>
    <g style="clip-path: url(#clippath2);">
      <g transform="translate(117.8969 317.9857)">
        <path d="M 0 0 C 0 0 18.277 -22.751 35.14 -27.711 C 52.003 -32.672 72.261 -42.2 78.142 -46.452 C 71.663 -51.726 68.984 -60.007 67.613 -68.607 L 46.567 -59.532 C 46.567 -59.532 37.189 -71.134 35.245 -83.517 C 33.793 -92.771 34.038 -99.507 34.038 -99.507 C 6.488 -100.346 -13.385 -93.752 -19.686 -90.084 C -19.686 -90.084 -18.449 -62.847 -1.513 -35.095 L -14.362 -20.581 C -12.479 -10.887 -8.239 -3.494 0 0" style="fill: rgb(254, 118, 128); fill-opacity: 1;"/>
      </g>
    </g>
    <g style="clip-path: url(#clippath2);">
      <g transform="translate(164.5046 259.0959)">
        <path d="M 0 0 C 0 0 -0.283 9.093 1.654 18.642 C 1.654 18.642 -3.824 7.547 0 0" style="fill: rgb(174, 51, 80); fill-opacity: 1;"/>
      </g>
    </g>
    <g style="clip-path: url(#clippath2);">
      <g transform="translate(148.5807 235.5226)">
        <path d="M 0 0 C 0 0 -24.496 -9.287 -44.572 -3.956 C -44.572 -3.956 -23.753 -5.425 0 0" style="fill: rgb(174, 51, 80); fill-opacity: 1;"/>
      </g>
    </g>
    <g style="clip-path: url(#clippath2);">
      <g transform="translate(116.7393 283.2094)">
        <path d="M 0 0 C 0 0 6.979 8.917 13.476 10.953 C 13.476 10.953 3.052 9.51 0 0" style="fill: rgb(174, 51, 80); fill-opacity: 1;"/>
      </g>
    </g>
    <g style="clip-path: url(#clippath2);">
      <g transform="translate(144.4163 266.4796)">
        <path d="M 0 0 C 1.024 0.525 9.081 -4.071 11.158 -4.743 C 12.468 -5.167 7.505 -13.693 6.162 -14.265 C 4.82 -14.836 1.667 -15.689 -0.583 -14.85 C -2.467 -14.148 -4.324 -10.177 -3.773 -8.397 C -3.221 -6.617 -1.572 -0.806 0 0" style="fill: rgb(255, 160, 156); fill-opacity: 1;"/>
      </g>
    </g>
    <g style="clip-path: url(#clippath2);">
      <g transform="translate(147.0647 280.6243)">
        <path d="M 0 0 C 0 0 -5.5 -10.31 -6.412 -12.729 C -6.79 -13.728 -10.796 -12.538 -10.567 -10.97 C -10.217 -8.582 -7.171 -2.409 -4.313 1.598 C -3.297 3.022 0 0 0 0" style="fill: rgb(255, 232, 230); fill-opacity: 1;"/>
      </g>
    </g>
    <g style="clip-path: url(#clippath2);">
      <g transform="translate(142.5733 277.8796)">
        <path d="M 0 0 C 0.703 -0.078 1.209 -0.728 1.129 -1.45 C 1.049 -2.173 0.413 -2.697 -0.29 -2.619 C -0.993 -2.542 -1.499 -1.891 -1.419 -1.168 C -1.339 -0.446 -0.703 0.078 0 0" style="fill: rgb(123, 40, 63); fill-opacity: 1;"/>
      </g>
    </g>
    <g style="clip-path: url(#clippath2);">
      <g transform="translate(140.2573 273.2934)">
        <path d="M 0 0 C 0.703 -0.078 1.209 -0.728 1.129 -1.451 C 1.049 -2.174 0.413 -2.697 -0.29 -2.62 C -0.993 -2.542 -1.499 -1.892 -1.419 -1.169 C -1.339 -0.446 -0.703 0.077 0 0" style="fill: rgb(123, 40, 63); fill-opacity: 1;"/>
      </g>
    </g>
    <g style="clip-path: url(#clippath2);">
      <g transform="translate(143.5605 279.6534)">
        <path d="M 0 0 C 0 0 13.324 1.461 16.934 -6.97 C 16.934 -6.97 25.827 6.876 14.934 12.683 C 1.224 19.992 -9.232 13.495 -15.184 5.915 C -15.184 5.915 -3.791 8.599 0 0" style="fill: rgb(255, 232, 230); fill-opacity: 1;"/>
      </g>
    </g>
    <g style="clip-path: url(#clippath2);">
      <g transform="translate(164.8093 297.4168)">
        <path d="M 0 0 C 0 0 -4.784 -5.449 -4.19 -10.262 C -3.491 -15.918 -17.381 -18.031 -21.435 -18.027 C -21.435 -18.027 -25.781 -9.924 -21.204 -3.862 C -21.204 -3.862 -18.262 -3.029 -15.729 2.651 C -13.197 8.331 0 0 0 0" style="fill: rgb(254, 203, 165); fill-opacity: 1;"/>
      </g>
    </g>
    <g style="clip-path: url(#clippath2);">
      <g transform="translate(145.9131 295.1714)">
        <path d="M 0 0 C 0.962 0.972 2.101 2.505 3.167 4.896 C 5.7 10.576 18.896 2.245 18.896 2.245 C 18.896 2.245 17.477 0.629 16.28 -1.621 C 8.964 -2.688 3.089 -1.142 0 0" style="fill: rgb(229, 140, 108); fill-opacity: 1;"/>
      </g>
    </g>
    <g style="clip-path: url(#clippath2);">
      <g transform="translate(144.843 327.7866)">
        <path d="M 0 0 C 3.003 -0.853 4.655 -4.314 3.687 -7.724 C 2.718 -11.134 -0.506 -13.21 -3.509 -12.358 C -6.512 -11.505 -8.164 -8.044 -7.196 -4.633 C -6.227 -1.224 -3.003 0.853 0 0" style="fill: rgb(229, 140, 108); fill-opacity: 1;"/>
      </g>
    </g>
    <g style="clip-path: url(#clippath2);">
      <g transform="translate(174.2755 343.795)">
        <path d="M 0 0 C 10.852 -4.521 13.856 -20.318 8.221 -33.845 C 2.586 -47.373 -15.151 -51.059 -24.909 -46.799 C -32.577 -43.451 -36.54 -33.272 -30.905 -19.745 C -25.27 -6.217 -10.852 4.521 0 0" style="fill: rgb(254, 203, 165); fill-opacity: 1;"/>
      </g>
    </g>
    <g style="clip-path: url(#clippath2);">
      <g transform="translate(144.9926 327.7609)">
        <path d="M 0 0 C 6.761 10.712 19.971 19.913 29.283 16.034 C 40.135 11.514 43.139 -4.284 37.504 -17.811 C 36.797 -19.508 35.9 -21.049 34.852 -22.44 C 34.065 -22.495 32.394 -22.071 32.259 -22.107 C 32.259 -22.107 24.873 -15.41 30.615 -2.535 C 30.615 -2.535 2.531 1.544 15.745 4.269 C 15.745 4.269 4.939 2.221 7.856 5.584 C 7.856 5.584 3.296 3.199 0 0" style="fill: rgb(229, 140, 108); fill-opacity: 1;"/>
      </g>
    </g>
    <g style="clip-path: url(#clippath2);">
      <g transform="translate(178.9397 302.6292)">
        <path d="M 0 0 C 0 0 -10.916 9.38 -0.014 25.347 C -0.014 25.347 -10.035 25.256 -15.347 27.135 C -18.955 28.412 -15.907 29.933 -12.856 30.909 C -12.856 30.909 -29.283 30.197 -22.82 34.34 C -22.82 34.34 -29.285 33.172 -34.52 23.597 C -34.52 23.597 -34.548 47.704 -11.206 45.741 C -11.206 45.741 -15.209 46.665 -17.725 46.823 C -20.241 46.981 -14.575 50.364 -6.58 47.854 C 1.416 45.343 7.87 42.868 7.027 33.334 C 7.027 33.334 27.31 23.634 0 0" style="fill: rgb(169, 39, 7); fill-opacity: 1;"/>
      </g>
    </g>
    <g style="clip-path: url(#clippath2);">
      <g transform="translate(148.4029 339.9402)">
        <path d="M 0 0 C 1.039 -1.716 2.335 -3.296 3.832 -4.751 C 1.56 -6.24 -1.365 -8.925 -3.983 -13.714 C -3.983 -13.714 -3.992 -6.277 0 0 M 27.728 -16.869 C 33.69 -18.565 39.459 -19.642 43.893 -20.308 C 42.29 -24.897 38.372 -30.53 30.537 -37.311 C 30.537 -37.311 21.836 -29.834 27.728 -16.869" style="fill: rgb(128, 36, 25); fill-opacity: 1;"/>
      </g>
    </g>
    <g style="clip-path: url(#clippath2);">
      <g transform="translate(183.0374 306.8696)">
        <path d="M 0 0 C 2.494 -1.877 2.789 -5.701 0.657 -8.533 C -1.475 -11.365 -5.231 -12.141 -7.725 -10.264 C -10.219 -8.386 -10.514 -4.562 -8.382 -1.73 C -6.25 1.102 -2.494 1.878 0 0" style="fill: rgb(254, 203, 165); fill-opacity: 1;"/>
      </g>
    </g>
    <g style="clip-path: url(#clippath2);">
      <g transform="translate(166.0306 313.8607)">
        <path d="M 0 0 C 0.573 -0.17 0.826 -1.025 0.564 -1.908 C 0.302 -2.792 -0.376 -3.37 -0.949 -3.201 C -1.522 -3.031 -1.775 -2.175 -1.513 -1.292 C -1.251 -0.409 -0.573 0.17 0 0" style="fill: rgb(128, 36, 25); fill-opacity: 1;"/>
      </g>
    </g>
    <g style="clip-path: url(#clippath2);">
      <g transform="translate(152.0973 320.0879)">
        <path d="M 0 0 C 0.573 -0.17 0.826 -1.025 0.564 -1.908 C 0.302 -2.792 -0.376 -3.37 -0.949 -3.201 C -1.523 -3.031 -1.775 -2.175 -1.514 -1.292 C -1.251 -0.409 -0.573 0.17 0 0" style="fill: rgb(128, 36, 25); fill-opacity: 1;"/>
      </g>
    </g>
    <g style="clip-path: url(#clippath2);">
      <g transform="translate(165.1471 317.6464)">
        <path d="M 0 0 C 0 0 7.562 5.293 6.029 -4.257 C 6.029 -4.257 6.259 1.804 0 0" style="fill: rgb(128, 36, 25); fill-opacity: 1;"/>
      </g>
    </g>
    <g style="clip-path: url(#clippath2);">
      <g transform="translate(149.6671 324.5101)">
        <path d="M 0 0 C 0 0 7.962 6.652 6.689 -3.09 C 6.689 -3.09 5.676 3.04 0 0" style="fill: rgb(128, 36, 25); fill-opacity: 1;"/>
      </g>
    </g>
    <g style="clip-path: url(#clippath2);">
      <g transform="translate(157.1284 317.076)">
        <path d="M 0 0 C 0 0 -2.078 -4.854 -3.074 -5.184 C -4.713 -5.725 -3.803 -7.36 -3.16 -8.212 C -3.16 -8.212 -8.091 -5.461 -5.3 -4.604 C -3.507 -4.054 0 0 0 0" style="fill: rgb(128, 36, 25); fill-opacity: 1;"/>
      </g>
    </g>
    <g style="clip-path: url(#clippath2);">
      <g transform="translate(152.0573 307.0588)">
        <path d="M 0 0 C 1.549 -0.161 7.659 -0.671 9.691 -1.021 C 11.75 -1.376 9.658 -7.686 4.258 -7.338 C -0.789 -7.013 -2.039 0.211 0 0" style="fill: rgb(128, 36, 25); fill-opacity: 1;"/>
      </g>
    </g>
    <g style="clip-path: url(#clippath2);">
      <g transform="translate(151.4074 306.7659)">
        <path d="M 0 0 C 0.155 0.212 0.372 0.322 0.65 0.293 C 2.199 0.132 8.309 -0.378 10.341 -0.728 C 10.733 -0.796 10.974 -1.079 11.071 -1.491 C 10.146 -2.222 8.38 -2.367 4.603 -2.01 C 1.677 -1.734 0.482 -0.796 0 0" style="fill: rgb(255, 255, 255); fill-opacity: 1;"/>
      </g>
    </g>
  </g>
</svg>