<?xml version="1.0" encoding="utf-8"?>
<svg viewBox="0 0 500 500" xmlns="http://www.w3.org/2000/svg">
  <g transform="matrix(1.213277, 0, 0, 1.213277, -58.852661, -5.358304)" style="">
    <g style="" transform="matrix(0.759714, 0, 0, 0.759714, 56.886547, 19.827835)">
      <g transform="matrix(0.031945, 0, 0, -0.031945, -154.546463, 627.082397)" id="g18" style="">
        <path id="path20" style="fill:#ffffff;fill-opacity:1;fill-rule:nonzero;stroke:none" d="m 14828.3,12801.5 c 0,0 367,-1134.6 1056.2,-1898 386.4,-427.9 415.5,-830.9 149.6,-1071.84 -265.9,-240.94 -813,-392.75 -1282.8,28.18 -469.9,420.96 -576,2223.46 -576,2223.46 l 653,718.2"/>
      </g>
      <g transform="matrix(0.031944, 0, 0, -0.031944, -154.546463, 627.082397)" id="g22" style="">
        <path id="path24" style="fill:#ffffff;fill-opacity:1;fill-rule:nonzero;stroke:none" d="m 16041.3,9838.1 c -2.1,-2.12 -4.3,-4 -6.6,-6.12 -266,-241.07 -813.1,-392.88 -1283,28.24 -362.3,324.68 -508.3,1470.68 -556.1,1978.18 -14.3,151 -19.7,245.3 -19.7,245.3 l 653,718.1 c 0,0 366.8,-1134.5 1056.1,-1897.9 383.2,-424.5 415,-824.3 156.3,-1065.8"/>
      </g>
      <g transform="matrix(0.031257, 0, 0, -0.031257, -154.546463, 627.082397)" id="g26" style="">
        <path id="path28" style="fill:#b2b2d4;fill-opacity:1;fill-rule:nonzero;stroke:none" d="m 16300,10353.7 c -93.6,9.8 -188,18.1 -282.9,24.8 -24.6,33.2 -49.4,64.8 -74.1,94.8 -179.3,217.5 -372.4,375.1 -514.6,475.3 0.9,7.8 1.9,15.7 2.8,23.6 110.4,43.6 195.6,139 224.1,257.3 121.1,-188.7 258.1,-375.1 410.5,-543.9 102.2,-113.1 179.8,-224.5 234.2,-331.9 m -900.7,1317.4 c -1.8,0.5 -3.5,1 -5.3,1.5 -0.6,4 -1.2,8.1 -1.8,12.1 2.4,-4.5 4.7,-9.1 7.1,-13.6"/>
      </g>
      <g transform="matrix(0.03213, 0, 0, -0.03213, -154.546463, 627.082397)" id="g30" style="">
        <path id="path32" style="fill:#000072;fill-opacity:1;fill-rule:nonzero;stroke:none" d="m 15314.5,9465.87 c -223.4,0 -467.1,76.46 -697.2,282.61 -484,433.62 -592.4,2186.42 -596.8,2260.82 -2.4,40.3 28.3,74.9 68.7,77.3 39.7,2.5 74.9,-28.4 77.3,-68.8 1,-17.6 109,-1766.7 548.4,-2160.39 446,-399.61 948.6,-235.81 1177.6,-28.26 242.6,219.75 183.6,588.65 -153.9,962.35 -687.8,761.9 -1050.4,1866.9 -1065.5,1913.6 -12.4,38.4 8.7,79.6 47.1,92 38.4,12.5 79.7,-8.6 92.1,-47 3.6,-11.2 368.4,-1122.4 1034.9,-1860.5 397.8,-440.7 452.8,-888.5 143.5,-1168.85 -149.1,-135.13 -396.8,-254.82 -676.2,-254.88"/>
      </g>
      <g transform="matrix(0.031961, 0, 0, -0.031961, -154.546463, 627.082397)" id="g34" style="">
        <path id="path36" style="fill:#ffffff;fill-opacity:1;fill-rule:nonzero;stroke:none" d="m 14837.9,10753.6 c 0,0 1462.1,-750.4 1065,-2315.24 -266.5,-1050.25 -174.5,-797.67 -174.5,-797.67 l -2906.4,761.21 754.6,2881.1 1261.3,-529.4"/>
      </g>
      <g transform="matrix(0.031783, 0, 0, -0.031783, -154.546463, 627.082397)" id="g38" style="">
        <path id="path40" style="fill:#000072;fill-opacity:1;fill-rule:nonzero;stroke:none" d="m 13009.6,8516.66 2720.2,-712.44 c 1.7,7.62 3.4,15.43 5.2,23.48 30.3,138.97 86,368.19 165.5,681.39 157.2,619.48 35.1,1179.81 -362.7,1665.61 -287,350.3 -622.7,535.3 -656.9,553.7 l -1164.1,488.6 -707.2,-2700.34 m 2795.3,-954.85 c -12.1,0 -22.5,2.3 -30,4.61 -30.3,9.34 -48.5,24.19 -58.2,45.6 l -2846.6,745.5 c -50.6,13.3 -80.8,64.99 -67.6,115.55 l 758.9,2897.33 c 6.9,26.5 25,48.7 49.6,60.9 24.6,12.1 53.3,13.1 78.6,2.4 l 1268.4,-532.4 c 2.2,-0.9 4.4,-2 6.5,-3.1 15.8,-8 388.8,-202.1 715.1,-598 303.7,-368.47 620.4,-986.41 404.4,-1837.71 -118.4,-466.43 -162.5,-662.59 -178.8,-744.97 8.1,-21.23 8.4,-44.77 0.5,-66.35 -26.8,-73.51 -69.2,-89.36 -100.8,-89.36"/>
      </g>
      <g transform="matrix(0.022545, 0, 0, -0.022545, -154.546463, 627.082397)" id="g42" style="">
        <path id="path44" style="fill:#ffffff;fill-opacity:1;fill-rule:nonzero;stroke:none" d="m 11692.2,15512.1 c -2402,-766.4 -1236.5,-4404 761.3,-3880.1 1168.5,306.2 1373.6,1016.5 1958.3,1472.9 l 1.1,0.9 c 584.3,455.2 1275,227.7 1275,227.7 0,0 612.1,754.7 -353.7,805.4 -483.4,25.5 -861.2,-77.8 -1172,-237.9 -718.7,-370.3 -1078.3,-1045.6 -1556.9,-1139.5 -844.6,-165.9 -1228.4,1002.6 -411.3,1391.7 506.1,241.1 713.6,629.6 588.1,1014.4 -97.2,297.1 -419.4,558.3 -1089.9,344.5"/>
      </g>
      <g transform="matrix(0.02096, 0, 0, -0.02096, -154.546463, 627.082397)" id="g46" style="">
        <path id="path48" style="fill:#b2b2d4;fill-opacity:1;fill-rule:nonzero;stroke:none" d="m 16299,14543 c -302.3,151.6 -650.1,238.6 -1042.2,261.1 223.6,121.3 480.1,212.3 787,248.1 68.6,-185.6 154.1,-355.6 256.2,-509.1 -0.4,0 -0.7,-0.1 -1,-0.1"/>
      </g>
      <g transform="matrix(0.021104, 0, 0, -0.021104, -154.546463, 627.082397)" id="g50" style="">
        <path id="path52" style="fill:#b2b2d4;fill-opacity:1;fill-rule:nonzero;stroke:none" d="m 12896.2,12514.9 c -781.8,0 -1382.3,667.8 -1602.5,1426.3 -250.7,863.3 -50.3,1878.1 905.5,2358.8 -1331.3,-1085.6 -623.4,-3469.3 812.9,-3780.2 -39.1,-3.3 -77.7,-4.9 -115.9,-4.9"/>
      </g>
      <g transform="matrix(0.022285, 0, 0, -0.022285, -154.546463, 627.082397)" id="g54" style="">
        <path id="path56" style="fill:#000072;fill-opacity:1;fill-rule:nonzero;stroke:none" d="m 12283.7,15637.5 c -121.6,0 -260.5,-24.1 -414.1,-73.1 -1176.3,-375.3 -1437.5,-1456.9 -1174.6,-2362.2 240.6,-828.5 960.1,-1542.5 1869.6,-1304 771.2,202.1 1105.4,586.7 1428.6,958.7 151.3,174.3 308,354.6 503.6,507.3 512.4,400.1 1090.9,328.8 1318.2,278.8 69.6,108.6 145.6,274 101.2,373.3 -38.8,86.7 -184.4,140.9 -410.1,152.8 -976.7,51.3 -1487.3,-432.9 -1937.9,-859.9 -268.5,-254.6 -500.5,-474.5 -789.7,-531.3 -516,-101.4 -874.3,224.6 -988.5,570.2 -118.2,357.8 -15.8,852.1 488.2,1092.2 436.9,208 633,530.4 524.6,862.3 -72.1,220.7 -254.5,334.9 -519.1,334.9 m -77.3,-4057 c -869.5,-0.1 -1531.4,722.5 -1770.6,1546.4 -289.8,997.7 9.7,2266.5 1351.7,2694.7 754.4,240.9 1151.6,-67 1271.9,-435.2 152.2,-466 -102.6,-921.9 -665,-1189.8 -358.4,-170.6 -433.1,-506.6 -348,-763.8 80.8,-244.7 322.4,-460 680,-390 212.5,41.7 418,236.6 656.1,462.3 465.8,441.5 1045.4,991.2 2137.8,933.6 342.1,-18 558.3,-123.3 642.6,-313 137.1,-308.1 -153.5,-680.4 -187.1,-721.7 l -58.6,-72.3 -88.3,29 c -10.1,3.2 -642.6,199.2 -1166,-209.3 -175.1,-136.7 -316.4,-299.3 -466,-471.5 -333.7,-384.2 -712,-819.6 -1563.8,-1042.8 -146.8,-38.6 -289.4,-56.6 -426.7,-56.6"/>
      </g>
      <g transform="matrix(0.020235, 0, 0, -0.020235, -154.546463, 627.082397)" id="g58" style="">
        <path id="path60" style="fill:#1389ea;fill-opacity:1;fill-rule:nonzero;stroke:none" d="m 16300,8912.21 -713.6,82.67 c -322.8,37.44 -598.9,249.04 -719.1,551.02 v 0 c -357.7,899.2 -462.5,1879.1 -303,2833.6 53.5,320.6 278.6,585.8 586.3,690.6 l 679.8,231.7 469.6,-4389.59"/>
      </g>
      <g transform="matrix(0.019397, 0, 0, -0.019397, -154.546463, 627.082397)" id="g66" style="">
        <path id="path68" style="fill:#65b2f1;fill-opacity:1;fill-rule:nonzero;stroke:none" d="m 15598.3,10340.7 c -30.1,23.3 -58.9,48.5 -86,75.3 -72.8,235.3 -129,474.8 -168.7,716.8 35,-16.9 72,-34.4 110.8,-51.9 31,-249.3 79.1,-496.6 143.9,-740.2 m -311.6,1275.5 c -30.5,423 -11,850.2 59.5,1272.4 46.5,278.5 241.5,508.1 508.7,599.2 l 445.1,151.7 c -13.1,-62.1 -25.3,-124.5 -36.6,-186.9 l -164.3,-56 c -320.8,-109.3 -555.7,-386 -611.6,-720.3 -53.4,-320.1 -78.4,-643 -75.3,-964.8 -44.7,-32.8 -86.6,-64.8 -125.5,-95.3"/>
      </g>
      <path id="path70" style="fill: rgb(97, 151, 218); fill-opacity: 1; fill-rule: nonzero; stroke: none; stroke-width: 0.133333;" d="M 134.734 423.278 C 134.238 422.649 133.829 421.943 133.524 421.174 C 132.945 419.721 132.425 418.247 131.966 416.759 C 132.266 417.055 132.583 417.332 132.915 417.589 C 133.428 419.51 134.033 421.407 134.734 423.278"/>
      <g transform="matrix(0.022066, 0, 0, -0.022066, -154.546463, 627.082397)" id="g72" style="">
        <path id="path74" style="fill:#f91228;fill-opacity:1;fill-rule:nonzero;stroke:none" d="m 12753.5,13600 c 340.4,-163 1945.8,-915.5 2011.9,-1876.9 l 1534.6,874.6 c -9.5,46.3 -22.1,94.4 -37.7,143.4 v 0.3 c -226.4,703.6 -1124.9,1636 -3451.3,944.9 -17.3,-5 -34.6,-10.3 -52.2,-15.5 -33.1,-10 -36.5,-55.8 -5.3,-70.8"/>
      </g>
      <g transform="matrix(0.020094, 0, 0, -0.020094, -154.546463, 627.082397)" id="g76" style="">
        <path id="path78" style="fill:#dc132c;fill-opacity:1;fill-rule:nonzero;stroke:none" d="m 16027.7,13680.7 c -286.2,372.4 -793.4,796.5 -1663.1,1243.4 26,5.2 51.9,10.1 77.6,14.9 451,-153.1 1046.9,-471.1 1417.1,-795 142.3,-124.5 283.6,-200.5 440.7,-239.6 -110.7,-85.9 -201.3,-161.7 -272.3,-223.7"/>
      </g>
      <g transform="matrix(0.021354, 0, 0, -0.021354, -154.546463, 627.082397)" id="g80" style="">
        <path id="path82" style="fill:#fb717e;fill-opacity:1;fill-rule:nonzero;stroke:none" d="m 16113.2,13611.5 c -387,295.3 -957,522.6 -1721.4,522.6 -246.9,0 -513.7,-23.7 -801.6,-76.4 -20.8,7.1 -41.3,13.8 -61.5,20.1 450.3,116.2 865,174.3 1237.7,174.3 482.3,0 894.4,-97.4 1221.7,-292 123.5,-73.5 226.3,-155 311.9,-239.2 -64.6,-36.8 -126.8,-73.4 -186.8,-109.4"/>
      </g>
      <path id="path84" style="fill: rgb(234, 113, 128); fill-opacity: 1; fill-rule: nonzero; stroke: none; stroke-width: 0.133333;" d="M 173.068 369.805 C 172.736 369.631 172.397 369.459 172.06 369.288 C 172.495 369.173 172.929 369.06 173.358 368.947 C 173.865 369.107 174.381 369.275 174.906 369.452 C 174.297 369.566 173.683 369.682 173.068 369.805"/>
      <g transform="matrix(0.022267, 0, 0, -0.022267, -154.546463, 627.082397)" id="g86" style="">
        <path id="path88" style="fill:#000072;fill-opacity:1;fill-rule:nonzero;stroke:none" d="m 14631.9,11482 c -70.4,0 -129.7,54.6 -134.6,125.8 -22.2,321.2 -298.6,974.3 -1901.5,1739.8 l -15.9,7.5 c -64.8,31 -103.1,97.3 -97.7,169 5.4,71.7 53.3,131.5 122,152.4 1215.1,370.3 2179.2,351.1 2865.7,-57.1 604.2,-359.3 771.4,-894.8 815.2,-1108.4 14.9,-73.1 -32.2,-144.4 -105.3,-159.4 -73.1,-14.8 -144.4,32 -159.4,105.1 -36.6,178.5 -177,626.3 -688.5,930.5 -565.5,336.2 -1394.5,369.7 -2407.9,99.8 1461.8,-742.4 1812.2,-1417.2 1842.9,-1860.6 5,-74.4 -51.1,-139 -125.6,-144.1 -3.2,-0.2 -6.3,-0.3 -9.4,-0.3"/>
      </g>
      <g transform="matrix(0.022732, 0, 0, -0.022732, -154.546463, 627.082397)" id="g90" style="">
        <path id="path92" style="fill:#d25658;fill-opacity:1;fill-rule:nonzero;stroke:none" d="m 16292.4,7831.76 c 7.6,-707.27 -577,-1996.29 -3135.1,-1784.46 -33.5,2.82 -46.3,45.65 -19.7,66.23 289.6,224.41 1653.6,1309.69 1519.1,2235.4 l 1635.7,-517.17"/>
      </g>
      <g transform="matrix(0.022725, 0, 0, -0.022725, -154.546463, 627.082397)" id="g94" style="">
        <path id="path96" style="fill:#f91228;fill-opacity:1;fill-rule:nonzero;stroke:none" d="m 13161.9,6049.31 c -33.5,2.98 -46.3,45.74 -19.6,66.42 148.2,114.97 578.6,455.9 945,885.67 346.4,406.02 635.6,891.62 575.7,1340.49 -0.4,3.23 -1,6.7 -1.3,9.93 l 9.9,-3.15 1626.3,-514.13 c 2.1,-198.59 -42.3,-443.08 -164.4,-687.32 -311.6,-625.88 -1130.7,-1250.18 -2971.6,-1097.91"/>
      </g>
      <g transform="matrix(0.022286, 0, 0, -0.022286, -154.546463, 627.082397)" id="g98" style="">
        <path id="path100" style="fill:#c8142f;fill-opacity:1;fill-rule:nonzero;stroke:none" d="m 15252.2,7046.88 c -225.3,0 -470.2,20.16 -735.6,64.44 186,226.27 350.2,471.43 455.4,722 253.6,-137.05 698.6,-348.31 1328,-541.69 -15.7,-28.51 -32.6,-57.27 -51.1,-86.11 -279.2,-99.01 -609.3,-158.64 -996.7,-158.64"/>
      </g>
      <g transform="matrix(0.02291, 0, 0, -0.02291, -154.546463, 627.082397)" id="g102" style="">
        <path id="path104" style="fill:#000072;fill-opacity:1;fill-rule:nonzero;stroke:none" d="m 13597.5,5845.87 c -176.5,0 -360.7,7.88 -552.8,23.88 -69.6,5.74 -127.4,52.75 -147.3,119.78 -19.8,66.95 3,137.75 58.1,180.49 371.7,287.97 1574.9,1290.04 1457.8,2095.46 -10.4,71.7 39.3,138.32 111.1,148.82 72.1,10.42 138.4,-39.38 148.9,-111.08 118.9,-818.63 -800.4,-1719.04 -1365.7,-2187.51 1004.4,-46.27 1779,157.36 2249,594.73 450,418.91 480,916.66 478.4,1059.25 -0.7,72.53 57.4,131.93 129.9,132.75 72.4,2.21 131.9,-57.35 132.7,-129.88 2.4,-217.66 -47.6,-775.55 -562.1,-1254.35 -480.3,-446.97 -1198,-672.34 -2138,-672.34"/>
      </g>
      <g transform="matrix(0.03924, 0, 0, -0.03924, -154.546463, 627.082397)" id="g106" style="">
        <path id="path108" style="fill:#ffffff;fill-opacity:1;fill-rule:nonzero;stroke:none" d="m 16300,6584.83 c 0,0 -891.3,-1967.14 -3905.9,-2501.16 -2567.85,-454.79 -3988.94,512.03 -3988.94,512.03 -282.65,567.74 -392.44,1202.59 -321.93,1826.75 16.62,146.66 43.2,292.32 79.61,436.59 0,0 293.66,308.52 910.07,630.63 242.51,126.79 534.97,255.69 879.27,368.68 538.02,176.65 1203.02,314.31 2001.22,344.68 45,1.62 89.8,3.06 134.3,3.68 189.1,4.17 371.4,0.91 546.7,-8.57 C 15204.7,8059.76 16300,6584.83 16300,6584.83"/>
      </g>
      <g transform="matrix(0.021542, 0, 0, -0.021542, -154.546463, 627.082397)" id="g110" style="">
        <path id="path112" style="fill:#000072;fill-opacity:1;fill-rule:nonzero;stroke:none" d="m 16218.4,13635.1 c -43.7,41 -85.4,83 -124.6,126.7 21.6,11.2 43.1,22.5 64.7,33.6 44.8,-40.7 92.2,-78.9 141.5,-115.2 -27.6,-15.1 -54.8,-30.2 -81.6,-45.1"/>
      </g>
      <g transform="matrix(0.030285, 0, 0, -0.030285, -154.546463, 627.082397)" id="g114" style="">
        <path id="path116" style="fill:#b2b2d4;fill-opacity:1;fill-rule:nonzero;stroke:none" d="m 14918.3,6153.91 c -529.9,0 -1003.4,302.3 -1235.5,757.96 -287,27.31 -505.9,96.51 -733.6,326.13 -133.4,134.43 -363.6,454.67 -471.8,1190.41 -90,611.74 -464.4,873.95 -780.6,1132.07 28.9,15.76 58.4,31.59 88.5,47.41 74.6,-43.01 151.5,-83.1 227.4,-122.63 374.8,-195.43 728.9,-380.01 771.6,-865.45 51.5,-584.25 223.3,-891.14 410,-1179.11 166.1,-256.32 527.9,-435.86 880.2,-437.04 50.1,-57.03 105.4,-110.16 165.7,-158.82 237.4,-191.52 526.9,-293.3 827.7,-293.3 47.5,0 95.3,2.55 143.2,7.69 351.2,37.55 666.7,209.65 888.5,484.52 84.7,105.01 151.9,220.19 200.4,342.09 -71.2,-632.48 -573.1,-1153.48 -1232.1,-1223.92 -50.3,-5.34 -100.2,-8.01 -149.6,-8.01"/>
      </g>
      <g transform="matrix(0.034447, 0, 0, -0.034447, -154.546463, 627.082397)" id="g118" style="">
        <path id="path120" style="fill:#b2b2d4;fill-opacity:1;fill-rule:nonzero;stroke:none" d="m 12589.2,4677.08 c -1764.7,0.06 -2800.98,587.38 -2986.72,702.24 -99.03,216.07 -176.24,440 -231.13,669.87 41.63,-3.82 83.54,-5.89 125.5,-5.89 41.79,0 83.75,2.07 125.39,6.55 184.47,19.64 351.11,85.22 492.26,165.22 206,-432.97 583.6,-771.43 1049.9,-927.31 461.2,-154.2 1114.8,-289.19 1928,-289.19 526.8,0 1120.7,56.64 1772.6,201.45 452.6,100.56 949.6,603.64 1085.7,1155.33 218,883.38 36.4,1739.27 25.8,2115.43 245.7,-973.91 323.5,-1973.02 231.6,-2979.83 -568.3,-284.16 -1258.9,-527.63 -2091.7,-675.22 -557.2,-98.71 -1067,-138.65 -1527.2,-138.65 M 9271.5,6909.99 c 0.98,288.97 36.45,576.46 106.07,858.88 56.97,55.38 269.71,252.14 644.13,484.15 -109.08,-433.08 -138.71,-878.64 -91.13,-1315.75 -90.79,20.95 -187.31,33.94 -287.11,33.94 -39.29,0 -79.06,-2.02 -119.22,-6.33 -1.31,-0.17 -2.62,-0.28 -3.93,-0.44 -84.68,-9.38 -168.11,-28.59 -248.81,-54.45"/>
      </g>
      <g transform="matrix(0.039143, 0, 0, -0.039143, -154.546463, 627.082397)" id="g122" style="">
        <path id="path124" style="fill:#f91228;fill-opacity:1;fill-rule:nonzero;stroke:none" d="m 14329.9,4721.17 c 115.8,1109.73 -4.2,2231.85 -352.2,3292.22 1197.6,-322.44 1904.8,-925.39 2200.2,-1228.48 104.2,-106.98 122.1,-270.77 42.9,-397.39 -224.4,-358.45 -788.1,-1097.68 -1890.9,-1666.35"/>
      </g>
      <g transform="matrix(0.039071, 0, 0, -0.039071, -154.546463, 627.082397)" id="g126" style="">
        <path id="path128" style="fill:#ffffff;fill-opacity:1;fill-rule:nonzero;stroke:none" d="m 16300,6570.99 c 0,58.6 -16,116.85 -47,168.04 31,-51.19 47,-109.44 47,-168.04"/>
      </g>
      <g transform="matrix(0.039072, 0, 0, -0.039072, -154.546463, 627.082397)" id="g130" style="">
        <path id="path132" style="fill:#fb6573;fill-opacity:1;fill-rule:nonzero;stroke:none" d="m 16227.8,6363.44 c 7.2,60.28 -2.7,121.76 -28.9,176.99 10.4,16.64 20.1,32.47 29.2,47.43 l 0.8,1.06 c -11.2,-13.09 -22.7,-26.27 -34.4,-39.5 -14.5,28.29 -33.4,54.84 -56.5,78.56 -274.2,281.47 -903.4,820.92 -1949.2,1155.5 -30.9,71.58 -62.9,144.71 -96,219.7 -0.1,0.05 -0.2,0.1 -0.3,0.1 0,0.09 0,0.09 -0.1,0.14 1146,-328.27 1826.8,-909.97 2115.3,-1206.01 17.5,-17.99 32.6,-37.62 45.2,-58.4 31.1,-51.19 47.1,-109.44 47.1,-168.04 0,-59.17 -16.2,-118.67 -49.4,-171.69 -7.2,-11.54 -14.8,-23.52 -22.8,-35.84"/>
      </g>
      <g transform="matrix(0.038829, 0, 0, -0.038829, -154.546463, 627.082397)" id="g134" style="">
        <path id="path136" style="fill:#ae0d3e;fill-opacity:1;fill-rule:nonzero;stroke:none" d="m 14543.8,4983.16 c 73.4,968.02 -26.9,1927.57 -298.7,2859.1 10.8,-3.39 21.5,-6.78 32.2,-10.21 274.7,-636.93 459.9,-1150.37 532.9,-1774.42 23.8,-203.26 195.8,-336.57 377.2,-336.52 74.5,0 150.6,22.46 218.6,71.78 369.5,268.08 670.8,549.6 889.5,797.4 1.6,-3 3,-6.01 4.5,-9.06 -216.7,-345.57 -744.1,-1038.21 -1756.2,-1598.07"/>
      </g>
      <g transform="matrix(0.038901, 0, 0, -0.038901, -154.546463, 627.082397)" id="g138" style="">
        <path id="path140" style="fill:#af4773;fill-opacity:1;fill-rule:nonzero;stroke:none" d="m 16269.8,6569.06 c -1.4,3.04 -2.9,6.04 -4.4,9.04 11.8,13.28 23.3,26.52 34.6,39.66 l -0.9,-1.06 c -9.1,-15.03 -18.8,-30.92 -29.3,-47.64 m -2018.9,1248.5 c -10.7,3.43 -21.4,6.81 -32.2,10.19 -20.5,70.35 -42,140.55 -64.5,210.57 0.1,0 0.2,-0.05 0.3,-0.1 33.2,-75.33 65.4,-148.77 96.4,-220.66"/>
      </g>
      <g transform="matrix(0.039345, 0, 0, -0.039345, -154.546463, 627.082397)" id="g142" style="">
        <path id="path144" style="fill:#000072;fill-opacity:1;fill-rule:nonzero;stroke:none" d="m 14021.8,7859.99 c 304.1,-984.75 413,-2002.31 324.1,-3028.9 986.7,540.19 1503.4,1207.16 1727.3,1565.2 59.7,95.4 46.6,218.36 -31.9,299.05 -294.6,302.63 -940.7,845.3 -2019.5,1164.65 z m 234.4,-3239.57 c -15.1,0 -30.2,4.49 -43.1,13.33 -23.2,15.86 -35.8,43.14 -32.9,71.04 114.8,1100.63 -1.9,2191.95 -347,3243.57 -8.7,26.7 -2.1,56.04 17.2,76.43 19.3,20.36 48.3,28.57 75.4,21.21 1195.9,-321.97 1907.4,-917.62 2225.1,-1244.04 127.7,-131.27 149.1,-331.43 52,-486.73 -241.5,-386.13 -811,-1118.69 -1911.7,-1686.3 -11,-5.69 -23,-8.51 -35,-8.51"/>
      </g>
      <g transform="matrix(0.034878, 0, 0, -0.034878, -154.546463, 627.082397)" id="g146" style="">
        <path id="path148" style="fill:#000072;fill-opacity:1;fill-rule:nonzero;stroke:none" d="m 9522.99,5230.06 c 86.12,-53.89 473.15,-281.51 1125.51,-458.7 684.3,-185.81 1808.8,-352.6 3280.6,-91.94 756.4,133.97 1453.3,360.74 2072,674.21 120,1210.46 -8.3,2410.42 -381.6,3568.39 -671,175.51 -1400.1,249.72 -2167.8,220.68 -1493.7,-56.48 -2557.5,-457.26 -3186.9,-783.61 -600.19,-311.1 -930.31,-615.47 -1003.12,-686.22 -100.55,-407.79 -128.9,-826.29 -84.23,-1244.25 44.73,-417.92 160.92,-821.06 345.54,-1198.56 m 2918.21,-857.59 c -779.4,0 -1403.2,113.6 -1847.1,234.9 -765.88,209.36 -1169.56,480.32 -1186.38,491.8 -12.23,8.29 -22.14,19.67 -28.72,32.92 -199.82,401.96 -325.33,832 -373.02,1278.15 -47.75,446.26 -16.06,893.05 94.25,1327.94 3.66,14.33 10.94,27.54 21.13,38.21 14.01,14.76 351.25,364.93 1055.54,731.49 646.3,336.27 1737.9,749.33 3268.2,807.21 802.5,30.5 1564.2,-49.9 2264.3,-238.52 28.1,-7.54 50.5,-28.72 59.5,-56.36 396.8,-1209.23 531.1,-2463.98 399.2,-3729.52 -2.6,-29.05 -19.8,-55.4 -46.3,-69.09 -644.5,-332.44 -1372.1,-571.98 -2162.6,-712.03 -555.7,-98.41 -1063.3,-137.1 -1518,-137.1"/>
      </g>
      <g transform="matrix(0.02043, 0, 0, -0.02043, -154.546463, 627.082397)" id="g150" style="">
        <path id="path152" style="fill:#000072;fill-opacity:1;fill-rule:nonzero;stroke:none" d="m 16144.5,8679.89 c -5.6,0 -11.3,0.27 -17.1,1.01 l -706.8,81.79 c -374,43.43 -692.9,287.69 -832,637.67 -364.3,915.54 -471,1913.24 -308.7,2885.14 62,371.4 322,677.7 678.4,799.1 l 673.5,229.5 c 77,26.5 160.6,-14.9 186.8,-91.9 26.4,-76.9 -14.9,-160.6 -91.8,-186.8 l -673.4,-229.5 c -253.8,-86.5 -438.9,-304.5 -483,-568.9 -153.5,-918.9 -52.6,-1862.1 291.8,-2727.89 99.1,-249.05 326,-422.94 592.4,-453.85 l 706.7,-81.88 c 80.7,-9.29 138.7,-82.44 129.3,-163.22 -8.6,-74.98 -72.3,-130.27 -146.1,-130.27"/>
      </g>
      <path id="path154" style="fill: rgb(255, 6, 30); fill-opacity: 1; fill-rule: nonzero; stroke: none; stroke-width: 0.133333;" d="M 24.756 416.793 C 43.766 414.759 56.714 420.067 67.991 425.374 C 78.682 430.405 87.871 435.436 99.299 434.214 C 122.782 431.703 124.957 406.075 124.957 406.075 C 124.957 406.075 117.41 381.487 93.927 383.998 C 70.445 386.511 61.786 412.832 24.756 416.793"/>
      <path id="path156" style="fill: rgb(255, 6, 30); fill-opacity: 1; fill-rule: nonzero; stroke: none; stroke-width: 0.133333;" d="M 24.756 416.793 C 43.766 414.759 56.714 420.067 67.991 425.374 C 78.682 430.405 87.871 435.436 99.299 434.214 C 122.782 431.703 124.957 406.075 124.957 406.075 C 124.957 406.075 117.41 381.487 93.927 383.998 C 70.445 386.511 61.786 412.832 24.756 416.793"/>
      <path id="path158" style="fill: rgb(255, 106, 120); fill-opacity: 1; fill-rule: nonzero; stroke: none; stroke-width: 0.133333;" d="M 45.051 415.683 C 43.679 415.442 42.272 415.237 40.825 415.075 C 52.731 411.061 61.089 404.603 68.719 398.707 C 77.015 392.297 84.18 386.761 94.11 385.699 C 95.182 385.584 96.234 385.527 97.266 385.527 C 102.207 385.527 106.682 386.843 110.652 389.458 C 107.467 387.946 103.747 386.992 99.423 386.992 C 98.356 386.992 97.252 387.049 96.111 387.172 C 77.029 389.212 67.733 406.972 45.051 415.683"/>
      <path id="path160" style="fill: rgb(255, 212, 0); fill-opacity: 1; fill-rule: nonzero; stroke: none; stroke-width: 0.133333;" d="M 62.01 412.678 C 73.028 411.5 80.64 415.415 87.274 419.331 C 93.622 423.077 99.075 426.823 105.759 426.109 C 119.431 424.647 120.345 406.438 120.345 406.438 C 120.345 406.438 115.6 388.836 101.928 390.299 C 88.258 391.761 83.569 410.372 62.01 412.678"/>
      <path id="path162" style="fill: rgb(0, 0, 114); fill-opacity: 1; fill-rule: nonzero; stroke: none; stroke-width: 0.133333;" d="M 40.825 415.075 C 53.31 416.478 62.846 421.023 71.549 425.171 C 81.015 429.681 89.189 433.579 99.117 432.515 C 108.212 431.541 115.024 426.831 119.365 418.514 C 122.239 413.007 123.049 407.629 123.216 406.261 C 122.765 404.962 120.835 399.875 116.861 395.101 C 110.86 387.889 103.205 384.724 94.11 385.699 C 84.18 386.761 77.015 392.297 68.719 398.707 C 61.089 404.603 52.731 411.061 40.825 415.075 M 95.859 436.107 C 86.551 436.108 78.523 432.282 70.078 428.257 C 58.358 422.67 45.073 416.339 24.937 418.493 C 23.996 418.594 23.156 417.914 23.056 416.975 C 23.049 416.914 23.046 416.852 23.046 416.792 C 23.046 415.929 23.697 415.186 24.574 415.093 C 44.707 412.939 56.354 403.942 66.628 396.002 C 74.973 389.554 82.855 383.464 93.745 382.299 C 103.946 381.209 112.873 384.91 119.566 393.006 C 124.548 399.031 126.51 405.309 126.591 405.573 C 126.655 405.782 126.679 406.002 126.66 406.219 C 126.637 406.495 126.046 413.046 122.452 419.989 C 117.624 429.317 109.68 434.823 99.481 435.913 C 98.251 436.045 97.044 436.107 95.859 436.107"/>
      <g transform="matrix(0.022395, 0, 0, -0.022395, -154.546463, 627.082397)" id="g164" style="">
        <path id="path166" style="fill:#f91228;fill-opacity:1;fill-rule:nonzero;stroke:none" d="m 14801,9305.93 c -888.6,-94.84 -1838.9,514.99 -1838.9,514.99 0,0 3,3.11 8.7,8.31 88.7,85.86 845,794.57 1679.5,884.17 800.7,85.9 1506.1,-424.4 1630.4,-520.2 12.8,-9.9 19.3,-15.3 19.3,-15.3 0,0 -616.3,-778.05 -1499,-871.97"/>
      </g>
      <path id="path168" style="fill: rgb(102, 102, 170); fill-opacity: 1; fill-rule: nonzero; stroke: none; stroke-width: 0.133333;" d="M 126.658 405.911 C 126.658 405.91 126.658 405.91 126.658 405.91 C 127.071 405.533 127.649 405.021 128.37 404.422 C 127.649 405.021 127.07 405.533 126.658 405.911"/>
      <path id="path170" style="fill: rgb(102, 102, 170); fill-opacity: 1; fill-rule: nonzero; stroke: none; stroke-width: 0.133333;" d="M 126.009 406.519 C 126.021 406.508 126.033 406.495 126.048 406.481 C 126.164 406.369 126.37 406.172 126.658 405.91 C 126.658 405.91 126.658 405.91 126.658 405.911 C 126.371 406.173 126.165 406.369 126.049 406.482 C 126.033 406.495 126.021 406.507 126.009 406.519"/>
      <g transform="matrix(0.022395, 0, 0, -0.022395, -154.546463, 627.082397)" id="g172" style="">
        <path id="path174" style="fill:#ffffff;fill-opacity:1;fill-rule:nonzero;stroke:none" d="m 16300,10178 c -0.8,0.6 -7.3,5.9 -19.3,15.2 -90.3,69.6 -487.6,358.2 -1005.4,477.7 0,0.1 0,0.1 0,0.1 517.8,-119.5 915.2,-408.2 1005.5,-477.8 12.7,-9.8 19.2,-15.2 19.2,-15.2 v 0"/>
      </g>
      <g transform="matrix(0.020987, 0, 0, -0.020987, -154.546463, 627.082397)" id="g176" style="">
        <path id="path178" style="fill:#d1d1e5;fill-opacity:1;fill-rule:nonzero;stroke:none" d="m 16300,11386.7 c -149.1,34.5 -307.6,55.7 -471.5,55.7 -64.4,0 -129.7,-3.2 -195.5,-10.3 -2.1,-0.2 -4.3,-0.4 -6.4,-0.7 2.1,0.3 4.3,0.5 6.4,0.7 66,7.1 131.3,10.4 195.7,10.4 163.8,0 322.3,-21.3 471.3,-55.7 0,0 0,0 0,-0.1"/>
      </g>
      <g transform="matrix(0.022395, 0, 0, -0.022395, -154.546463, 627.082397)" id="g180" style="">
        <path id="path182" style="fill:#fb717e;fill-opacity:1;fill-rule:nonzero;stroke:none" d="m 12967.7,9826.29 v 0 c 0.9,0.93 1.9,1.93 3.1,2.94 9.2,8.9 25.4,24.26 47.9,44.9 32.4,29.63 77.9,69.84 134.6,116.92 288.4,238.85 867.5,652.35 1490.9,721.75 2,0.2 4.1,0.4 6.1,0.6 61.6,6.7 122.8,9.7 183.1,9.7 153.6,0 302.1,-19.9 441.9,-52.2 517.8,-119.5 915.1,-408.1 1005.4,-477.7 12,-9.3 18.5,-14.6 19.3,-15.2 v 0 c -0.8,0.6 -7.3,5.9 -19.3,15.2 l -191.9,-21 c -309.8,158.9 -737.5,318.8 -1206.2,318.8 -70.1,0 -141.1,-3.5 -212.7,-11.2 -561.2,-60.3 -1091.9,-361.9 -1459.4,-624.21 l -239.7,-26.36 c -1.2,-1.01 -2.2,-2.01 -3.1,-2.94"/>
      </g>
      <g transform="matrix(0.022395, 0, 0, -0.022395, -154.546463, 627.082397)" id="g184" style="">
        <path id="path186" style="fill:#c8142f;fill-opacity:1;fill-rule:nonzero;stroke:none" d="m 14608.1,9295.86 c -64.5,0 -129,3.18 -193,9.06 -96.6,8.9 -192.2,23.92 -285.5,43.31 -522,108.69 -971.2,355.86 -1117.5,442.23 -32.5,19.22 -50,30.46 -50,30.46 0,0 1.9,1.93 5.6,5.37 -3.6,-3.44 -5.5,-5.37 -5.5,-5.37 0,0 40.3,-26.01 112.1,-66.13 42.4,32.48 87.9,66.3 136.2,100.8 l 2878.3,316.61 c 49.8,-25.6 96.5,-51.1 139.9,-76 45.6,49.6 70.3,80.5 71.3,81.8 v -0.1 c 0,0 -616.3,-778.05 -1499,-871.97 -64,-6.89 -128.6,-10.07 -192.9,-10.07"/>
      </g>
      <g transform="matrix(0.022395, 0, 0, -0.022395, -154.546463, 627.082397)" id="g188" style="">
        <path id="path190" style="fill:#ca5b70;fill-opacity:1;fill-rule:nonzero;stroke:none" d="m 13074.3,9754.79 c -71.8,40.12 -112.1,66.13 -112.1,66.13 0,0 1.9,1.93 5.5,5.37 0.9,0.93 1.9,1.93 3.1,2.94 l 239.7,26.36 c -48.3,-34.5 -93.8,-68.32 -136.2,-100.8 m 3154.4,341.41 c -43.4,24.9 -90.1,50.4 -139.9,76 l 191.9,21 c 12,-9.3 18.5,-14.6 19.3,-15.2 -1,-1.3 -25.7,-32.2 -71.3,-81.8"/>
      </g>
      <g transform="matrix(0.022602, 0, 0, -0.022602, -154.546463, 627.082397)" id="g192" style="">
        <path id="path194" style="fill:#000072;fill-opacity:1;fill-rule:nonzero;stroke:none" d="m 13068.3,9754.97 c 293.6,-158.17 961.8,-468.28 1582.9,-402.09 621.5,66.28 1107.3,506.21 1302.3,710.52 -234.2,158.3 -803.7,486.1 -1423.2,419.4 -621,-66.5 -1208.5,-511.03 -1462,-727.83 z m 1405,-677.51 c -847.8,0 -1664.9,517.67 -1701.9,541.46 -33.9,21.79 -56.2,57.8 -60.5,97.79 -4.3,40.17 9.8,80.01 38.4,108.53 33.7,33.51 836.2,823.96 1752.7,922.26 919.7,98.3 1700.3,-533.1 1733.1,-560 56,-46.1 64.9,-128.6 19.8,-185.5 -26.3,-33.22 -655.8,-815.69 -1575.5,-913.82 -68.6,-7.31 -137.4,-10.72 -206.1,-10.72"/>
      </g>
      <g transform="matrix(0.030394, 0, 0, -0.030394, -154.546463, 627.082397)" id="g196" style="">
        <path id="path198" style="fill:#f91228;fill-opacity:1;fill-rule:nonzero;stroke:none" d="m 15146.4,6634.26 c -669.2,-71.62 -1269.7,412.84 -1341.3,1082.08 -71.6,669.18 412.9,1269.71 1082.1,1341.26 669.2,71.61 1269.7,-412.84 1341.3,-1082.08 71.5,-669.18 -412.9,-1269.71 -1082.1,-1341.26"/>
      </g>
      <g transform="matrix(0.029911, 0, 0, -0.029911, -154.546463, 627.082397)" id="g200" style="">
        <path id="path202" style="fill:#ae0d3e;fill-opacity:1;fill-rule:nonzero;stroke:none" d="m 15257.3,6834.92 c -258.9,0 -507.9,87.53 -712.2,252.3 -14.7,11.88 -28.9,24 -42.9,36.38 82.4,22.75 158.1,57.25 225.5,102.81 182.8,-105.45 394,-165.08 616.2,-165.08 44,0 88.4,2.33 133.1,7.1 335,35.88 624.4,202.22 823,442.96 -39.9,-89.61 -91.8,-174.63 -155,-252.99 -190.9,-236.6 -462.3,-384.65 -764.5,-416.95 -41.3,-4.4 -82.4,-6.53 -123.2,-6.53"/>
      </g>
      <g transform="matrix(0.030514, 0, 0, -0.030514, -154.546463, 627.082397)" id="g204" style="">
        <path id="path206" style="fill:#000072;fill-opacity:1;fill-rule:nonzero;stroke:none" d="m 14959.9,8930.47 c -40.1,0 -80.3,-2.15 -120.7,-6.47 -296.3,-31.66 -562.4,-176.78 -749.4,-408.7 -187.1,-231.85 -272.6,-522.59 -241,-818.81 31.8,-296.23 176.9,-562.33 408.7,-749.4 231.8,-187.01 522.5,-272.5 818.9,-240.9 296.2,31.66 562.3,176.78 749.4,408.69 187,231.79 272.5,522.6 240.9,818.82 -31.8,296.22 -176.9,562.32 -408.7,749.4 -200.2,161.51 -444.5,247.37 -698.1,247.37 m -4.7,-2427.93 c -298.5,0 -585.9,101.02 -821.5,291.11 -272.8,220.09 -443.6,533.25 -480.9,881.83 -37.3,348.58 63.4,690.82 283.5,963.64 220.2,272.81 533.3,443.62 881.8,480.89 348.6,37.26 690.9,-63.39 963.7,-283.47 272.8,-220.09 443.6,-533.25 480.9,-881.84 37.3,-348.57 -63.4,-690.81 -283.5,-963.63 -220.2,-272.81 -533.3,-443.62 -881.9,-480.89 -47.5,-5.11 -94.9,-7.64 -142.1,-7.64"/>
      </g>
      <g transform="matrix(0.029547, 0, 0, -0.029547, -154.546463, 627.082397)" id="g208" style="">
        <path id="path210" style="fill:#2d95ea;fill-opacity:1;fill-rule:nonzero;stroke:none" d="m 15545,7294.22 c -437.9,-46.88 -830.9,270.16 -877.7,708.07 -46.9,437.97 270.2,830.91 708.1,877.79 438,46.82 830.9,-270.23 877.8,-708.13 46.8,-437.91 -270.2,-830.91 -708.2,-877.73"/>
      </g>
      <g transform="matrix(0.029213, 0, 0, -0.029213, -154.546463, 627.082397)" id="g212" style="">
        <path id="path214" style="fill:#6cb5f0;fill-opacity:1;fill-rule:nonzero;stroke:none" d="m 15635.7,7475.97 c -130.9,0 -257.9,36.35 -368.9,105.33 6.9,9.58 13.6,19.36 20.2,29.34 17.5,27.02 33.4,54.17 47.6,81.38 99.4,-43.68 208.8,-67.68 322.6,-67.68 28.7,0 57.6,1.54 86.7,4.63 229.7,24.52 426.5,143.16 556.1,313.4 -26.3,-73.15 -64.9,-142.19 -115.2,-204.47 -118,-146.25 -285.9,-237.8 -472.7,-257.81 v 0 c -25.6,-2.77 -51.1,-4.12 -76.4,-4.12"/>
      </g>
      <g transform="matrix(0.029285, 0, 0, -0.029285, -154.546463, 627.082397)" id="g216" style="">
        <path id="path218" style="fill:#306ab0;fill-opacity:1;fill-rule:nonzero;stroke:none" d="m 16300,8194.16 c -128.6,280.73 -412.1,469.43 -730.7,469.43 -28.5,0 -57.4,-1.48 -86.5,-4.62 -68.3,-7.25 -133.7,-22.91 -195.3,-45.83 -21.6,50.45 -44.3,96.92 -66.5,138.45 90.4,57.82 193.5,94.28 303.2,106.03 25.3,2.69 50.4,3.97 75.2,3.97 353.8,0 658.9,-267.7 697.4,-627.26 1.5,-13.41 2.5,-26.82 3.2,-40.17"/>
      </g>
      <g transform="matrix(0.029742, 0, 0, -0.029742, -154.546463, 627.082397)" id="g220" style="">
        <path id="path222" style="fill:#000072;fill-opacity:1;fill-rule:nonzero;stroke:none" d="m 15359.8,8725.47 c -24.4,0 -49.2,-1.26 -74,-3.92 -183.6,-19.65 -348.5,-109.58 -464.4,-253.29 -115.9,-143.65 -168.9,-323.88 -149.3,-507.47 19.6,-183.53 109.6,-348.47 253.2,-464.37 143.8,-115.91 324.1,-168.99 507.5,-149.27 v 0 c 183.5,19.65 348.5,109.58 464.4,253.23 115.9,143.7 168.9,323.88 149.3,507.47 -37.9,354.03 -338.3,617.62 -686.7,617.62 m -2.3,-1584.66 c -203.1,0 -398.7,68.76 -559.1,198.18 -185.8,149.84 -302,363.01 -327.4,600.31 -25.4,237.31 43.1,470.25 193,655.99 149.8,185.73 363,302.01 600.3,327.36 489.9,52.32 930.9,-303.54 983.3,-793.32 52.4,-489.83 -303.5,-930.95 -793.3,-983.34 v 0 c -32.4,-3.41 -64.7,-5.18 -96.8,-5.18"/>
      </g>
      <g transform="matrix(0.028199, 0, 0, -0.028199, -154.546463, 627.082397)" id="g224" style="">
        <path id="path226" style="fill:#4d1c54;fill-opacity:1;fill-rule:nonzero;stroke:none" d="m 16298.5,11557.7 c 0.6,4.6 1.1,9.1 1.5,13.6 0,-0.6 0,-1.3 -0.1,-2 -0.4,-3.8 -0.8,-7.8 -1.4,-11.6"/>
      </g>
      <path id="path228" style="fill: rgb(178, 4, 55); fill-opacity: 1; fill-rule: nonzero; stroke: none; stroke-width: 0.133333;" d="M 94.717 431.212 C 82.487 431.211 72.544 424.285 59.76 419.014 C 69.978 421.061 78.409 421.931 85.366 421.931 C 87.464 421.931 89.425 421.852 91.263 421.701 C 95.516 424.185 99.552 426.198 104.107 426.198 C 104.651 426.198 105.2 426.169 105.759 426.109 C 119.431 424.647 120.345 406.438 120.345 406.438 C 120.345 406.438 119.458 403.148 117.346 399.531 C 117.339 397.811 117.16 396.324 116.972 395.234 C 120.871 399.97 122.769 404.975 123.216 406.261 C 123.193 406.451 123.158 406.719 123.106 407.053 C 121.36 414.42 115.699 429.152 98.184 431.026 C 97.006 431.152 95.852 431.212 94.717 431.212"/>
      <path id="path230" style="fill: rgb(178, 148, 34); fill-opacity: 1; fill-rule: nonzero; stroke: none; stroke-width: 0.133333;" d="M 104.107 426.198 C 99.552 426.198 95.516 424.185 91.263 421.701 C 113.828 419.857 117.375 407.317 117.346 399.531 C 119.458 403.148 120.345 406.438 120.345 406.438 C 120.345 406.438 119.431 424.647 105.759 426.109 C 105.2 426.169 104.651 426.198 104.107 426.198"/>
      <path id="path232" style="fill: rgb(0, 0, 114); fill-opacity: 1; fill-rule: nonzero; stroke: none; stroke-width: 0.133333;" d="M 123.106 407.053 C 123.158 406.719 123.193 406.451 123.216 406.261 C 122.769 404.975 120.871 399.97 116.972 395.234 C 116.763 394.024 116.545 393.305 116.545 393.305 L 117.334 393.035 C 120.592 396.662 122.666 400.568 123.814 403.15 C 123.75 403.71 123.562 405.131 123.106 407.053"/>
      <g transform="matrix(0.027139, 0, 0, -0.027139, -154.546463, 627.082397)" id="g234" style="">
        <path id="path236" style="fill:#ffffff;fill-opacity:1;fill-rule:nonzero;stroke:none" d="m 12572.1,11846.5 c 0,0 -1397.9,-25.6 -1601.6,456.7 -299.3,709 72.3,2957.3 494.4,3484.7 409.9,512.1 1986.7,316.9 1986.7,316.9 l -879.5,-4258.3"/>
      </g>
      <g transform="matrix(0.021407, 0, 0, -0.021407, -154.546463, 627.082397)" id="g238" style="">
        <path id="path240" style="fill:#b2b2d4;fill-opacity:1;fill-rule:nonzero;stroke:none" d="m 15586.6,15164.8 c -631.9,30 -1414.4,168.7 -1549,487.6 -66.9,158.4 -105.5,382.9 -120.8,647.6 46.8,-87 109.9,-150.1 189.3,-189.4 212.1,-104.7 437.9,-150.1 635.4,-150.1 218.7,0 402.6,55.6 495.1,148.2 32.6,32.6 61.8,75.9 87.4,129.8 61.6,-7.2 121.7,-13.1 179.7,-18.1 -11.6,-386.4 16,-738.8 82.9,-1055.6"/>
      </g>
      <g transform="matrix(0.027309, 0, 0, -0.027309, -154.546463, 627.082397)" id="g242" style="">
        <path id="path244" style="fill:#000072;fill-opacity:1;fill-rule:nonzero;stroke:none" d="m 12719.9,15931.3 c -482,0 -1042.7,-63.5 -1240.3,-310.3 -394,-492.4 -759.3,-2679.6 -475.7,-3351.3 119.3,-282.5 887.1,-384.5 1400.2,-387.2 l 831.5,4025.6 c -139.7,12.9 -321.4,23.2 -515.7,23.2 M 12494,11772.9 h 0.3 -0.3 m -57.6,-110.6 c -300.1,0 -1429.1,33 -1635.5,521.7 -318.9,755.4 63.8,3021.2 506.7,3574.6 433.4,541.4 1907.3,376.1 2074,355.5 l 118.5,-14.7 -916.1,-4435 -88,-1.6 c -12.3,-0.3 -32.6,-0.5 -59.6,-0.5"/>
      </g>
      <g transform="matrix(0.023241, 0, 0, -0.023241, -154.546463, 627.082397)" id="g246" style="">
        <path id="path248" style="fill:#ffffff;fill-opacity:1;fill-rule:nonzero;stroke:none" d="m 13909.6,16161.5 -707.5,116.1 c -136.5,22.4 -266.4,-68 -291.8,-204 -66.4,-355.2 -140.8,-988.2 136.6,-1125.2 390.5,-192.9 796.7,-130.1 901.8,-24.9 155.2,155.5 176,685.8 174.7,988.1 -0.6,124.3 -91.2,229.8 -213.8,249.9"/>
      </g>
      <g transform="matrix(0.022457, 0, 0, -0.022457, -154.546463, 627.082397)" id="g250" style="">
        <path id="path252" style="fill:#b2b2d4;fill-opacity:1;fill-rule:nonzero;stroke:none" d="m 14046.6,15467 c -140.3,0 -314,28.7 -489.2,115.2 -118.3,58.5 -160.4,329 -119.6,717.8 28.7,-131.7 83.8,-235.9 179.5,-283.2 189.5,-93.6 382.6,-129 545.4,-129 122.9,0 228.5,20.2 302.4,50.7 -27.6,-232.7 -74.1,-360.9 -118.9,-405.9 -30.7,-30.7 -144.7,-65.6 -299.6,-65.6"/>
      </g>
      <g transform="matrix(0.023426, 0, 0, -0.023426, -154.546463, 627.082397)" id="g254" style="">
        <path id="path256" style="fill:#000072;fill-opacity:1;fill-rule:nonzero;stroke:none" d="m 13056.9,16031.7 c -62.6,0 -118.7,-44.6 -130.5,-107.5 -98.8,-529.2 -71.2,-916.3 70.5,-986.3 353.2,-174.3 700.2,-103.6 756.2,-47.4 68.4,68.5 140.7,339.6 138.1,894.6 -0.3,64.7 -47.1,119.2 -111.2,129.8 l -701.9,115.1 c -7.1,1.1 -14.3,1.7 -21.2,1.7 m 414.1,-1446.8 c -180.5,0 -386.8,41.5 -580.6,137.2 -263.3,130.1 -330.8,549.4 -200.6,1246.3 36.9,197.5 228.6,331.6 427.3,299.1 l 701.9,-115.1 c 180.5,-29.6 312,-183.6 312.9,-366.1 2.6,-566.2 -67.5,-924.8 -208.5,-1065.9 -84.5,-84.6 -252.6,-135.5 -452.4,-135.5"/>
      </g>
      <g transform="matrix(0.026718, 0, 0, -0.026718, -154.546463, 627.082397)" id="g258" style="">
        <path id="path260" style="fill:#000072;fill-opacity:1;fill-rule:nonzero;stroke:none" d="m 11958.4,16098 c 94.2,40.8 194.5,69.5 296.6,86.5 102.1,17.6 205.8,23.6 308.3,25 56.8,0.7 113.4,-0.3 169.1,-1.4 44.7,-0.9 88.8,-1.7 131.9,-1.7 48.2,0.2 95.2,2.1 136.3,8.4 41.3,5.7 74,19.7 84.5,31.7 41.5,48.2 114.1,53.5 162.2,11.9 48.2,-41.5 53.5,-114.1 12,-162.3 -7.9,-9 -16.8,-16.6 -26.6,-22.6 l -17.9,-11 c -72.9,-44.7 -142.2,-49.9 -199.9,-51.1 -58.6,-0.2 -111.7,5.9 -163.2,12.9 -102.5,14.6 -199.3,32.9 -296.5,45.5 -96.9,12.5 -193.8,20.6 -290.6,17.8 -96.8,-2.2 -193.4,-15.4 -287.7,-41.2 l -0.3,-0.1 c -14.6,-4 -29.7,4.6 -33.7,19.2 -3.7,13.3 3.2,27.1 15.5,32.5"/>
      </g>
      <g transform="matrix(0.029819, 0, 0, -0.029819, -154.546463, 627.082397)" id="g262" style="">
        <path id="path264" style="fill:#ffffff;fill-opacity:1;fill-rule:nonzero;stroke:none" d="m 16001.4,11215.7 c -32.5,-79.9 -76.4,-155.6 -133.6,-226.2 -15.6,-19.4 -32.8,-37.3 -51.4,-54 -54.8,-49.1 -120.9,-87.4 -190.5,-117.8 -147.3,-64.3 -310.6,-93.5 -419.1,-119.2 -287,-68.6 -402.5,-153.4 -420.4,-167.7 -1.7,-1.3 -2.5,-2.1 -2.5,-2.1 646.6,-685.87 155.6,-1460.84 -50.7,-1782.61 0,0 526.1,-671.35 158.1,-1235.23 -328.3,-503.36 -1148.4,-296.56 -1406.1,100.85 -203.3,313.77 -352.3,602.52 -400.5,1151.77 -74.4,842.04 -978.2,882.13 -1400.7,1333.82 -279.6,299.1 -424.9,719.2 -452.9,1233.1 -12.4,227 -1.8,472.1 29.8,733.1 106.9,877.4 454.1,1934.3 985,3081 0,0 3815.1,-523.5 3717.5,-909.7 -298.1,-1179.4 336.6,-2286.5 38,-3019.1"/>
      </g>
      <g transform="matrix(0.028908, 0, 0, -0.028908, -154.546463, 627.082397)" id="g266" style="">
        <path id="path268" style="fill:#b2b2d4;fill-opacity:1;fill-rule:nonzero;stroke:none" d="m 14748.7,7545.36 h -1.3 c -298.5,0.46 -613.9,153.12 -749.9,363 -187.6,289.46 -347,575.09 -396.8,1140.42 -54.8,622.03 -514.2,861.56 -919.6,1072.82 -212.2,110.7 -412.7,215.2 -552.8,364.9 -318.6,340.7 -465.9,857.3 -444.9,1524.9 26.1,-12.9 63.3,-30.4 110.6,-50.5 238.2,-101.3 734.4,-270.5 1391.4,-270.5 266.1,0 558.7,27.8 871.2,99 1.2,-56.1 13.3,-110.4 35.2,-160.5 0,-0.1 0.1,-0.1 0.1,-0.2 0,-0.1 0,-0.1 0,-0.1 22,-50.4 53.9,-96.5 94.6,-136 80.6,-78.2 185.8,-121 297,-121 0.1,0 0.2,0 0.3,0 0,0 0,0 0,0 2.1,0 4.3,0 6.5,0 h -0.1 l 1682.8,24.9 c 43.8,0.6 86.5,7.8 127,21.2 -4.2,-5.4 -8.5,-10.8 -12.7,-16.2 -123.6,-152.4 -383.3,-210.2 -555.1,-248.6 -25.2,-5.6 -48.7,-10.9 -70.2,-16 -339.4,-81 -467.1,-186.1 -480.4,-197.8 -8.2,-7.1 -15,-15.3 -20.5,-24.3 -203.9,110.8 -447.6,207.3 -678.1,207.3 -59,0 -117.1,-6.3 -173.5,-20.3 0,0 6,8.6 18,23.7 -184.7,13.5 -333.2,167.3 -336.1,356.1 l -0.3,9.1 c -307.8,-84.4 -564.6,-118.2 -826.3,-118.2 -148.9,0 -299.4,11 -461.8,29.7 -16.5,1.9 -32.9,2.8 -49.2,2.8 -192,0 -367,-128.9 -409,-319.7 -18.6,-84.7 -7,-170 63.5,-245.5 435.5,-465.8 1368.1,-507.2 1444.5,-1375.81 50,-566.57 203.5,-864.42 413.4,-1187.76 138.7,-214.3 446.8,-389.33 738.9,-389.33 181.5,0 356.7,67.56 481.3,235.24 -11.4,-106.7 -45.5,-214.56 -112.7,-317.61 -139.7,-214.05 -362.3,-259.17 -525,-259.17 m -764.8,4901.24 c 9.6,53 30.8,102.1 60.9,144.6 l 2.1,-143.3 c -17.7,-0.5 -38.7,-0.9 -63,-1.3"/>
      </g>
      <g transform="matrix(0.022561, 0, 0, -0.022561, -154.546463, 627.082397)" id="g270" style="">
        <path id="path272" style="fill:#b2b2d4;fill-opacity:1;fill-rule:nonzero;stroke:none" d="m 15189.8,16274.8 c -20,8.2 -39.5,16.5 -58.6,25.2 28,-6.2 45.5,-9.7 50.8,-10.7 3,-0.5 6,-1 9,-1.5 -0.4,-4.3 -0.8,-8.6 -1.2,-13"/>
      </g>
      <g transform="matrix(0.02979, 0, 0, -0.02979, -154.546463, 627.082397)" id="g274" style="">
        <path id="path276" style="fill:#000072;fill-opacity:1;fill-rule:nonzero;stroke:none" d="m 12318.3,15049 c -1083,-2364.1 -1278.2,-4093 -549,-4872.9 135.9,-145.3 330.5,-246.67 536.4,-354.05 393.4,-205.06 839.2,-437.5 892.4,-1041.11 48.4,-548.6 203,-825.77 385.1,-1106.67 132,-203.66 438,-351.81 727.7,-352.25 h 1.3 c 157.8,0 373.9,43.79 509.4,251.49 325,498.13 -148.5,1112.91 -153.3,1119.03 -26.5,33.76 -28.7,80.64 -5.5,116.79 197.2,307.52 659.1,1027.54 62.3,1660.67 -18.8,19.9 -28.8,46.7 -27.4,74.2 1.4,27.3 13.8,53.1 34.5,71.1 13,11.4 136.8,113.3 466.2,192 20.9,4.9 43.7,10 68.1,15.5 166.8,37.2 418.7,93.4 538.7,241.2 280.8,346.4 198.8,847.6 103.7,1428 -87.3,533.3 -186.3,1137.1 -31.7,1765.6 -40.4,47.7 -292.6,223.4 -1860.4,514.8 -739.2,137.4 -1468.7,243.9 -1698.5,276.6 m 1993.9,-7928.88 h -1.6 c -358.8,0.57 -727.7,183.23 -896.9,444.31 -189.8,292.75 -364.4,604.75 -416.8,1198.72 -43.4,493.51 -403.4,681.16 -784.5,879.84 -212,110.47 -431.2,224.74 -590.6,395.21 -796.1,851.3 -602.7,2685.1 544.6,5163.6 18.7,40.3 61.4,63.7 105.4,57.7 8.6,-1.2 875.7,-120.7 1762.8,-285 1831.8,-339.2 1965,-536.7 2015.2,-611.1 37.5,-55.6 35.5,-106.3 27.2,-139.1 -150,-593.7 -53.7,-1181.2 31.2,-1699.6 102.9,-628.4 191.8,-1171.1 -146.2,-1587.9 -164.2,-202.4 -457.4,-267.8 -651.5,-311.1 -23.3,-5.3 -45.2,-10.1 -65.2,-14.9 -136.3,-32.5 -230.3,-68.6 -290.9,-97.1 544.1,-680.93 128.3,-1418.24 -84.8,-1755.6 125.7,-186 462.2,-772.14 121.1,-1294.94 -144.3,-221.27 -385.3,-343.04 -678.5,-343.04"/>
      </g>
      <g transform="matrix(0.029226, 0, 0, -0.029226, -154.546463, 627.082397)" id="g278" style="">
        <path id="path280" style="fill:#ffffff;fill-opacity:1;fill-rule:nonzero;stroke:none" d="m 12731.7,14263.9 c 0,0 -1037.8,319.4 -1361.7,570.9 -215.1,167.1 -361.3,318.6 -525.1,637.4 -227.6,442.6 -507.6,827.8 -870.43,771.6 -158.47,-24.6 -203.55,-173.7 -203.55,-173.7 0,0 -145.6,14.9 -254.1,-65.9 -120.9,-90.1 -127.01,-265.7 -127.01,-265.7 0,0 -160.4,-65.1 -196.73,-286.4 -93.83,-571.4 240.59,-1441.5 958.22,-2058.7 612.1,-526.5 1588.5,-717.6 1588.5,-717.6 l 991.9,1588.1"/>
      </g>
      <g transform="matrix(0.028631, 0, 0, -0.028631, -154.546463, 627.082397)" id="g282" style="">
        <path id="path284" style="fill:#b2b2d4;fill-opacity:1;fill-rule:nonzero;stroke:none" d="m 12013,13040 c -3,0.9 -6,1.6 -9.1,2.3 -9.7,1.9 -977.4,196.6 -1573.1,709 -731.86,629.5 -1028.39,1485 -943.05,2004.9 26.39,160.8 133.72,210.6 136.68,211.9 37.94,15.5 63.55,52.2 65.45,93.1 1.71,36.4 20.74,141.6 87.44,191.2 56.92,42.5 133.66,47.6 167.99,47.6 5.52,0 9.98,-0.1 13.07,-0.3 3.08,-0.1 4.79,-0.2 4.86,-0.2 3.54,-0.4 7.09,-0.6 10.57,-0.6 2.75,0 5.51,0.1 8.27,0.4 -12.41,-47.9 -13.72,-83.7 -13.72,-83.7 0,0 -163.6,-66.5 -200.89,-292.4 -95.65,-583.3 245.83,-1471.3 978.33,-2101.4 342.1,-294.3 795.5,-485.9 1135.9,-599 82.3,-27.4 131.5,-103.5 131.3,-182.8"/>
      </g>
      <g transform="matrix(0.029435, 0, 0, -0.029435, -154.546463, 627.082397)" id="g286" style="">
        <path id="path288" style="fill:#000072;fill-opacity:1;fill-rule:nonzero;stroke:none" d="m 11656.4,12483.5 c -6.5,0 -13.1,0.7 -19.7,1.9 -40.7,8 -1003.1,201.1 -1624.1,735.3 -769.02,661.4 -1077.95,1576.2 -985.74,2138.1 30.45,185.5 134.35,284.6 200.69,330.2 12.84,74.7 50.45,201.3 160.53,283.4 84.74,63.1 182.57,81.4 248.66,85.7 43.22,71.8 123.68,151.5 251.2,171.2 455.76,70.7 772.36,-434.3 970.76,-820.3 155.3,-302 293.1,-443.5 493.2,-598.9 303.2,-235.5 1309.3,-546.8 1319.3,-549.9 54,-16.6 84.3,-73.8 67.7,-127.8 -16.6,-53.9 -73.8,-84.2 -127.7,-67.6 -42.8,13.2 -1052.1,325.6 -1384.6,583.8 -218.1,169.5 -377.9,332.9 -549.7,666.9 -269.4,524 -510,750.3 -757.67,711.8 -88.31,-13.6 -117.3,-93.3 -120.37,-102.3 -15.13,-45.4 -60.21,-75.8 -107.79,-70.8 -0.06,0 -1.72,0.2 -4.72,0.3 -21.52,0.9 -111.75,1.9 -176.11,-46.1 -64.88,-48.2 -83.4,-150.5 -85.06,-185.9 -1.85,-39.8 -26.75,-75.5 -63.66,-90.5 -2.87,-1.4 -107.28,-49.8 -132.95,-206.2 -83.01,-505.7 205.43,-1337.9 917.33,-1950.2 579.4,-498.4 1520.7,-687.7 1530.1,-689.6 55.4,-10.9 91.4,-64.6 80.6,-120 -9.6,-48.7 -52.3,-82.5 -100.2,-82.5"/>
      </g>
      <g transform="matrix(0.027332, 0, 0, -0.027332, -154.546463, 627.082397)" id="g290" style="">
        <path id="path292" style="fill:#4d1c54;fill-opacity:1;fill-rule:nonzero;stroke:none" d="m 16298.2,11878.7 c 0.8,4.7 1.4,9.4 1.8,14.1 0,-0.7 0,-1.4 -0.1,-2.2 -0.5,-3.9 -0.9,-7.9 -1.7,-11.9"/>
      </g>
      <g transform="matrix(0.028559, 0, 0, -0.028559, -154.546463, 627.082397)" id="g294" style="">
        <path id="path296" style="fill:#ffffff;fill-opacity:1;fill-rule:nonzero;stroke:none" d="m 16300,11527.4 c -160.3,-8.6 -339.9,-15.2 -532.7,-17.9 114.9,-6.7 220.8,-11.5 315.3,-14.8 75.5,-2.5 149.2,8.9 217.4,32.7"/>
      </g>
      <g transform="matrix(0.02991, 0, 0, -0.02991, -154.546463, 627.082397)" id="g298" style="">
        <path id="path300" style="fill:#ffffff;fill-opacity:1;fill-rule:nonzero;stroke:none" d="m 16292.4,11812.2 c -7.6,-169.8 -151.4,-301.3 -321.1,-293.7 -169.8,7.6 -301.3,151.4 -293.7,321.1 7.6,169.8 151.3,301.3 321.1,293.7 169.8,-7.6 301.3,-151.3 293.7,-321.1"/>
      </g>
      <g transform="matrix(0.029754, 0, 0, -0.029754, -154.546463, 627.082397)" id="g302" style="">
        <path id="path304" style="fill:#cccce3;fill-opacity:1;fill-rule:nonzero;stroke:none" d="m 16120.2,11663.5 -2.7,181.8 c 68.5,8.1 130.6,38.8 178.1,84.6 3.1,-16.8 4.4,-34.3 3.6,-52.1 -4.7,-105.8 -80.3,-191.8 -179,-214.3"/>
      </g>
      <g transform="matrix(0.030057, 0, 0, -0.030057, -154.546463, 627.082397)" id="g306" style="">
        <path id="path308" style="fill:#000072;fill-opacity:1;fill-rule:nonzero;stroke:none" d="m 16212.5,11754.2 h 0.3 -0.3 m -306,241.8 c -121.1,0 -222.3,-95.8 -227.8,-217.9 -2.6,-60.8 18.5,-119.1 59.6,-164.1 41.1,-44.9 97.3,-71.2 158.1,-73.9 125.8,-5.5 232.4,92 238,217.6 5.6,125.6 -92,232.4 -217.7,238 -3.4,0.2 -6.8,0.3 -10.2,0.3 m 0.3,-612.5 c -5.8,0 -11.6,0.1 -17.4,0.5 -211.7,9.3 -376.2,189.3 -366.8,401 9.4,211.8 189.7,377 401.1,366.9 211.8,-9.5 376.3,-189.5 366.9,-401.2 -9.2,-205.9 -179.7,-367.2 -383.8,-367.2"/>
      </g>
      <g transform="matrix(0.02932, 0, 0, -0.02932, -154.546463, 627.082397)" id="g310" style="">
        <path id="path312" style="fill:#ffffff;fill-opacity:1;fill-rule:nonzero;stroke:none" d="m 15945.1,11300.6 -1659.4,-24.5 c -196.3,-2.9 -359.5,155.4 -362.5,352 l -13,883 c -2.5,172.2 118.7,318.6 280.8,354.3 22.9,5.2 46.8,7.9 71.3,8.3 l 1659,24.4 c 196.6,3 359.9,-155.4 362.5,-352 l 10.5,-699.3 2.8,-183.7 c 2.9,-196.6 -155.7,-359.5 -352,-362.5"/>
      </g>
      <g transform="matrix(0.029201, 0, 0, -0.029201, -154.546463, 627.082397)" id="g314" style="">
        <path id="path316" style="fill:#b2b2d4;fill-opacity:1;fill-rule:nonzero;stroke:none" d="m 14763.5,11398.9 c -76,0 -148.1,29.7 -203.4,83.4 -56.7,55 -88.5,128.3 -89.6,206.6 l -12.1,821.6 c 24.6,-104.2 55.4,-197.5 95.3,-280.1 -7.7,-32.4 -11.5,-66.5 -11.2,-101.2 0.8,-90.2 29.4,-175.2 80.6,-239.4 53.5,-67 125,-103.8 201.5,-103.8 0.7,0 1.5,0 2.2,0 l 129.7,1.2 c 31.8,0.2 60.8,13.2 81.7,34.5 146.1,-45.4 326.4,-68.2 550,-68.5 1.6,0 3.1,0 4.7,0 329.1,0 552.3,46.4 703.7,111.2 l 2.2,-154.8 c 1.2,-78.3 -28.4,-152.6 -83.4,-209.2 -40.2,-41.4 -90.3,-69.6 -145,-82.2 l -1301.4,-19.3 c -1.8,0 -3.7,0 -5.5,0"/>
      </g>
      <g transform="matrix(0.029433, 0, 0, -0.029433, -154.546463, 627.082397)" id="g318" style="">
        <path id="path320" style="fill:#000072;fill-opacity:1;fill-rule:nonzero;stroke:none" d="m 15865.6,12784.9 c -1.4,0 -2.8,0 -4.3,0 l -1652.8,-24.4 c -161,-2.4 -290.1,-135.4 -287.8,-296.4 l 13,-879.7 c 1.2,-77.6 32.7,-150.4 88.9,-205 56.2,-54.5 130,-83.8 207.5,-82.7 l 1652.8,24.4 c 77.6,1.1 150.4,32.7 205,88.9 54.5,56.1 83.9,129.8 82.7,207.4 l -12.9,879.8 c -2.4,159.5 -133,287.7 -292.1,287.7 m -1639.9,-1616 c -109.4,0 -212.9,42.1 -292,118.9 -80.7,78.3 -126,183 -127.7,294.7 l -13,879.7 c -3.4,231.5 182.2,422.6 413.6,426 l 1652.8,24.4 c 2.1,0 4.2,0 6.3,0 228.6,0 416.3,-184.2 419.7,-413.6 l 12.9,-879.7 c 1.7,-111.7 -40.5,-217.6 -118.8,-298.3 -78.3,-80.7 -183,-126 -294.7,-127.6 L 14232,11169 v 0 c -2.1,-0.1 -4.2,-0.1 -6.3,-0.1"/>
      </g>
      <g transform="matrix(0.028801, 0, 0, -0.028801, -154.546463, 627.082397)" id="g322" style="">
        <path id="path324" style="fill:#ffffff;fill-opacity:1;fill-rule:nonzero;stroke:none" d="m 16300,11511.9 c -21.8,-4.9 -44.3,-7.5 -67.7,-7.7 l -1689.2,-24.9 c -146.5,-2.1 -274.8,83.7 -334,208.8 -21.6,45.5 -34.1,96.1 -34.8,149.5 l -6,399.4 -2,131.7 -5.5,367.8 c -3,200.2 158.5,366.1 358.4,369.1 l 365,5.3 c -167.7,-34.2 -293.6,-184.4 -291.1,-361.4 l 7,-485.6 6.1,-413.5 c 3,-199.9 169.2,-361.5 369.1,-358.4 l 1324.7,19.9"/>
      </g>
      <g transform="matrix(0.025927, 0, 0, -0.025927, -154.546463, 627.082397)" id="g326" style="">
        <path id="path328" style="fill:#b2b2d4;fill-opacity:1;fill-rule:nonzero;stroke:none" d="m 16147.9,12824.2 c -86.3,0 -166.8,33.6 -229,94.1 -63.8,61.9 -99.6,144.5 -100.8,232.6 v 0.1 l -1.9,127.1 c 38.2,68.2 77.3,159.4 84.3,256.7 31.7,-19.8 67.5,-33.2 107.6,-36.6 4,-0.3 7.9,-0.5 11.9,-0.5 43.7,0 86.7,20.5 127.4,53.5 l 5.7,-388.1 c 1.8,-126.9 53.2,-245.7 144.9,-334.7 0.6,-0.6 1.3,-1.3 2,-2 l -145.7,-2.1 c -2.2,-0.1 -4.3,-0.1 -6.4,-0.1"/>
      </g>
      <g transform="matrix(0.028922, 0, 0, -0.028922, -154.546463, 627.082397)" id="g330" style="">
        <path id="path332" style="fill:#000072;fill-opacity:1;fill-rule:nonzero;stroke:none" d="m 14577.1,12987.5 -117.8,-1.8 c -163.9,-2.5 -295.3,-137.8 -292.8,-301.7 l 13.2,-895.2 v 0 c 1.1,-79 33.2,-153.1 90.4,-208.6 57.2,-55.5 131.5,-85.7 211,-84.2 l 130.6,1.9 c -0.6,0.7 -1.2,1.2 -1.8,1.8 -82.1,79.8 -128.2,186.3 -129.8,300 l -13.3,895.2 c -1.6,111.2 39.9,214.6 110.3,292.6 M 14476.4,11366 c -111.2,0 -216.3,42.8 -296.8,121 -82.2,79.7 -128.3,186.2 -129.9,300 l -13.2,895.1 c -3.6,235.5 185.2,429.9 420.8,433.6 l 363.4,5.3 h 0.9 c 33.2,0 61.1,-25 64.6,-58 3.7,-33.3 -18.7,-64 -51.5,-70.7 -140,-28.6 -240,-152.9 -237.9,-295.5 l 13.2,-895.2 c 1.1,-79 33.2,-153.1 90.4,-208.6 57.2,-55.5 132.2,-85.7 211,-84.2 l 1319.3,19.6 c 33.2,1 61.8,-24.4 65.5,-57.7 3.8,-33.2 -18.2,-63.8 -50.9,-70.8 -26.6,-5.7 -53.7,-8.8 -80.6,-9 L 14483,11366 c -2.2,0 -4.4,0 -6.6,0"/>
      </g>
      <g transform="matrix(0.026974, 0, 0, -0.026974, -154.546463, 627.082397)" id="g334" style="">
        <path id="path336" style="fill:#22a7f0;fill-opacity:1;fill-rule:nonzero;stroke:none" d="m 16299.7,13135.7 c 0.3,-35.6 -47,-322.5 -47,-322.5 0,0 -90.8,-0.8 -202.2,-1.9 -139.3,-1.2 -253.5,142 -255.1,319.8 -1.6,177.9 110,323.1 249.2,324.3 94,0.9 202.3,1.9 202.3,1.9 0,0 52.3,-263.8 52.8,-321.6"/>
      </g>
      <g transform="matrix(0.026667, 0, 0, -0.026667, -154.546463, 627.082397)" id="g338" style="">
        <path id="path340" style="fill:#1b86d7;fill-opacity:1;fill-rule:nonzero;stroke:none" d="m 16234.8,13011.8 c -51.9,0.7 -101.1,25.7 -139.4,73.8 -41.4,51.9 -64.6,121.9 -65.2,197.2 -0.7,75.3 21.2,145.7 61.7,198.3 37.5,48.8 86.4,75.9 138,76.4 l 65.1,0.6 c -48.5,-41.3 -85.2,-103.3 -102.3,-176.1 -7.4,-31 -11.1,-63.8 -10.8,-97.8 0.2,-27.8 3.1,-54.6 8.5,-80.3 15,-72.5 49.1,-135 94.9,-178.6 4.8,-4.5 9.7,-8.9 14.7,-13 l -65.2,-0.5"/>
      </g>
      <g transform="matrix(0.027061, 0, 0, -0.027061, -154.546463, 627.082397)" id="g342" style="">
        <path id="path344" style="fill:#000072;fill-opacity:1;fill-rule:nonzero;stroke:none" d="m 16134.9,13361.7 h -0.2 l -140.8,-1.3 c -50.8,-0.5 -99,-27.2 -136,-75.3 -39.9,-51.9 -61.5,-121.3 -60.8,-195.4 0.6,-74.2 23.5,-143.2 64.3,-194.4 37.8,-47.4 86.2,-72 137.4,-72.7 l 140,1.2 c 10.2,0.1 18.8,7.5 20.5,17.6 26.5,165.4 36.2,239.1 36.3,251.9 -0.3,26.1 -15.3,120.1 -40.1,251.3 -1.9,9.9 -10.5,17.1 -20.6,17.1 m -137.5,-643.3 c -82.6,0 -159.8,39.7 -217.4,112 -55.3,69.2 -86.2,161 -87.1,258.4 -0.9,97.3 28.4,189.6 82.3,259.8 56.9,74 134.3,115.2 217.8,116 l 140.7,1.2 c 60.5,0.3 112.8,-42.3 124.1,-101.8 27.5,-145.4 41.6,-236.1 42,-269.8 0.1,-8.2 0.2,-33.4 -37.7,-269.4 -9.7,-60.4 -61.2,-104.7 -122.4,-105.1 l -140,-1.3 c -0.7,0 -1.6,0 -2.3,0"/>
      </g>
      <g transform="matrix(0.027311, 0, 0, -0.027311, -154.546463, 627.082397)" id="g346" style="">
        <path id="path348" style="fill:#22a7f0;fill-opacity:1;fill-rule:nonzero;stroke:none" d="m 16298.4,12975.5 c 1.6,-175.7 -108.7,-319.1 -246.2,-320.3 -137.5,-1.3 -250.3,140.1 -251.8,315.8 -1.6,175.6 108.6,319.1 246.1,320.3 137.5,1.2 250.3,-140.2 251.9,-315.8"/>
      </g>
      <g transform="matrix(0.027309, 0, 0, -0.027309, -154.546463, 627.082397)" id="g350" style="">
        <path id="path352" style="fill:#ffffff;fill-opacity:1;fill-rule:nonzero;stroke:none" d="m 16297,12925.6 c 0.3,1.3 0.4,2.5 0.5,3.8 1.7,15.4 2.4,31.2 2.3,47.2 v 0 0 c 0.2,-17.4 -0.7,-34.4 -2.8,-51 m -9.9,148 c -3.1,11.6 -6.6,22.9 -10.6,33.9 4,-11 7.5,-22.3 10.6,-33.9 v 0"/>
      </g>
      <g transform="matrix(0.026659, 0, 0, -0.026659, -154.546463, 627.082397)" id="g354" style="">
        <path id="path356" style="fill:#badaf3;fill-opacity:1;fill-rule:nonzero;stroke:none" d="m 16197.5,13386 c 17.1,72.8 53.9,134.8 102.4,176.1 h 0.1 c -48.6,-41.3 -85.3,-103.3 -102.5,-176.1"/>
      </g>
      <g transform="matrix(0.027231, 0, 0, -0.027231, -154.546463, 627.082397)" id="g358" style="">
        <path id="path360" style="fill:#ffffff;fill-opacity:1;fill-rule:nonzero;stroke:none" d="m 16300,13195.7 c -37.8,67.7 -95.7,115.8 -162.3,130.3 v 0 c 66.6,-14.4 124.5,-62.6 162.3,-130.3"/>
      </g>
      <g transform="matrix(0.02696, 0, 0, -0.02696, -154.546463, 627.082397)" id="g362" style="">
        <path id="path364" style="fill:#b2b2d4;fill-opacity:1;fill-rule:nonzero;stroke:none" d="m 16118.2,13411 c 39.4,33.5 86.6,53.1 137.5,53.6 0.6,0 1.2,0 1.8,0 14.5,0 28.7,-1.6 42.5,-4.6 v 0 c -13.8,3 -28,4.6 -42.5,4.6 -0.6,0 -1.2,0 -1.8,0 -50.9,-0.5 -98,-20.2 -137.3,-53.6 h -0.2"/>
      </g>
      <g transform="matrix(0.027305, 0, 0, -0.027305, -154.546463, 627.082397)" id="g366" style="">
        <path id="path368" style="fill:#bce4fa;fill-opacity:1;fill-rule:nonzero;stroke:none" d="m 16299.4,12927 c 0.3,1.5 0.4,2.9 0.6,4.4 -0.1,-1.3 -0.3,-2.6 -0.5,-3.9 0,-0.2 0,-0.3 -0.1,-0.5 m -495.2,47.1 c -0.4,33.1 3.3,65.2 10.4,95.4 16.8,71.2 52.7,131.7 100.1,172.1 38.8,32.9 85.4,52.4 135.6,52.8 0.6,0 1.2,0 1.8,0 14.3,0 28.3,-1.5 41.9,-4.4 66.5,-14.5 124.2,-62.5 161.9,-130 8.8,-15.8 16.5,-32.5 23,-50.2 0,-0.1 0,-0.1 0,-0.2 0,0 0.1,-0.1 0.1,-0.1 4,-11 7.5,-22.3 10.5,-33.9 -5.8,-22.5 -13.7,-43.8 -23.1,-63.8 -44,92.7 -123.7,154.7 -214.5,154.7 -0.5,0 -1,-0.1 -1.6,-0.1 -89.4,-0.9 -167.2,-61.7 -210.3,-152.3 -9.5,20.1 -17.2,41.5 -23.1,64.2 -8.7,-32.7 -13,-67.7 -12.7,-104.2"/>
      </g>
      <g transform="matrix(0.027309, 0, 0, -0.027309, -154.546463, 627.082397)" id="g370" style="">
        <path id="path372" style="fill:#cccce3;fill-opacity:1;fill-rule:nonzero;stroke:none" d="m 16124.1,12669.9 c 53.2,20.5 98.7,63.2 130.1,119.5 -31.4,-56.4 -76.9,-99 -130.1,-119.5 m 175.9,306.9 c -0.3,33.9 -4.8,66.4 -12.7,97 0,0 0,0 0,0 7.9,-30.5 12.5,-63.1 12.7,-97"/>
      </g>
      <g transform="matrix(0.026643, 0, 0, -0.026643, -154.546463, 627.082397)" id="g374" style="">
        <path id="path376" style="fill:#166bc3;fill-opacity:1;fill-rule:nonzero;stroke:none" d="m 16300,13037 c -45.9,43.6 -80,106.2 -95,178.8 15.1,-72.5 49.1,-135.2 95,-178.8"/>
      </g>
      <g transform="matrix(0.027304, 0, 0, -0.027304, -154.546463, 627.082397)" id="g378" style="">
        <path id="path380" style="fill:#1b86d7;fill-opacity:1;fill-rule:nonzero;stroke:none" d="m 16054.9,12658.6 c -55.8,0 -107.5,23.5 -149.2,63.1 -44.8,42.5 -78,103.6 -92.7,174.4 -5.2,25.1 -8.1,51.3 -8.3,78.4 v 0 0 c 0.2,-20.6 1.9,-40.9 5,-60.6 5.8,36.2 16.3,70.1 30.9,100.7 43.8,-92.8 123.5,-154.7 214.3,-154.7 0.6,0 1.2,0 1.8,0 89.3,0.8 167.1,61.6 210.3,152.3 14.3,-30.4 24.9,-64.2 30.8,-100.2 0.8,5.1 1.6,10.3 2.2,15.4 -5.9,-50 -21,-96.3 -43,-135.8 -31.4,-56.3 -76.9,-99 -130.1,-119.5 -22.2,-8.5 -45.8,-13.3 -70.2,-13.5 -0.6,0 -1.2,0 -1.8,0"/>
      </g>
      <g transform="matrix(0.027309, 0, 0, -0.027309, -154.546463, 627.082397)" id="g382" style="">
        <path id="path384" style="fill:#cccce3;fill-opacity:1;fill-rule:nonzero;stroke:none" d="m 16297.6,12929.5 c 1.6,15.4 2.4,31.1 2.3,47.1 -0.4,33.9 -4.8,66.5 -12.8,97.1 v 0 c 8,-30.6 12.5,-63.1 12.8,-97 v 0 c 0.1,-16 -0.7,-31.8 -2.3,-47.2"/>
      </g>
      <g transform="matrix(0.027309, 0, 0, -0.027309, -154.546463, 627.082397)" id="g386" style="">
        <path id="path388" style="fill:#96b6df;fill-opacity:1;fill-rule:nonzero;stroke:none" d="m 16294.8,12909.7 c -5.8,36 -16.4,69.7 -30.8,100.2 9.4,19.9 17.3,41.3 23.1,63.8 8,-30.6 12.4,-63.2 12.8,-97.1 0.1,-16 -0.7,-31.7 -2.3,-47.1 -0.2,-1.5 -0.4,-2.9 -0.6,-4.4 -0.6,-5.2 -1.3,-10.4 -2.2,-15.4 m -487.9,1.9 c -3.1,19.7 -4.9,39.9 -5.1,60.5 v 0 c -0.2,36.5 4.1,71.6 12.8,104.3 5.8,-22.7 13.6,-44.2 23.1,-64.2 -14.5,-30.6 -25.1,-64.5 -30.8,-100.6"/>
      </g>
      <g transform="matrix(0.027397, 0, 0, -0.027397, -154.546463, 627.082397)" id="g390" style="">
        <path id="path392" style="fill:#000072;fill-opacity:1;fill-rule:nonzero;stroke:none" d="m 15997.5,13197.7 h -1.3 c -108.6,-1 -195.8,-120.9 -194.5,-267.4 1.3,-145.8 90,-263.8 197.9,-263.8 h 1.3 c 108.5,1 195.7,120.9 194.4,267.4 -0.7,73.2 -23.2,141.4 -63.5,191.9 -37,46.4 -84.7,71.9 -134.3,71.9 z m 2.1,-634.1 c -164.2,0 -298.9,163.5 -300.8,365.7 -1.8,203.2 131.1,369.8 296.4,371.3 82.4,-0.3 159.6,-38.5 217.1,-110.6 54.5,-68.4 85,-159.1 85.9,-255.2 1.8,-203.2 -131.1,-369.7 -296.3,-371.2 -0.8,0 -1.6,0 -2.3,0"/>
      </g>
      <g transform="matrix(0.028384, 0, 0, -0.028384, -154.546463, 627.082397)" id="g394" style="">
        <path id="path396" style="fill:#000072;fill-opacity:1;fill-rule:nonzero;stroke:none" d="m 15937.8,11605.7 h -0.5 c -36.6,0.3 -66,30.2 -65.7,66.8 l 4.1,461.5 c 1.2,129.6 66.7,249 175.3,319.6 73.1,47.4 116,127.7 115,214.7 l -7.3,650.6 c -0.4,36.5 28.9,66.5 65.5,66.9 35.9,-0.7 66.5,-28.9 66.9,-65.5 l 7.4,-650.5 c 1.5,-132.7 -64.1,-255 -175.3,-327.3 -71.3,-46.3 -114.3,-124.6 -115,-209.7 l -4.1,-461.4 c -0.4,-36.5 -30,-65.7 -66.3,-65.7"/>
      </g>
      <g transform="matrix(0.025628, 0, 0, -0.025628, -154.546463, 627.082397)" id="g398" style="">
        <path id="path400" style="fill:#ffffff;fill-opacity:1;fill-rule:nonzero;stroke:none" d="m 13211.8,14404.3 c 0,0 -253.4,-62.1 -288.1,-387.1 -29.6,-276.5 203.9,-441.6 203.9,-441.6 0,0 1164.2,-657.7 2792.2,-262 0,0 380.2,442.8 -5.4,729.6 0,0 -1931.4,-73.3 -2702.6,361.1"/>
      </g>
      <g transform="matrix(0.02493, 0, 0, -0.02493, -154.546463, 627.082397)" id="g402" style="">
        <path id="path404" style="fill:#7c7cb6;fill-opacity:1;fill-rule:nonzero;stroke:none" d="m 15289.8,13556.2 c -762,0 -1337.3,196.1 -1613.5,313.6 276.1,-117.4 851.5,-313.6 1613.5,-313.6 308.6,0 647.8,32.1 1010.2,114.8 v 0 c -362.3,-82.7 -701.6,-114.8 -1010.2,-114.8"/>
      </g>
      <g transform="matrix(0.02493, 0, 0, -0.02493, -154.546463, 627.082397)" id="g406" style="">
        <path id="path408" style="fill:#000072;fill-opacity:1;fill-rule:nonzero;stroke:none" d="m 16299.9,13670.9 v 0 l 0.1,0.1 c 0,-0.1 0,-0.1 0,-0.1 -0.1,0 0,0 -0.1,0"/>
      </g>
      <g transform="matrix(0.02503, 0, 0, -0.02503, -154.546463, 627.082397)" id="g410" style="">
        <path id="path412" style="fill:#000072;fill-opacity:1;fill-rule:nonzero;stroke:none" d="m 16234.7,13616.2 c 0,0 0,0 0,0.1 21.7,4.9 43.5,10 65.3,15.3 -0.1,0 -0.1,0 -0.1,0 -21.7,-5.3 -43.5,-10.5 -65.2,-15.4"/>
      </g>
      <g transform="matrix(0.021588, 0, 0, -0.021588, -154.546463, 627.082397)" id="g414" style="">
        <path id="path416" style="fill:#000072;fill-opacity:1;fill-rule:nonzero;stroke:none" d="m 15583.6,16115.8 c -2,1.5 -93.4,66.8 -163.9,184.2 69.7,-116 159.7,-181.2 163.9,-184.2"/>
      </g>
      <g transform="matrix(0.025448, 0, 0, -0.025448, -154.546463, 627.082397)" id="g418" style="">
        <path id="path420" style="fill:#b2b2d4;fill-opacity:1;fill-rule:nonzero;stroke:none" d="m 14978.5,13280.2 c -746.5,0 -1310.2,192.2 -1580.6,307.2 -115.6,49.2 -177.6,84.3 -177.6,84.3 v 0 c -3.7,2.6 -80,57.9 -139.1,156.3 -44.1,73.4 -78.6,170.9 -66,288.4 5.9,54.7 17.8,101.9 34,142.7 59.4,-140.3 171.1,-219.5 171.1,-219.5 0,0 692.8,-391.3 1757.9,-391.3 320.6,0 674.8,35.4 1054.1,127.7 0,0 77.8,90.4 127.7,216 140,-269.5 -124,-580 -127.6,-584.2 -21.5,-5.2 -42.8,-10.2 -64.2,-15.1 h -0.1 c -355,-81 -687.2,-112.5 -989.6,-112.5"/>
      </g>
      <g transform="matrix(0.02548, 0, 0, -0.02548, -154.546463, 627.082397)" id="g422" style="">
        <path id="path424" style="fill:#000072;fill-opacity:1;fill-rule:nonzero;stroke:none" d="m 13253.8,13732.4 c 79.8,-42.9 1192.1,-615.8 2705.8,-259.1 41.9,56.5 144.3,212.4 127,364.6 -8.4,74.2 -44.6,137.8 -110.4,193.7 -268.4,-7.8 -1934.4,-40.3 -2694.8,355.6 -55.6,-26.1 -170,-102.8 -190.9,-298.3 -21.8,-204.5 135.8,-335.4 163.3,-356.5 z m 1698.9,-562.2 c -1063.1,0 -1756.6,382.8 -1794.2,404 -2.7,1.6 -5.4,3.3 -7.9,5 -11.4,8.1 -278.5,201.1 -243.5,529.3 41.3,386.8 346.6,466 359.6,469.2 22.8,5.7 46.8,2.3 67.3,-9.2 743.9,-419.2 2650.3,-352.2 2669.5,-351.5 20.9,0.8 41.6,-5.5 58.5,-18.1 122.9,-91.5 192.9,-206.4 208,-341.3 30,-269.7 -178.8,-516.2 -187.7,-526.6 -12.5,-14.6 -29.3,-24.9 -48.1,-29.5 -390.1,-94.9 -753.4,-131.3 -1081.5,-131.3"/>
      </g>
      <g transform="matrix(0.027268, 0, 0, -0.027268, -154.546463, 627.082397)" id="g426" style="">
        <path id="path428" style="fill:#000072;fill-opacity:1;fill-rule:nonzero;stroke:none" d="m 15160.6,11824.1 c 94.6,19 184.1,25.8 277.2,26.2 92.4,-0.1 185.2,-8.9 277.3,-26.4 46.4,-7.7 91.6,-20.7 137.3,-32.9 22.6,-7 44.9,-15.2 67.5,-22.9 l 33.6,-11.9 32.8,-14.3 c 89.1,-35.4 171.2,-87.2 251,-142.4 50.2,-34.8 62.7,-103.6 28,-153.8 -34.8,-50.3 -103.6,-62.7 -153.9,-28 -2.9,2 -5.7,4.2 -8.4,6.5 l -5.4,4.5 c -60.4,51.2 -123.2,102 -195.3,139.4 l -26.4,15.2 -27.6,12.9 c -18.5,8.5 -36.7,17.7 -55.6,25.7 -38.3,14.4 -76.5,30.2 -116.4,41.1 -79.3,23.9 -161.7,40.8 -245.4,49.6 -83,8.7 -170.7,10.3 -250.5,2.9 l -4,-0.3 c -30.2,-2.8 -57,19.5 -59.9,49.8 -2.6,28.2 16.9,53.5 44.1,59.1"/>
      </g>
      <g transform="matrix(0.02979, 0, 0, -0.02979, -154.546463, 627.082397)" id="g430" style="">
        <path id="path432" style="fill:#000072;fill-opacity:1;fill-rule:nonzero;stroke:none" d="m 16287.9,13430.8 c -34.3,-18.7 -68.9,-36.6 -103.7,-54.2 -183.1,-53 -1102.2,-288.6 -2330.5,-66.9 -1218.5,270.8 -1974.8,843.6 -2123.3,963.2 -25.4,29.8 -50.4,60.1 -74.9,90.9 35.1,115.1 98.7,183.8 98.7,183.8 0,0 9,-8.1 26.7,-22.2 148.5,-119.7 904.8,-692.4 2123.2,-963.3 1228.4,-221.6 2147.5,13.9 2330.5,66.9 22,6.3 33.1,10.1 33.1,10.1 0,0 32.3,-88.1 20.2,-208.3"/>
      </g>
      <g transform="matrix(0.038265, 0, 0, -0.038265, -154.546463, 627.082397)" id="g434" style="">
        <path id="path436" style="fill:#46c1f7;fill-opacity:1;fill-rule:nonzero;stroke:none" d="m 14164.1,12608.3 c -181,-899.4 -764.5,-1615.4 -1525.2,-1997.9 -142.5,-41.2 -858,-224.5 -1814.2,-52 -948.66,210.8 -1537.55,656.7 -1652.94,749.8 -553.52,647 -814.64,1532.9 -633.59,2432.4 312.65,1553.6 1825.63,2559.4 3379.23,2246.7 1553.4,-312.6 2559.4,-1825.4 2246.7,-3379"/>
      </g>
      <g transform="matrix(0.037481, 0, 0, -0.037481, -154.546463, 627.082397)" id="g438" style="">
        <path id="path440" style="fill:#90dafa;fill-opacity:1;fill-rule:nonzero;stroke:none" d="m 8873.75,12580.2 c -146.48,455.7 -176.07,946.4 -78.33,1432 150.19,746.1 581.9,1389 1215.68,1810.4 473,314.5 1016.3,477.4 1571.6,477.4 188.8,0 378.9,-18.8 568.1,-56.9 272.2,-54.8 527.5,-146.9 761.7,-269.9 -194.9,87.2 -402.4,154.2 -620.5,198.1 -195.1,39.3 -389.4,58.2 -581.1,58.2 -1366.3,0 -2588.82,-961 -2868.75,-2351.9 -89.46,-444.4 -73.16,-885.6 31.6,-1297.4"/>
      </g>
      <g transform="matrix(0.036327, 0, 0, -0.036327, -154.546463, 627.082397)" id="g442" style="">
        <path id="path444" style="fill:#3187cf;fill-opacity:1;fill-rule:nonzero;stroke:none" d="m 9720.77,11969.5 c -0.62,0.5 -1.29,1.1 -1.91,1.6 -48.59,57 -94.84,115.7 -138.61,175.6 1.6,-0.1 3.2,-0.1 4.86,-0.2 10.56,-0.4 32.7,-12.3 74.35,-75.6 13.97,-25.5 29.08,-51 46,-77.7 l 2.17,-3.4 c 0.67,-1.1 1.34,-2.1 2.02,-3.1 l 2.64,-4.1 c 2.79,-4.4 5.64,-8.7 8.48,-13.1 m 4514.83,48.1 c -12.6,63.3 -26,137.3 -28.1,208 -14.4,479.4 -25.2,579.9 -25.6,583.9 h -0.1 c -3.7,41.5 -33.9,343.1 -110.9,597.8 201.1,251.6 725.3,966.4 511.7,1337 -50.1,86.9 -204.3,120.1 -410.3,120.1 -133.4,0 -288.6,-13.9 -451.1,-36.1 51.8,515.2 -30.7,1018.7 -221.6,1471.7 975.6,-663.2 1512.3,-1867.7 1264.8,-3096.9 -81,-402.4 -238.6,-769.9 -454.4,-1090.4 -24.1,-32.2 -48.9,-63.9 -74.4,-95.1 m -4828.84,395.6 c -8.53,14.7 -16.86,29.5 -25.09,44.3 2.17,0 4.4,0 6.62,0 13.09,0 27.01,0.8 41.76,2.4 1.6,-0.6 3.15,-1.1 4.76,-1.7 -10.04,-15.6 -19.51,-30.5 -28.05,-45"/>
      </g>
      <g transform="matrix(0.03006, 0, 0, -0.03006, -154.546463, 627.082397)" id="g446" style="">
        <path id="path448" style="fill:#22a7f0;fill-opacity:1;fill-rule:nonzero;stroke:none" d="m 15655.8,12790.2 c -777.4,-289.5 -2010.9,-18.3 -2010.9,-18.3 0,0 -1242.5,227.1 -1847.5,794.8 -501.2,470.4 -148.6,850.2 -148.6,850.2 0,0 8.8,-7.8 26.5,-22 146.9,-118.5 896.5,-686.1 2104.2,-954.5 1217.2,-219.6 2128,13.7 2309.3,66.3 21.8,6.2 32.9,10 32.9,10 0,0 178.3,-486.6 -465.9,-726.5"/>
      </g>
      <g transform="matrix(0.029595, 0, 0, -0.029595, -154.546463, 627.082397)" id="g450" style="">
        <path id="path452" style="fill:#1875ca;fill-opacity:1;fill-rule:nonzero;stroke:none" d="m 14990.6,13303.5 c -310.3,0 -663,24.9 -1045.5,94 -1212.7,269.5 -1970.6,836.1 -2131.9,965.3 6.9,53.4 23.5,98.3 41,133 60,-45.5 151.8,-111.4 273.5,-188.8 0.1,-0.1 0.3,-0.2 0.4,-0.3 0.3,-0.2 0.7,-0.4 1,-0.7 332.7,-211.3 887.4,-507 1624.4,-700.3 0.1,0 0.2,0 0.3,0 1,-0.3 1.9,-0.6 2.9,-0.8 0.2,-0.1 0.2,-0.1 0.3,-0.1 1,-0.2 2,-0.5 2.9,-0.7 0.1,-0.1 0.2,-0.1 0.3,-0.1 1,-0.3 1.9,-0.5 2.9,-0.8 0.1,0 0.2,0 0.3,0 5,-1.4 10.2,-2.8 15.4,-4 0,-0.1 0.2,-0.1 0.3,-0.1 0.9,-0.2 1.8,-0.5 2.7,-0.7 0.2,-0.1 0.4,-0.1 0.6,-0.2 0.8,-0.2 1.8,-0.4 2.6,-0.7 0.2,0 0.5,-0.1 0.7,-0.1 0.8,-0.3 1.7,-0.4 2.5,-0.7 0.3,-0.1 0.6,-0.1 0.8,-0.2 0.8,-0.2 1.7,-0.4 2.5,-0.6 0.3,-0.1 0.5,-0.2 0.8,-0.2 0.8,-0.2 1.7,-0.5 2.5,-0.7 0.2,0 0.5,-0.1 0.7,-0.1 0.9,-0.2 1.7,-0.5 2.6,-0.7 0.1,0 0.2,0 0.4,-0.1 4,-1 8.2,-2 12.2,-3.1 0.1,0 0.3,-0.1 0.3,-0.1 0.9,-0.2 1.7,-0.4 2.6,-0.6 0.2,-0.1 0.5,-0.1 0.8,-0.2 0.8,-0.2 1.5,-0.4 2.3,-0.6 0.4,-0.1 0.7,-0.2 1.1,-0.3 0.7,-0.2 1.4,-0.3 2.2,-0.5 0.4,-0.1 0.7,-0.2 1.1,-0.3 0.7,-0.2 1.5,-0.3 2.2,-0.5 0.4,-0.2 0.8,-0.2 1.2,-0.3 0.8,-0.2 1.4,-0.4 2.1,-0.6 0.5,-0.1 0.8,-0.1 1.2,-0.3 0.8,-0.2 1.5,-0.4 2.2,-0.5 0.4,-0.1 0.7,-0.2 1,-0.2 0.8,-0.3 1.6,-0.4 2.3,-0.7 0.4,0 0.7,-0.1 0.9,-0.2 2.6,-0.6 5.2,-1.2 7.8,-1.9 0.5,-0.1 0.8,-0.2 1.2,-0.3 0.9,-0.2 1.5,-0.4 2.3,-0.6 0.4,0 0.7,-0.1 1,-0.2 0.8,-0.2 1.5,-0.3 2.3,-0.5 0.4,-0.1 0.8,-0.2 1.2,-0.3 0.7,-0.2 1.3,-0.3 2.1,-0.5 0.5,-0.2 0.8,-0.2 1.3,-0.4 0.6,-0.1 1.3,-0.3 2,-0.5 0.5,-0.1 0.9,-0.2 1.4,-0.3 0.6,-0.2 1.4,-0.3 2.1,-0.5 0.4,-0.1 0.8,-0.2 1.2,-0.3 0.7,-0.1 1.4,-0.3 2.1,-0.5 0.4,-0.1 0.9,-0.2 1.4,-0.3 0.7,-0.2 1.3,-0.4 2,-0.5 0.5,-0.2 1.1,-0.3 1.7,-0.4 0.5,-0.2 1,-0.3 1.5,-0.4 0.9,-0.2 1.6,-0.4 2.5,-0.6 0.8,-0.2 1.6,-0.4 2.6,-0.6 0.5,-0.1 1.1,-0.3 1.7,-0.5 0.6,-0.1 1.2,-0.2 1.8,-0.4 0.5,-0.1 1.1,-0.3 1.6,-0.4 0.6,-0.1 1.1,-0.2 1.7,-0.4 0.7,-0.1 1.2,-0.3 1.9,-0.4 0.5,-0.1 1,-0.3 1.5,-0.4 0.6,-0.1 1.3,-0.2 1.8,-0.4 0.6,-0.2 1.2,-0.3 1.7,-0.4 0.6,-0.1 1.2,-0.3 1.8,-0.5 0.5,-0.1 1.1,-0.2 1.7,-0.3 0.5,-0.2 1.2,-0.3 1.8,-0.5 0.5,0 1,-0.2 1.5,-0.3 0.7,-0.2 1.4,-0.4 2.1,-0.5 0.5,-0.1 0.9,-0.3 1.4,-0.3 0.7,-0.2 1.4,-0.3 2.1,-0.5 0.4,-0.2 0.9,-0.2 1.4,-0.4 0.8,-0.1 1.7,-0.4 2.6,-0.6 0.2,-0.1 0.5,-0.1 0.8,-0.2 1.1,-0.2 2.3,-0.5 3.4,-0.7 0.5,-0.2 0.9,-0.3 1.3,-0.4 0.7,-0.1 1.4,-0.3 2.1,-0.5 0.5,-0.1 1.1,-0.2 1.6,-0.3 0.5,-0.2 1.2,-0.4 1.9,-0.5 0.5,-0.1 1.1,-0.2 1.6,-0.4 0.6,-0.1 1.3,-0.2 1.9,-0.4 0.5,-0.1 0.9,-0.2 1.4,-0.3 0.8,-0.2 1.4,-0.4 2.1,-0.5 0.5,-0.1 1,-0.2 1.5,-0.4 0.6,-0.1 1.4,-0.3 2,-0.4 0.5,-0.1 0.9,-0.3 1.5,-0.4 0.6,-0.1 1.3,-0.2 1.9,-0.4 0.6,-0.2 1,-0.2 1.6,-0.3 0.7,-0.2 1.5,-0.4 2.2,-0.6 0.3,-0.1 0.8,-0.1 1.2,-0.3 0.9,-0.2 1.8,-0.4 2.7,-0.5 0.2,-0.1 0.5,-0.2 0.8,-0.2 1.1,-0.3 2.3,-0.6 3.5,-0.9 0.1,0 0.3,0 0.4,0 1,-0.3 2.1,-0.5 3,-0.7 0.5,-0.1 0.8,-0.2 1.3,-0.3 0.8,-0.2 1.4,-0.4 2.2,-0.5 0.6,-0.2 0.9,-0.2 1.5,-0.4 0.7,-0.1 1.3,-0.3 2,-0.4 0.5,-0.1 1,-0.3 1.5,-0.3 0.7,-0.2 1.3,-0.3 2,-0.5 0.5,-0.1 1,-0.2 1.5,-0.4 0.7,-0.1 1.3,-0.3 2,-0.4 0.6,-0.1 0.9,-0.2 1.5,-0.3 0.7,-0.2 1.4,-0.3 2.1,-0.5 0.5,-0.1 1,-0.2 1.4,-0.3 0.7,-0.2 1.5,-0.4 2.1,-0.5 0.5,-0.1 1,-0.2 1.4,-0.3 0.8,-0.2 1.6,-0.4 2.4,-0.5 0.3,-0.1 0.8,-0.2 1.2,-0.3 1.1,-0.2 2.2,-0.5 3.5,-0.8 v 0 c 1.2,-0.2 2.6,-0.5 4,-0.8 45.3,-8.1 90.3,-15.7 134.8,-22.7 335.5,-52.6 647,-72.4 925.4,-72.4 613.9,0 1066.6,95.8 1259.1,145.1 2.7,-38.8 0.7,-86.8 -13.7,-138.8 -137.5,-39.3 -613.2,-159.2 -1293,-159.2"/>
      </g>
      <g transform="matrix(0.030281, 0, 0, -0.030281, -154.546463, 627.082397)" id="g454" style="">
        <path id="path456" style="fill:#000072;fill-opacity:1;fill-rule:nonzero;stroke:none" d="m 15541.7,12696.9 h 0.3 -0.3 m -3956,1470.6 c -58.1,-115.2 -106.4,-345.7 193.6,-627.3 572.6,-537.3 1771.9,-761.5 1784,-763.7 1.1,-0.2 2.3,-0.5 3.4,-0.7 12,-2.6 1205.3,-259.5 1940.3,14.2 385.3,143.4 430.2,374.5 421.1,503.5 -284.7,-73 -1152.1,-250 -2266.8,-48.9 -1.3,0.2 -2.6,0.5 -3.9,0.7 -1105.6,245.8 -1837.1,744.5 -2071.7,922.2 M 14639,12464.3 c -562.6,0 -1067.2,107 -1113.2,117.1 -72.3,13.3 -1273.3,242.4 -1882.5,813.9 -563,528.5 -156.4,979.6 -152.3,984.1 36.7,39.5 98.3,42.6 138.6,6.8 0.8,-0.7 8.5,-7.3 22.8,-18.8 135,-109.1 867.3,-665.1 2046.2,-927.6 1188.4,-214.1 2078.8,15.5 2245.2,63.8 17.8,5.1 27.3,8.2 28.5,8.6 51.1,17.2 106.7,-9.3 125.2,-59.9 2.1,-5.8 202.5,-579 -521.1,-848.5 h -0.1 c -282.7,-105.3 -619.3,-139.5 -937.3,-139.5"/>
      </g>
      <g transform="matrix(0.026557, 0, 0, -0.026557, -154.546463, 627.082397)" id="g458" style="">
        <path id="path460" style="fill:#000072;fill-opacity:1;fill-rule:nonzero;stroke:none" d="m 11465.9,14434.5 c -38.4,0 -73.8,25.2 -85,64 -13.5,47 13.6,96 60.5,109.5 1147.9,330.8 1164,1551.9 1164.1,1603.7 0.1,48.7 39.7,88.3 88.5,88.3 h 0.1 c 48.8,-0.1 88.4,-39.6 88.4,-88.4 0,-14 -14.8,-1405.6 -1292.1,-1773.6 -8.1,-2.3 -16.4,-3.5 -24.5,-3.5"/>
      </g>
      <g transform="matrix(0.028795, 0, 0, -0.028795, -154.546463, 627.082397)" id="g462" style="">
        <path id="path464" style="fill:#ffffff;fill-opacity:1;fill-rule:nonzero;stroke:none" d="m 16294.7,14719.6 c 2.1,8 3.9,14.2 5.3,18.6 l -5.3,-18.6"/>
      </g>
      <g transform="matrix(0.02698, 0, 0, -0.02698, -154.546463, 627.082397)" id="g466" style="">
        <path id="path468" style="fill:#ffffff;fill-opacity:1;fill-rule:nonzero;stroke:none" d="m 13080.2,16300 62.9,-106 c -22,34.5 -43.2,69.8 -62.9,106"/>
      </g>
      <g transform="matrix(0.030455, 0, 0, -0.030455, -154.546463, 627.082397)" id="g470" style="">
        <path id="path472" style="fill:#ffffff;fill-opacity:1;fill-rule:nonzero;stroke:none" d="m 16300,13726.2 c -26.1,-25.5 -53.3,-49.8 -81,-73.2 l 81,73.2"/>
      </g>
      <g transform="matrix(0.034463, 0, 0, -0.034463, -154.546463, 627.082397)" id="g474" style="">
        <path id="path476" style="fill:#ffffff;fill-opacity:1;fill-rule:nonzero;stroke:none" d="m 14962.6,12476.1 c -26.5,-97.7 -215.1,27.2 -256,55.6 -3.5,2.4 -7.7,-0.8 -7.4,-5.1 1.4,-17.9 6.6,-58.1 25,-124 22.6,-81.3 41.7,-144.6 20.1,-182.3 -23.1,-39.9 -94.5,-45.9 -179,-23.2 -47.3,12.7 -105.3,-21.4 -158.8,-65.2 l -0.6,-0.5 c -26,-21.3 -51,-44.7 -73.1,-66.2 l -1.6,-1.4 c -90.5,-76.4 -189.5,-141.5 -294.8,-196.2 -135.6,-67.7 -281,-115.1 -431.5,-146.7 0,0 -706.4,-145.5 -1398.5,-40.7 -692.1,104.8 -1323.8,453 -1323.8,453 -134.5,74.8 -259.3,163.1 -368.7,267.9 -84.6,83.4 -159.8,175 -223.7,274.7 l -0.4,0.7 -0.6,1.1 c -14.7,27.2 -31.7,56.9 -50.2,85 -38.3,57.8 -83.8,108 -132.8,109.9 -87.5,3.4 -153.89,30.1 -164.09,75.1 -9.49,42.4 27.48,97.3 73.09,168.2 37.1,57.4 54,94.4 60.6,111.1 1.6,4 -1.5,8.2 -5.5,7 -47.3,-15.1 -264.54,-78.5 -260.99,22.7 1.96,56.2 116.55,209.3 173.65,375.1 165.04,481 205.94,574.7 205.94,574.7 1.2,3.1 142.3,344.5 312.8,585.8 -86.7,215.5 -446.3,1170.1 -128.4,1464.6 46.7,43.2 146.6,39.9 273,8.7 365.8,-89.4 952.9,-409.1 1113.3,-499 268.4,80.7 563.1,110.9 880.5,76.8 34.1,-3.5 107.2,-9 191.9,-22 75.2,-11.5 163,-30.2 192.7,-36.2 313.4,-61.4 586,-177.6 818.3,-334.2 242.1,51.7 1346,272.1 1469.3,57.8 1.7,-2.9 3.2,-5.7 4.9,-8.8 202,-378.9 -415.6,-1173.2 -561.2,-1352.1 91.3,-280.9 125.1,-648.7 125.3,-652.1 0,0 11.2,-101.6 26.7,-609.9 5.2,-175.3 69.4,-355.4 54.6,-409.7"/>
      </g>
      <g transform="matrix(0.02698, 0, 0, -0.02698, -154.546463, 627.082397)" id="g478" style="">
        <path id="path480" style="fill:#ffffff;fill-opacity:1;fill-rule:nonzero;stroke:none" d="m 13143.1,16194 -62.9,106 c 19.7,-36.2 40.9,-71.5 62.9,-106"/>
      </g>
      <g transform="matrix(0.030455, 0, 0, -0.030455, -154.546463, 627.082397)" id="g482" style="">
        <path id="path484" style="fill:#ffffff;fill-opacity:1;fill-rule:nonzero;stroke:none" d="m 16219,13653 c 27.6,23.4 54.8,47.6 81,73.2 l -81,-73.2"/>
      </g>
      <g transform="matrix(0.034463, 0, 0, -0.034463, -154.546463, 627.082397)" id="g486" style="">
        <path id="path488" style="fill:#ffffff;fill-opacity:1;fill-rule:nonzero;stroke:none" d="m 12870.9,15079.7 c 0,253 61.9,491.5 170.9,701.6 -5.8,1.1 -11.3,2.6 -17.1,3.8 -29.7,6 -117.5,24.7 -192.7,36.2 -84.7,13 -157.8,18.5 -191.9,22 -317.4,34.1 -612.1,3.9 -880.5,-76.8 -160.4,89.9 -747.5,409.6 -1113.3,499 -126.4,31.2 -226.3,34.5 -273,-8.7 -317.9,-294.5 41.7,-1249.1 128.4,-1464.6 -170.5,-241.3 -311.6,-582.7 -312.8,-585.8 0,0 -40.9,-93.7 -205.94,-574.7 -57.1,-165.8 -171.69,-318.9 -173.65,-375.1 -3.55,-101.2 213.69,-37.8 260.99,-22.7 4,1.2 7.1,-3 5.5,-7 -6.6,-16.7 -23.5,-53.7 -60.6,-111.1 -45.61,-70.9 -82.58,-125.8 -73.09,-168.2 10.2,-45 76.59,-71.7 164.09,-75.1 49,-1.9 94.5,-52.1 132.8,-109.9 18.5,-28.1 35.5,-57.8 50.2,-85 l 0.6,-1.1 0.4,-0.7 c 63.9,-99.7 139.1,-191.3 223.7,-274.7 109.5,-104.8 234.2,-193.1 368.7,-267.9 0,0 631.7,-348.2 1323.8,-453 692.1,-104.8 1398.5,40.7 1398.5,40.7 150.5,31.6 295.9,79 431.5,146.7 105.3,54.7 204.3,119.8 294.8,196.2 l 1.6,1.4 c 22.1,21.5 47.1,44.9 73.1,66.3 l 0.6,0.4 c 53.5,43.8 111.5,77.9 158.8,65.2 84.6,-22.7 155.9,-16.7 179,23.2 21.6,37.7 2.5,101 -20.1,182.3 -18.4,65.9 -23.6,106.1 -25,124 -0.3,4.4 3.9,7.5 7.4,5.1 40.9,-28.4 229.5,-153.3 256,-55.6 14.8,54.3 -49.4,234.4 -54.6,409.7 -15.5,508.3 -26.7,609.9 -26.7,609.9 -0.1,1.3 -4.8,52.3 -15.2,130.3 -147.6,-47.5 -304.8,-73.4 -468.2,-73.4 -843.3,0 -1527,683.7 -1527,1527.1"/>
      </g>
      <g transform="matrix(0.033367, 0, 0, -0.033367, -154.546463, 627.082397)" id="g490" style="">
        <path id="path492" style="fill:#f9744b;fill-opacity:1;fill-rule:nonzero;stroke:none" d="m 15820.6,16009.4 c -1.7,3.1 -3.3,6.1 -5,9.1 -127.4,221.3 -1267.5,-6.4 -1517.6,-59.7 -235.4,158.7 -511.5,276.9 -827.6,341.2 -112.5,-217 -176.5,-463.3 -176.5,-724.7 0,-871.1 706.2,-1577.2 1577.3,-1577.2 168.7,0 331.1,26.7 483.5,75.8 -18.4,137.4 -54.2,356 -113.7,539 150.4,184.7 788.3,1005.1 579.6,1396.5"/>
      </g>
      <g transform="matrix(0.031028, 0, 0, -0.031028, -154.546463, 627.082397)" id="g494" style="">
        <path id="path496" style="fill:#b2b2d4;fill-opacity:1;fill-rule:nonzero;stroke:none" d="m 14345.6,13028.5 c -289.9,0 -619.6,23.3 -976.9,87.6 -579.2,129 -1047.9,330.5 -1387.4,512.5 -92.5,61.3 -176.4,127.8 -250.3,198.4 -90.4,89.3 -169.2,185.9 -235.4,288.5 l -5,10.3 -1.5,1.4 c -16.5,29.6 -33.8,59.5 -52.3,87.7 l -3.8,6.4 -1.5,1.4 c -54.5,81.1 -119.6,146.5 -203.5,149.8 -69.7,2.6 -102,19.4 -110.9,26.7 3,22 38.3,76.7 64.5,117.2 l 6.2,9.6 c 4.1,6.4 8,12.6 11.7,18.6 19.2,-3.5 40.1,-5.7 62.1,-6.5 54.3,-2.2 104.6,-57.3 147.1,-121.7 l 0.5,-0.5 c 20.7,-31.5 39.6,-65 56.2,-95.4 l 0.2,-0.1 0.5,-0.7 c 70.8,-111 154.5,-212.7 248.3,-305.3 121.5,-116.3 260.2,-214.5 409.6,-297.6 0,0 701.5,-386.6 1470.2,-503.1 203.7,-30.8 408.5,-42.1 599.5,-42.1 530,0 954,87.3 954,87.3 167.1,35.1 328.6,87.8 479.3,162.9 117,60.7 226.9,133 327.5,218 l 0.8,0.7 1.2,1 c 24.6,23.9 52.2,49.9 81,73.4 l 0.6,0.4 c 51,41.8 105.4,75.6 153,75.6 8,0 15.8,-1 23.3,-3 21.3,-5.7 41.9,-9.8 61.4,-12.2 1.7,-6.8 3.6,-13.9 5.7,-21.1 l 3.1,-11.2 c 4.9,-17.7 10.6,-37.8 15.4,-57 -27.1,-24.3 -54.6,-48.1 -82.5,-71.5 -6.3,1.4 -13,3 -20,4.9 -14.5,3.9 -29,5.7 -43.5,5.7 -66.6,0 -133,-38.4 -195.5,-88.8 l -2.5,-2 c -1.7,-1.3 -3.4,-2.7 -5.1,-4.1 l -0.6,-0.5 c -24.9,-20.6 -49.2,-42.9 -72.7,-65.3 l -12.2,-11.5 c -92.6,-77.8 -196.8,-146.9 -308.7,-205 -121.6,-60.6 -256.8,-108.8 -402.8,-143.5 l -57.9,-11.8 c -1.4,-0.3 -109.8,-22.4 -282.6,-44 -140.5,-12.4 -297.3,-20.5 -467.8,-20.5 m -2923.4,1343.1 v 0 0 l -54.3,83.4 c 17,-28.6 35.3,-56.3 54.3,-83.4 m 1.5,2.2 v 0 0 l -55.1,84.5 c 17.3,-28.9 35.9,-57 55.1,-84.5 m -55.8,81.2 v 0 c -0.7,1.2 -1.6,2.3 -2.2,3.5 l -0.5,0.5 2.7,-4 m 0.7,3.3 v 0 c -0.8,1.1 -1.5,2.5 -2.3,3.7 l -0.1,0.1 -0.5,0.5 2.9,-4.3"/>
      </g>
      <g transform="matrix(0.032316, 0, 0, -0.032316, -154.546463, 627.082397)" id="g498" style="">
        <path id="path500" style="fill:#fa508e;fill-opacity:1;fill-rule:nonzero;stroke:none" d="m 15492.2,15371.8 c -111.6,334.2 -257.9,553.9 -328.2,647.4 -20,26.7 -11.1,69.2 18,84.3 284.6,147.1 636.5,184.1 769.5,193.1 50.3,3.4 91.9,-40.6 91.5,-97.7 -0.5,-64 -23.3,-167.2 -102.3,-332.2 -114.7,-239.6 -288.1,-428.8 -374.1,-514.3 -25,-24.8 -63,-14.7 -74.4,19.4"/>
      </g>
      <g transform="matrix(0.032429, 0, 0, -0.032429, -154.546463, 627.082397)" id="g502" style="">
        <path id="path504" style="fill:#000072;fill-opacity:1;fill-rule:nonzero;stroke:none" d="m 15158.9,15997.2 c 48.9,-66.8 146.5,-209.5 240.4,-419.8 31.8,-71.6 61.1,-146.3 87.1,-222.3 90.8,92.2 242.9,265.3 346,481.1 h 0.1 c 78.8,164.5 95.9,257.4 96.3,306.3 0.1,13.2 -4.4,25.1 -12.4,32.6 -5.1,4.8 -10.8,6.8 -16.8,6.5 -67.2,-4.5 -138.8,-12.7 -207.3,-23.5 -144,-22.4 -352.8,-68.4 -533.4,-160.9 m 321.3,-770.4 c -7.7,0 -15.4,0.9 -23,2.8 -34.8,8.3 -62.6,34.5 -74.4,70.1 -26.4,78.8 -56.5,156.4 -89.4,230.5 -89.6,200.6 -181.8,335.4 -228.9,397.9 -20.1,27 -27.1,61.6 -19.3,95.3 7.6,32.8 28.3,60.2 56.9,75 195.3,100.9 419,150.4 572.3,174.2 71.6,11.3 146.8,19.9 217.2,24.7 38.8,2.7 75.5,-10.7 104.2,-37.7 31.3,-29.5 49.2,-72.4 49,-117.9 -0.8,-88.5 -37,-208.1 -107.8,-355.6 -116.8,-244.2 -290.9,-436.1 -384.3,-528.7 -20,-19.8 -45.9,-30.6 -72.5,-30.6"/>
      </g>
      <g transform="matrix(0.032141, 0, 0, -0.032141, -154.546463, 627.082397)" id="g506" style="">
        <path id="path508" style="fill:#af3886;fill-opacity:1;fill-rule:nonzero;stroke:none" d="m 15525.1,15744.5 c -90.8,197.3 -182.9,331.8 -230.2,396.3 174.1,89.1 374.3,135.6 518.4,159.2 -14.1,-60.2 -41.5,-138.4 -90.1,-239.8 -57.5,-120.1 -129.6,-227.5 -198.1,-315.7"/>
      </g>
      <g transform="matrix(0.032261, 0, 0, -0.032261, -154.546463, 627.082397)" id="g510" style="">
        <path id="path512" style="fill:#000072;fill-opacity:1;fill-rule:nonzero;stroke:none" d="m 15426.4,15634.9 c -90.7,203.4 -184.6,342.1 -236.7,411.4 -20,26.8 -11.2,69.2 18,84.3 183.5,94.8 394.6,144.1 557.5,169.4 -2,-17.8 -5.4,-38 -10.8,-60.7 -143.6,-23.5 -343,-69.8 -516.4,-158.7 47,-64.2 138.8,-198.2 229.3,-394.7 -13.8,-17.8 -27.5,-34.8 -40.9,-51"/>
      </g>
      <g transform="matrix(0.033726, 0, 0, -0.033726, -154.546463, 627.082397)" id="g514" style="">
        <path id="path516" style="fill:#fa508e;fill-opacity:1;fill-rule:nonzero;stroke:none" d="m 11036.2,15305.9 c 197,274.2 393.2,433.7 484,499.4 25.9,18.7 29.9,60.2 7.5,82.2 -218.8,215.4 -530.3,349.1 -649.5,395.1 -45.1,17.4 -95.6,-11 -111.4,-63.5 -17.8,-58.7 -26.2,-159.6 -0.7,-333 37.1,-251.9 141.9,-474.2 196.5,-576.9 15.8,-29.7 53.4,-31.3 73.6,-3.3"/>
      </g>
      <g transform="matrix(0.033825, 0, 0, -0.033825, -154.546463, 627.082397)" id="g518" style="">
        <path id="path520" style="fill:#000072;fill-opacity:1;fill-rule:nonzero;stroke:none" d="m 11453.8,15803.9 -0.5,-0.4 0.6,0.4 h -0.1 m -634.7,380.4 c -3.4,0 -6.7,-0.8 -10.2,-2.5 -9.4,-4.6 -17,-14.2 -20.7,-26.4 -13.5,-44.9 -24.2,-134.8 1.3,-307.8 v -0.1 c 33.2,-226.8 123.4,-428.5 180.3,-538.7 45.5,62.3 93.5,122.3 142.9,178.8 145.4,165.5 275.1,268.5 340.1,315.5 -139.2,136.3 -317.8,238.1 -443.5,299.5 -59.7,29.3 -123,57.1 -183.2,80.4 -2.2,0.9 -4.6,1.3 -7,1.3 m 160.4,-894 h 0.3 -0.3 m -12.2,-105 c -2.1,0 -4.2,0.1 -6.3,0.2 -33.6,2.2 -63.3,21.9 -79.6,52.7 -59.3,111.3 -164.2,336.5 -201.8,593.2 -22.9,155.1 -22.2,274.9 2.2,356.1 12.8,41.8 41.3,76.1 78.4,94.2 33.9,16.5 71.6,18.3 106.1,5 63.1,-24.5 129.4,-53.6 192,-84.3 133.5,-65.3 324.3,-174.2 474.5,-322.1 22,-21.6 33.2,-52.6 30.8,-84.8 -2.5,-33 -18.7,-62.8 -44.5,-81.6 -61.1,-44 -183.9,-141.3 -322.8,-299.6 -51.1,-58.4 -100.8,-121 -147.4,-185.8 -19.5,-27.3 -49.7,-43.2 -81.6,-43.2"/>
      </g>
      <g transform="matrix(0.033398, 0, 0, -0.033398, -154.546463, 627.082397)" id="g522" style="">
        <path id="path524" style="fill:#af3886;fill-opacity:1;fill-rule:nonzero;stroke:none" d="m 11274,15707.2 c -37.8,100.6 -73.4,219.9 -92.1,346.6 -15.8,107.1 -18.7,186.8 -14.5,246.2 125.9,-62.9 297.1,-162.9 431.8,-294.8 -62.9,-45.5 -185.8,-142.9 -325.2,-298 m 325.8,298.4 0.5,0.4 h 0.1 l -0.6,-0.4"/>
      </g>
      <g transform="matrix(0.033519, 0, 0, -0.033519, -154.546463, 627.082397)" id="g526" style="">
        <path id="path528" style="fill:#000072;fill-opacity:1;fill-rule:nonzero;stroke:none" d="m 11256.4,15592.1 c -7.7,18.6 -15.4,38.1 -23.1,58.4 138.9,154.6 261.3,251.6 324.1,297 -134.3,131.4 -304.8,231 -430.3,293.7 1.5,22.4 4.2,41.9 7.5,58.8 142.5,-69.6 322.5,-175.1 464.2,-314.6 22.4,-22.1 18.5,-63.7 -7.5,-82.6 -67.7,-48.9 -193.5,-149.6 -334.9,-310.7 m 302,356.1 -0.5,-0.3 0.6,0.3 h -0.1"/>
      </g>
      <g transform="matrix(0.025818, 0, 0, -0.025818, -154.546463, 627.082397)" id="g530" style="">
        <path id="path532" style="fill:#000072;fill-opacity:1;fill-rule:nonzero;stroke:none" d="m 15787.9,15608 c -8.3,0 -16.7,1.1 -25.1,3.5 -308.9,88.6 -646.2,215.4 -649.6,216.7 -374.7,147.8 -620.3,282.4 -630.6,288.1 -44,24.3 -60,79.6 -35.8,123.6 24.3,44.1 79.7,60.1 123.6,35.9 2.5,-1.4 246.5,-135.1 608.3,-277.8 2,-0.8 332.7,-125.1 634.2,-211.5 48.3,-13.9 76.3,-64.2 62.5,-112.5 -11.5,-40 -47.9,-66 -87.5,-66"/>
      </g>
      <g transform="matrix(0.027931, 0, 0, -0.027931, -154.546463, 627.082397)" id="g534" style="">
        <path id="path536" style="fill:#000072;fill-opacity:1;fill-rule:nonzero;stroke:none" d="m 15620.6,14287.1 c -53.9,0 -110.5,0.3 -169.4,1.1 -46.4,0.6 -83.6,38.8 -82.9,85.2 0.6,46.5 38.9,82.6 85.2,83.1 438.1,-5.9 751.4,13.1 754.6,13.3 46.1,3.3 86.2,-32.4 89.1,-78.8 2.8,-46.4 -32.5,-86.3 -78.8,-89.2 -2.7,-0.1 -243.4,-14.7 -597.8,-14.7"/>
      </g>
      <g transform="matrix(0.034841, 0, 0, -0.034841, -154.546463, 627.082397)" id="g538" style="">
        <path id="path540" style="fill:#000072;fill-opacity:1;fill-rule:nonzero;stroke:none" d="m 14508.6,12339.7 0.2,-0.1 -0.2,0.1 m -1510.8,-874.2 c -34.7,0 -64.2,26.6 -67.1,61.8 -3.1,37.1 24.5,69.7 61.6,72.8 266,22.2 449.8,59.6 451.6,60 l 51.5,10.5 c 130,30.9 250.5,73.8 358.7,127.8 99.7,51.7 192.5,113.3 275,182.5 l 10.8,10.3 c 21,19.9 42.6,39.8 64.8,58.2 l 0.5,0.4 c 1.5,1.3 3,2.5 4.5,3.7 l 2.3,1.8 c 67.8,54.6 140.5,93.3 212.8,73.9 60.7,-16.3 92.6,-10.3 101.7,-6.4 3.4,18 -12.4,74.7 -24.1,116.5 l -2.8,10 c -19.6,70.3 -25.3,114.9 -26.9,135.2 -2.2,28.1 12,55.4 36.3,69.3 24,13.7 54.1,12.4 76.8,-3.4 66.5,-46.4 120.9,-70.7 149,-77.4 -2.5,24 -11.2,66.8 -18.4,102.7 -15.4,76.5 -34.6,171.6 -37.5,267.5 -14.8,489.4 -25.5,593.8 -26,598.1 l -0.4,4.9 c -0.1,0.8 -33.2,357.7 -120.5,626.6 l -11.4,34.9 23.2,28.4 c 344.6,423.4 693.9,1010 544.2,1270 -51,88.3 -552.3,87 -1381.1,-89.4 l -28,-6 -23.7,16 c -230.9,155.6 -494.9,263.4 -784.7,320.3 l -20.8,4.2 c -37.4,7.7 -107.3,22 -167,31.1 -64.3,9.8 -121.7,15.2 -159.8,18.8 -10.5,1 -19.5,1.8 -26.8,2.6 -293.8,31.5 -577.9,6.8 -844.5,-73.5 l -27.4,-8.3 -25,14 c -739.3,414 -1217.8,563.6 -1292.6,494.3 -220,-203.8 -60.1,-867.6 143.7,-1374 l 13.7,-34.1 -21.2,-30 c -162.6,-230.4 -300.3,-562 -301.6,-565.3 -2.6,-5.9 -43.7,-102.5 -202.81,-565.6 -31.13,-90.7 -77.63,-175.9 -115.02,-244.3 -17.37,-31.9 -38.03,-69.7 -47.74,-92.8 28.86,-1.9 87.99,5.4 165.13,29.9 26.27,8.3 55.4,0.7 74.14,-19.6 19.1,-20.5 24.7,-50.7 14.2,-76.9 -9.3,-23.1 -28.2,-62.9 -65.74,-121.2 l -5.5,-8.5 c -23.3,-36.1 -54.75,-84.9 -57.45,-104.5 7.93,-6.5 36.68,-21.4 98.83,-23.8 74.66,-2.9 132.66,-61.2 181.16,-133.3 l 1.3,-1.3 3.4,-5.7 c 16.5,-25.1 31.9,-51.7 46.6,-78.1 l 1.3,-1.2 4.5,-9.2 c 58.9,-91.4 129.2,-177.5 209.7,-257 98.1,-93.7 216.2,-179.5 350.1,-253.9 32.6,-18.1 44.3,-59.1 26.2,-91.7 -18.1,-32.5 -59.1,-44.3 -91.7,-26.2 -144,80.1 -271.4,172.6 -378.6,275.1 -87.4,86.4 -163.4,179.2 -226.5,276.8 l -2.8,4.3 c -0.7,1 -1.4,2.1 -2.1,3.2 l -2.3,3.6 c -17.6,27.8 -33.4,54.4 -47.9,81 -43.4,66 -66.5,78.4 -77.54,78.9 -126.23,4.9 -208.45,51.1 -225.55,126.8 -14.73,65.3 22.17,125.6 70.51,200.7 -71.38,-8.9 -124.78,0 -159.52,26.4 -29.73,22.6 -45.32,56.5 -43.97,95.7 1.51,42.6 28.59,92.2 69.48,167.1 34.91,64 78.39,143.6 105.85,223.5 162.43,472.9 204.04,569.7 205.84,573.5 v 0 c 16.3,39.3 141,333 295.1,561.1 -122.7,312.6 -423.96,1186.5 -96.8,1489.6 184.2,170.8 871.1,-153.2 1425.3,-461.8 275.9,79.1 568.4,102.8 870,70.4 l 25.3,-2.4 c 39.6,-3.8 99.3,-9.4 167.4,-19.8 63.2,-9.6 135.1,-24.4 173.8,-32.3 l 19.9,-4 c 297.4,-58.4 569.8,-167.6 809.9,-324.9 620.8,130.7 1372.8,236.7 1498.2,19 222.7,-386.4 -323.8,-1131.8 -533.6,-1394.1 80.3,-265.5 111.8,-580 115.7,-623.3 v 0 c 0.5,-4.2 11.7,-108.9 26.8,-608.8 2.5,-84.4 20.5,-173.3 34.9,-244.8 16.9,-83.7 28,-138.9 16.9,-180.1 -10.3,-37.8 -35.3,-65.7 -70.4,-78.4 -40.9,-14.9 -94.6,-7.5 -160.1,22 23.9,-86 41.3,-154.6 7.9,-212.6 -38.7,-67.2 -130.9,-87.2 -253,-54.4 -10.7,2.8 -36.4,-2.2 -97.4,-52.3 -21.7,-21 -44.6,-41.7 -69.6,-63 l -3.4,-2.9 -9.1,-7.6 c -88.2,-73.4 -187.6,-139.1 -295.1,-194.9 -133.8,-66.7 -282.9,-117.4 -444.1,-151.2 l -96.1,-20.1 0.6,3.9 c -81.8,-13.3 -211.8,-31.7 -372.2,-45.1 -1.9,-0.2 -3.8,-0.2 -5.7,-0.2"/>
      </g>
      <g transform="matrix(0.027524, 0, 0, -0.027524, -154.546463, 627.082397)" id="g542" style="">
        <path id="path544" style="fill:#7c7cb6;fill-opacity:1;fill-rule:nonzero;stroke:none" d="m 12815.3,16295.4 -3,4.6 0.5,-0.6 c 0.8,-1.4 1.7,-2.6 2.5,-4"/>
      </g>
      <g transform="matrix(0.027515, 0, 0, -0.027515, -154.546463, 627.082397)" id="g546" style="">
        <path id="path548" style="fill:#7c7cb6;fill-opacity:1;fill-rule:nonzero;stroke:none" d="m 12880.1,16206 c -21.4,30.6 -42,61.8 -61.2,94 l 61.2,-94"/>
      </g>
      <g transform="matrix(0.030447, 0, 0, -0.030447, -154.546463, 627.082397)" id="g550" style="">
        <path id="path552" style="fill:#b2b2d4;fill-opacity:1;fill-rule:nonzero;stroke:none" d="m 16295.7,14017 c 1.3,1 2.5,2 3.7,3.1 l 0.6,0.4 -4.3,-3.5"/>
      </g>
      <g transform="matrix(0.027105, 0, 0, -0.027105, -154.546463, 627.082397)" id="g554" style="">
        <path id="path556" style="fill:#000072;fill-opacity:1;fill-rule:nonzero;stroke:none" d="m 12975.1,16295.2 -3.2,4.8 0.5,-0.5 c 0.9,-1.4 1.8,-2.9 2.7,-4.3"/>
      </g>
      <g transform="matrix(0.027097, 0, 0, -0.027097, -154.546463, 627.082397)" id="g558" style="">
        <path id="path560" style="fill:#000072;fill-opacity:1;fill-rule:nonzero;stroke:none" d="m 13042.7,16202.4 -0.6,0.7 c -22.2,31.6 -43.3,63.9 -63.2,96.9 l 63.8,-97.6"/>
      </g>
      <g transform="matrix(0.02753, 0, 0, -0.02753, -154.546463, 627.082397)" id="g562" style="">
        <path id="path564" style="fill:#8188b7;fill-opacity:1;fill-rule:nonzero;stroke:none" d="m 12812.9,16295.2 -3.2,4.8 0.5,-0.5 0.2,-0.2 c 0.8,-1.4 1.6,-2.9 2.5,-4.1"/>
      </g>
      <g transform="matrix(0.027522, 0, 0, -0.027522, -154.546463, 627.082397)" id="g566" style="">
        <path id="path568" style="fill:#8188b7;fill-opacity:1;fill-rule:nonzero;stroke:none" d="m 12878.9,16204.7 c -21.7,31 -42.6,62.7 -62.2,95.3 l 62.2,-95.3"/>
      </g>
      <g transform="matrix(0.030447, 0, 0, -0.030447, -154.546463, 627.082397)" id="g570" style="">
        <path id="path572" style="fill:#b7bdd5;fill-opacity:1;fill-rule:nonzero;stroke:none" d="m 16296.9,14021.2 c 0.7,0.6 1.4,1.2 2.2,1.9 l 0.9,0.7 -3.1,-2.6"/>
      </g>
      <g transform="matrix(0.026957, 0, 0, -0.026957, -154.546463, 627.082397)" id="g574" style="">
        <path id="path576" style="fill:#ffffff;fill-opacity:1;fill-rule:nonzero;stroke:none" d="m 16300,16036.5 c -2.8,6.8 -5.2,14 -7.1,21.3 2.6,-6.9 4.9,-14 7.1,-21.3"/>
      </g>
      <g transform="matrix(0.028107, 0, 0, -0.028107, -154.546463, 627.082397)" id="g578" style="">
        <path id="path580" style="fill:#000072;fill-opacity:1;fill-rule:nonzero;stroke:none" d="m 15500.3,16029.6 c -9.3,-62 -98.4,-104.4 -178.2,-130.4 -83.4,-27 -170.4,-13.9 -242,36.8 -68.6,48.3 -141.1,115.3 -131.7,177.2 28.3,186.8 580.2,103.2 551.9,-83.6"/>
      </g>
      <g transform="matrix(0.027852, 0, 0, -0.027852, -154.546463, 627.082397)" id="g582" style="">
        <path id="path584" style="fill:#8080b9;fill-opacity:1;fill-rule:nonzero;stroke:none" d="m 15383,16200.7 c -23.9,0 -47.8,6 -68.8,17.4 -28,15.4 -58,36.1 -55.2,54.2 2.9,19.5 33.2,27.7 70.4,27.7 66.7,0 155.7,-26.2 150.5,-61.1 -2.8,-18.1 -37.6,-29.1 -68.9,-35.4 -9.2,-1.9 -18.6,-2.8 -28,-2.8"/>
      </g>
      <g transform="matrix(0.027574, 0, 0, -0.027574, -154.546463, 627.082397)" id="g586" style="">
        <path id="path588" style="fill:#000072;fill-opacity:1;fill-rule:nonzero;stroke:none" d="m 15061.4,16170.8 c 12.9,-20.4 28.4,-46.8 44.4,-66 16.1,-20.1 33.2,-36.7 50.4,-47.5 16.9,-11.6 33.7,-17.1 51.4,-20.8 18.4,-1.4 38.6,-3 61,1.9 43.9,7.4 76.7,28.2 108,64.6 30.4,35.4 54.1,91.3 70.6,141.3 l 2.8,8.4 c 10.1,30.6 43.1,47.3 73.7,37.2 23.2,-7.6 38.3,-28.5 40,-51.4 3,-42 -0.7,-76.7 -8.8,-115.1 -8.6,-37.3 -21.2,-75.4 -43.2,-111 -40.3,-72.2 -122.1,-133.8 -207.5,-148.4 -41.3,-10 -87.4,-10.2 -133.2,-1.1 -46.2,10.8 -89.1,34.8 -122.4,65 -33.1,30.7 -56.8,66.5 -72.8,103 -15.9,37.7 -25.4,72.2 -28.4,115.1 -2.2,32.1 22.1,59.9 54.2,62.2 22.1,1.5 42,-9.5 53.1,-26.9 l 6.7,-10.5"/>
      </g>
      <g transform="matrix(0.027572, 0, 0, -0.027572, -154.546463, 627.082397)" id="g590" style="">
        <path id="path592" style="fill:#000072;fill-opacity:1;fill-rule:nonzero;stroke:none" d="m 16018.9,15984.2 c -15.6,-40.2 -34.9,-70.2 -61.2,-101.5 -26.1,-30.2 -59.3,-57.4 -100,-76.9 -40.8,-19 -88.9,-29.2 -136.2,-25.9 -46.5,4.9 -90.5,18.8 -126.8,40.6 -77.4,39.3 -137.4,122.2 -154.4,203.1 -10.5,40.5 -11.2,80.7 -8.4,118.9 3.7,39.1 10.5,73.3 25.7,112.6 11.7,30 45.6,44.9 75.6,33.2 22.7,-8.8 36.9,-30.4 37.3,-53.3 l 0.1,-8.9 c 0.9,-52.6 7,-113 25.6,-156 19.1,-43.9 44.3,-73.4 84,-93.5 20,-11.4 39.8,-15.9 57.8,-20 17.9,-1.7 35.6,-1.3 55.2,4.7 19.6,5.2 40.9,15.9 62.2,30.4 20.9,13.7 43.6,34.3 61.9,49.9 l 9.4,8 c 24.6,20.9 61.4,17.9 82.2,-6.6 14.3,-16.8 17.3,-39.5 10,-58.8"/>
      </g>
      <g transform="matrix(0.029446, 0, 0, -0.029446, -154.546463, 627.082397)" id="g594" style="">
        <path id="path596" style="fill:#f27e80;fill-opacity:1;fill-rule:nonzero;stroke:none" d="m 16288.8,14690.2 c -11.3,-74.3 -145.9,-115.5 -300.7,-92.1 -154.7,23.5 -271.1,102.7 -259.8,177 11.3,74.3 145.8,115.5 300.6,92.1 154.7,-23.4 271.1,-102.7 259.9,-177"/>
      </g>
      <g transform="matrix(0.027655, 0, 0, -0.027655, -154.546463, 627.082397)" id="g598" style="">
        <path id="path600" style="fill:#f27e80;fill-opacity:1;fill-rule:nonzero;stroke:none" d="m 14174.5,16086.7 c -11.9,-79.2 -155.3,-123.1 -320,-98.1 -164.8,24.9 -288.7,109.3 -276.7,188.4 11.9,79.1 155.2,123 320,98.1 164.8,-25 288.7,-109.4 276.7,-188.4"/>
      </g>
      <g transform="matrix(0.038077, 0, 0, -0.038077, -154.546463, 627.082397)" id="g602" style="">
        <path id="path604" style="fill:#000072;fill-opacity:1;fill-rule:nonzero;stroke:none" d="m 14234.2,12670.7 h 0.2 -0.2 M 10893.9,10688 c 929.6,-167.4 1629.9,6.5 1778.5,48.8 772.8,390.9 1313.6,1101.1 1484.3,1949.4 305.1,1516 -680,2997.6 -2196,3302.7 -734.4,147.8 -1482.5,0.8 -2106.26,-413.9 -623.85,-414.8 -1048.81,-1047.7 -1196.65,-1782.1 -170.74,-848.3 53.26,-1712.4 614.61,-2371.8 120.74,-96.5 699.27,-527.8 1621.5,-733.1 m 794.5,-229.1 c -245.2,0 -523.4,19.6 -824.2,73.9 -1,0.2 -2.1,0.4 -3.1,0.6 -972.85,216.3 -1581.44,678.8 -1693.59,769.2 -3.75,3.1 -7.26,6.5 -10.42,10.2 -596.59,697.3 -835.01,1612.6 -654.15,2511.3 156.13,775.8 605.04,1444.3 1264.02,1882.5 658.94,438.1 1449.14,593.4 2224.94,437.2 1601.4,-322.3 2642,-1887.4 2319.7,-3488.7 -180.8,-898.7 -754.8,-1650.6 -1574.7,-2062.8 -4.4,-2.2 -8.9,-3.9 -13.5,-5.3 -96,-27.8 -481.1,-128.1 -1035,-128.1"/>
      </g>
      <g transform="matrix(0.027621, 0, 0, -0.027621, -154.546463, 627.082397)" id="g606" style="">
        <path id="path608" style="fill:#000072;fill-opacity:1;fill-rule:nonzero;stroke:none" d="m 13913.2,9924.79 c -16.7,0 -33.6,4.9 -48.4,15.18 -38.6,26.74 -48.2,79.73 -21.5,118.33 11.3,16.2 279.5,399.7 705.2,718.4 575.5,430.8 1159.9,529 1690.3,284 42.6,-19.7 61.2,-70.3 41.5,-112.9 -19.7,-42.6 -70.3,-61.3 -112.9,-41.5 -1145.3,529 -2174,-930.13 -2184.2,-944.9 -16.5,-23.88 -43.1,-36.61 -70,-36.61"/>
      </g>
      <g transform="matrix(0.036654, 0, 0, -0.036654, -154.546463, 627.082397)" id="g610" style="">
        <path id="path612" style="fill:#90dafa;fill-opacity:1;fill-rule:nonzero;stroke:none" d="m 10962.8,15474 c -54.6,0 -113.5,8.1 -176.9,25.8 -214,59.8 -219.5,203.4 -105.5,408.1 94.6,169.6 465.6,392.1 800.8,392.1 55.4,0 110,-6.1 162.1,-19.5 452.8,-116.8 -149.3,-419.6 -237.2,-550 -98,-145.2 -241,-256.5 -443.3,-256.5"/>
      </g>
      <g transform="matrix(0.029664, 0, 0, -0.029664, -154.546463, 627.082397)" id="g614" style="">
        <path id="path616" style="fill:#000072;fill-opacity:1;fill-rule:nonzero;stroke:none" d="m 15192.7,15396.4 c 75.5,-336.6 333.7,-524.8 576.7,-420.2 243.1,104.6 378.9,462.3 303.4,799 -75.5,336.7 -333.7,524.8 -576.8,420.2 -243,-104.6 -378.8,-462.3 -303.3,-799"/>
      </g>
      <g transform="matrix(0.029011, 0, 0, -0.029011, -154.546463, 627.082397)" id="g618" style="">
        <path id="path620" style="fill:#ffffff;fill-opacity:1;fill-rule:nonzero;stroke:none" d="m 15695.3,16059.5 c 1.5,-124.2 59.3,-220.3 129.1,-214.8 69.8,5.5 125.1,110.8 123.6,235 -1.5,124.1 -59.3,220.3 -129,214.7 -69.8,-5.5 -125.2,-110.7 -123.7,-234.9"/>
      </g>
      <g transform="matrix(0.028968, 0, 0, -0.028968, -154.546463, 627.082397)" id="g622" style="">
        <path id="path624" style="fill:#ffffff;fill-opacity:1;fill-rule:nonzero;stroke:none" d="m 16170.4,15776 c 3.7,-62.2 35,-109.2 69.7,-105.2 34.8,4.1 59.9,57.7 56.1,119.9 -3.7,62.1 -34.9,109.2 -69.7,105.1 -34.8,-4 -59.9,-57.6 -56.1,-119.8"/>
      </g>
      <g transform="matrix(0.030296, 0, 0, -0.030296, -154.546463, 627.082397)" id="g626" style="">
        <path id="path628" style="fill:#000072;fill-opacity:1;fill-rule:nonzero;stroke:none" d="m 13582.7,15294.6 c -170.5,-291.7 -467.3,-390.4 -662.9,-220.6 -195.7,169.8 -216.1,543.9 -45.6,835.5 170.5,291.7 467.3,390.5 662.9,220.7 195.7,-169.8 216.1,-543.9 45.6,-835.6"/>
      </g>
      <g transform="matrix(0.029563, 0, 0, -0.029563, -154.546463, 627.082397)" id="g630" style="">
        <path id="path632" style="fill:#ffffff;fill-opacity:1;fill-rule:nonzero;stroke:none" d="m 13863.7,16017.5 c -38.4,-115.7 -121.1,-188.4 -184.6,-162.4 -63.6,25.9 -84,140.8 -45.6,256.5 38.4,115.7 121,188.4 184.6,162.4 63.6,-25.9 84,-140.8 45.6,-256.5"/>
      </g>
      <g transform="matrix(0.029033, 0, 0, -0.029033, -154.546463, 627.082397)" id="g634" style="">
        <path id="path636" style="fill:#ffffff;fill-opacity:1;fill-rule:nonzero;stroke:none" d="m 13594.1,16154.7 c -22.4,-57.9 -66.3,-93.2 -98.1,-78.8 -31.9,14.3 -39.5,72.9 -17.1,130.9 22.4,57.9 66.3,93.2 98.1,78.8 31.9,-14.3 39.5,-72.9 17.1,-130.9"/>
      </g>
    </g>
  </g>
</svg>